<?xml version="1.0" standalone="no"?> <!DOCTYPE svg PUBLIC "-//W3C//DTD SVG 1.0//EN" "http://www.w3.org/TR/2001/REC-SVG-20010904/DTD/svg10.dtd" > <svg xmlns="http://www.w3.org/2000/svg" width="100%" height="100%">
<defs >
<font id="polaris_v2_light" horiz-adv-x="464" ><font-face
    font-family="Galaxie Polaris Light"
    units-per-em="1000"
    panose-1="2 11 5 4 3 3 1 2 1 3"
    ascent="800"
    descent="-200"
    alphabetic="0" />
<missing-glyph horiz-adv-x="960" d="M90 0V780H870V0H90ZM480 345L201 66H759L480 345ZM201 714L480 435L759 714H201ZM435 390L160 665V115L435 390ZM525 390L800 115V665L525 390Z" />
<glyph unicode=" " glyph-name="space" horiz-adv-x="240" />
<glyph unicode="!" glyph-name="exclam" horiz-adv-x="200" d="M70 780H130L110 190H90L70 780ZM126 52V0H74V52H126Z" />
<glyph unicode="&quot;" glyph-name="quotedbl" horiz-adv-x="340" d="M72 780H128L109 530H91L72 780ZM212 780H268L249 530H231L212 780Z" />
<glyph unicode="#" glyph-name="numbersign" horiz-adv-x="680" d="M107 0L161 216H40V250H170L236 514H110V548H245L299 764H336L282 548H482L536 764H573L519 548H640V514H510L444 250H570V216H435L381 0H344L398 216H198L144 0H107ZM273 514L207 250H407L473 514H273Z" />
<glyph unicode="$" glyph-name="dollar" horiz-adv-x="534" d="M378 764L350 653Q427 642 500 594L490 557Q414 608 341 617L289 408Q323 404 346 400T397 386T443 362T473 323T485 267Q485 185 424 146T265 107Q229 107 213 109L186 0H149L178 115Q118 128 55
170L65 207Q129 164 187 151L243 377Q205 381 180 387T126 406T84 443T69 504Q69 581 131 619T290 657Q306 657 314 656L341 764H378ZM444 265Q444 322 404 343T280 373L222 145Q252 143 270 143Q314 143 351 153T416 191T444 265ZM109 505Q109 455 139 439T252
412L305 620Q298 621 285 621Q242 621 204 611T138 574T109 505Z" />
<glyph unicode="%" glyph-name="percent" horiz-adv-x="1056" d="M249 393Q315 393 356 434T397 566Q397 657 356 699T249 741Q184 741 143 699T101 566Q101 476 142 435T249 393ZM162 774T249 774T384 722T433 566Q433 464 385 412T249 360Q163 360 114 412T65
566Q65 669 113 721ZM802 764L296 0H254L760 764H802ZM807 371Q741 371 700 330T659 198Q659 107 700 65T807 23Q872 23 913 65T955 198Q955 288 914 329T807 371ZM894 -10T807 -10T672 42T623 198Q623 300 671 352T807 404Q893 404 942 352T991 198Q991 95 943
43Z" />
<glyph unicode="&amp;" glyph-name="ampersand" horiz-adv-x="740" d="M642 389Q642 249 581 149L703 40V-10L560 119Q459 -10 290 -10Q243 -10 202 1T125 35T68 102T47 204Q47 365 206 439Q156 485 128 527T100 622Q100 701 150 745T292 790Q389 790 433 745T477
629Q477 598 465 572T438 528T391 491T336 460T270 430L552 176Q605 270 605 390Q605 457 584 529L621 534Q642 471 642 389ZM290 25Q366 25 430 56T532 144L234 414Q87 346 87 204Q87 148 110 109T169 54T233 31T290 25ZM139 623Q139 579 165 541T243 456Q287
475 309 485T361 512T404 544T428 580T438 627Q438 689 399 722T292 755Q221 755 180 720T139 623Z" />
<glyph unicode="&apos;" glyph-name="quotesingle" horiz-adv-x="200" d="M72 780H128L109 530H91L72 780Z" />
<glyph unicode="(" glyph-name="parenleft" horiz-adv-x="240" d="M88 492T88 350T113 100T195 -130H160Q112 -48 81 80T50 350T81 619T160 830H195Q139 709 114 601Z" />
<glyph unicode=")" glyph-name="parenright" horiz-adv-x="240" d="M152 208T152 350T127 600T45 830H80Q128 748 159 620T190 350T159 81T80 -130H45Q101 -9 126 99Z" />
<glyph unicode="*" glyph-name="asterisk" horiz-adv-x="300" d="M85 525L56 546L135 640L16 670L27 704L140 658L132 780H168L160 658L273 704L284 670L165 640L244 546L215 525L150 628L85 525Z" />
<glyph unicode="+" glyph-name="plus" horiz-adv-x="490" d="M228 195V373H50V407H228V585H262V407H440V373H262V195H228Z" />
<glyph unicode="," glyph-name="comma" horiz-adv-x="200" d="M73 52H127L67 -164H41L73 52Z" />
<glyph unicode="-" glyph-name="hyphen" horiz-adv-x="360" d="M310 318H50V352H310V318Z" />
<glyph unicode="." glyph-name="period" horiz-adv-x="200" d="M130 60V0H70V60H130Z" />
<glyph unicode="/" glyph-name="slash" horiz-adv-x="300" d="M285 870L55 -90H15L245 870H285Z" />
<glyph unicode="0" glyph-name="zero" horiz-adv-x="700" d="M232 26T350 26T525 111T582 382T525 652T350 738T175 653T118 382T175 112ZM350 774Q493 774 557 678T622 382T558 87T350 -10Q207 -10 143 86T78 382T142 677T350 774Z" />
<glyph unicode="1" glyph-name="one" horiz-adv-x="700" d="M600 37V0H110V37H331V709Q257 605 95 560V595Q177 618 228 654T336 774H370V37H600Z" />
<glyph unicode="2" glyph-name="two" horiz-adv-x="700" d="M628 0H72Q72 78 92 137T153 238T240 308T354 362Q397 379 418 388T469 411T512 438T541 469T562 509T569 559Q571 607 555 642T508 698T439 728T356 738Q247 738 192 701T120 588L80 593Q117 774 356
774Q475 774 541 719T608 559Q608 529 599 503T580 459T546 421T509 393T462 368T417 348T370 330Q246 282 182 212T116 37L262 38H628V0Z" />
<glyph unicode="3" glyph-name="three" horiz-adv-x="700" d="M622 202Q622 102 551 46T335 -10Q207 -10 143 39T70 172L109 178Q118 106 170 67T335 26Q452 24 517 67T582 202Q582 374 372 374H238V410H372Q404 410 429 413T480 427T523 454T552 502T563 573Q563
658 501 699T340 738Q233 737 182 701T116 587L77 593Q93 680 154 727T340 774Q452 774 526 725T601 573Q601 497 560 449T461 394V393Q526 387 574 341T622 202Z" />
<glyph unicode="4" glyph-name="four" horiz-adv-x="700" d="M635 186H487V0H451V186H65V215L449 774H487V221H635V186ZM451 221V555L452 723L344 562L195 346L106 220L233 221H451Z" />
<glyph unicode="5" glyph-name="five" horiz-adv-x="700" d="M165 384L124 395L160 764H574V728H191L162 428Q192 458 246 477T368 496Q489 496 554 430T620 245Q620 122 545 56T349 -10Q219 -10 157 38T83 178L122 184Q133 104 182 65T349 26Q458 28 519 82T580
245Q580 457 368 460Q298 461 243 440T165 384Z" />
<glyph unicode="6" glyph-name="six" horiz-adv-x="700" d="M390 739Q267 741 194 652T120 382Q120 354 121 330L122 307Q140 370 185 410T278 465T380 479Q491 479 555 416T620 235Q620 120 548 55T360 -10Q215 -10 148 87T80 382Q80 572 161 673T391 774Q585
774 617 623L578 615Q562 679 520 708T390 739ZM380 442Q281 443 210 386T138 229Q138 207 139 197Q185 22 360 25Q453 27 516 78T579 235Q579 341 525 391T380 442Z" />
<glyph unicode="7" glyph-name="seven" horiz-adv-x="700" d="M253 0H210L512 600L580 730L417 729H80V764H622V733L253 0Z" />
<glyph unicode="8" glyph-name="eight" horiz-adv-x="700" d="M243 26T350 26T520 65T583 192Q583 374 350 374T117 192Q117 105 180 66ZM137 410T350 410T563 572Q563 657 506 697T350 738T195 698T137 572Q137 410 350 410ZM481 -10T350 -10T148 42T77 190Q77
358 237 392Q179 406 139 449T99 569Q99 674 166 724T350 774T534 724T601 569Q601 493 561 450T463 392Q623 358 623 190Q623 95 552 43Z" />
<glyph unicode="9" glyph-name="nine" horiz-adv-x="700" d="M310 25Q433 23 506 112T580 382Q580 410 579 434L578 457Q560 394 515 354T422 299T320 285Q209 285 145 348T80 529Q80 644 152 709T340 774Q485 774 552 677T620 382Q620 192 539 91T309 -10Q115
-10 83 141L122 149Q138 85 180 56T310 25ZM320 322Q419 321 490 378T562 535Q562 557 561 567Q515 742 340 739Q247 737 184 686T121 529Q121 423 175 373T320 322Z" />
<glyph unicode=":" glyph-name="colon" horiz-adv-x="200" d="M130 60V0H70V60H130ZM130 440V380H70V440H130Z" />
<glyph unicode=";" glyph-name="semicolon" horiz-adv-x="200" d="M73 52H127L67 -164H41L73 52ZM130 440V380H70V440H130Z" />
<glyph unicode="&lt;" glyph-name="less" horiz-adv-x="490" d="M249 474L84 390L249 306L440 206V169L50 374V406L440 611V574L249 474Z" />
<glyph unicode="=" glyph-name="equal" horiz-adv-x="490" d="M440 293H50V327H440V293ZM440 453H50V487H440V453Z" />
<glyph unicode="&gt;" glyph-name="greater" horiz-adv-x="490" d="M241 306L406 390L241 474L50 574V611L440 406V374L50 169V206L241 306Z" />
<glyph unicode="?" glyph-name="question" horiz-adv-x="600" d="M278 190H252Q234 238 231 275T232 332T255 371T285 396T322 414Q349 425 378 440T432 473T472 519T488 586Q488 669 434 712T294 755Q103 755 82 590L44 594Q68 790 294 790Q400 790 465 737T530
587Q530 542 510 506T461 451T401 415T345 389Q309 372 295 363T269 332T260 279T278 190ZM296 52V0H244V52H296Z" />
<glyph unicode="@" glyph-name="at" horiz-adv-x="1030" d="M708 174L711 100H720Q846 100 895 173T944 391Q944 470 920 536T845 654T712 736T517 766Q312 766 200 638T88 295T203 -48T527 -176Q671 -176 760 -133T870 -33L909 -39Q887 -105 788 -157T527 -210Q307
-210 179 -78T51 295Q51 534 177 667T517 800Q744 800 861 689T979 391Q979 227 916 147T711 66H683L671 159Q647 116 596 86T478 56Q388 56 326 120T263 298T325 475T478 540Q544 540 595 510T671 437L683 530H713L708 422V174ZM670 384Q605 505 483 505Q404 505
355 449T305 298T354 147T483 91Q605 91 670 212V384Z" />
<glyph unicode="A" glyph-name="A" horiz-adv-x="720" d="M637 0L538 265H182L83 0H39L339 790H381L681 0H637ZM360 744L275 513L195 301H524L445 513L360 744Z" />
<glyph unicode="B" glyph-name="B" horiz-adv-x="700" d="M413 0H100V780H400Q453 780 488 773T554 744T598 682T613 579Q613 505 580 460T507 404Q562 393 600 345T639 214Q639 148 622 104T572 38T502 8T413 0ZM140 36H433Q468 36 494 43T546 68T584 123T597
214Q597 382 433 382H140V36ZM428 744H140V418H420Q490 418 530 457T570 579Q570 672 534 708T428 744Z" />
<glyph unicode="C" glyph-name="C" horiz-adv-x="750" d="M70 200T70 390T151 685T400 790Q652 790 692 586L650 580Q618 757 400 754Q112 750 112 390T400 26Q618 23 650 200L692 194Q652 -10 400 -10Q233 -10 152 95Z" />
<glyph unicode="D" glyph-name="D" horiz-adv-x="780" d="M710 502T710 390T688 202T618 81T509 19T357 0H100V780H357Q446 780 508 762T618 699T687 579ZM140 36H368Q530 36 599 114T668 390T599 666T368 744H140V36Z" />
<glyph unicode="E" glyph-name="E" horiz-adv-x="715" d="M100 780H620V744H140V418H580V382H140V36H640V0H100V780Z" />
<glyph unicode="F" glyph-name="F" horiz-adv-x="650" d="M140 382V0H100V780H600V744H140V418H560V382H140Z" />
<glyph unicode="G" glyph-name="G" horiz-adv-x="789" d="M400 26Q564 23 654 96V354H454V390H694V78Q578 -12 400 -10Q233 -10 152 95T70 390T151 685T400 790Q652 790 692 586L650 580Q618 757 400 754Q112 750 112 390T400 26Z" />
<glyph unicode="H" glyph-name="H" horiz-adv-x="750" d="M610 780H650V0H610V382H140V0H100V780H140V418H610V780Z" />
<glyph unicode="I" glyph-name="I" horiz-adv-x="280" d="M160 780V0H120V780H160Z" />
<glyph unicode="J" glyph-name="J" horiz-adv-x="572" d="M446 780H487V200Q487 98 427 44T250 -10Q135 -10 85 37T28 155L68 161Q79 23 252 26Q446 29 446 199V780Z" />
<glyph unicode="K" glyph-name="K" horiz-adv-x="700" d="M140 780V303L579 780H635L307 429L663 0H610L281 401L140 250V0H100V780H140Z" />
<glyph unicode="L" glyph-name="L" horiz-adv-x="605" d="M140 780V36H580V0H100V780H140Z" />
<glyph unicode="M" glyph-name="M" horiz-adv-x="902" d="M429 0L205 543L136 711L139 460V0H100V780H148L378 223L451 42L524 223L754 780H802V0H763V460L766 711L697 543L473 0H429Z" />
<glyph unicode="N" glyph-name="N" horiz-adv-x="761" d="M612 0L256 544L136 732L139 460V0H100V780H149L505 236L625 48L622 320V780H661V0H612Z" />
<glyph unicode="O" glyph-name="O" horiz-adv-x="800" d="M571 -10T400 -10T150 97T70 390T149 682T400 790T650 683T730 390T651 98ZM479 754T400 754T264 727T175 648T127 534T112 390T127 247T174 132T264 54T400 26T536 53T625 132T673 246T688 390T673 533T626
648T536 726Z" />
<glyph unicode="P" glyph-name="P" horiz-adv-x="660" d="M140 372H412Q577 372 577 558T412 744H140V372ZM140 336V0H100V780H396Q498 780 557 732T617 558T558 385T396 336H140Z" />
<glyph unicode="Q" glyph-name="Q" horiz-adv-x="800" d="M800 -210L265 13Q70 94 70 390Q70 575 149 682T400 790T650 683T730 390T651 98T401 -10V-11L525 -58L800 -166V-210ZM479 754T400 754T264 727T175 648T127 534T112 390T127 247T174 132T264 54T400
26T536 53T625 132T673 246T688 390T673 533T626 648T536 726Z" />
<glyph unicode="R" glyph-name="R" horiz-adv-x="710" d="M614 0L405 348H140V0H100V780H421Q464 780 497 772T563 743T613 676T631 564Q631 503 617 461T575 395T519 362T451 349L663 0H614ZM140 744V384H434Q466 384 490 390T539 414T577 470T591 564T578 658T540
713T491 737T434 744H140Z" />
<glyph unicode="S" glyph-name="S" horiz-adv-x="710" d="M353 -10Q208 -10 144 38T67 177L108 183Q119 102 172 64T353 26Q397 26 437 35T515 63T575 120T598 208Q598 299 551 338T362 392Q306 398 270 405T197 425T140 458T107 509T94 583Q94 688 168 739T354
790Q492 790 557 744T633 610L592 604Q581 680 525 717T354 754Q320 754 287 748T218 725T159 672T136 583Q136 506 182 475T365 429Q441 421 489 408T572 371T623 307T639 208Q639 99 557 45T353 -10Z" />
<glyph unicode="T" glyph-name="T" horiz-adv-x="640" d="M340 744V0H300V744H35V780H605V744H340Z" />
<glyph unicode="U" glyph-name="U" horiz-adv-x="784" d="M557 -10T392 -10T156 59T85 259V780H126V252Q126 143 186 85T392 27T598 85T658 252V780H699V259Q699 128 628 59Z" />
<glyph unicode="V" glyph-name="V" horiz-adv-x="720" d="M275 267L360 36L445 267L637 780H681L381 -10H339L39 780H83L275 267Z" />
<glyph unicode="W" glyph-name="W" horiz-adv-x="950" d="M455 780H495L651 272L711 71L752 279L853 780H895L732 -10H697L533 524L475 719L417 524L253 -10H218L55 780H97L198 279L239 71L299 272L455 780Z" />
<glyph unicode="X" glyph-name="X" horiz-adv-x="710" d="M259 303L331 408L263 508L79 780H128L292 537L355 444L418 537L582 780H631L447 508L379 408L451 303L657 0H606L427 268L355 373L283 268L104 0H53L259 303Z" />
<glyph unicode="Y" glyph-name="Y" horiz-adv-x="670" d="M20 780H69L233 518L335 354L437 518L601 780H650L355 317V0H315V317L20 780Z" />
<glyph unicode="Z" glyph-name="Z" horiz-adv-x="710" d="M658 754L200 155L106 34L305 35H650V0H55V26L513 625L607 746L408 745H83V780H658V754Z" />
<glyph unicode="[" glyph-name="bracketleft" horiz-adv-x="240" d="M140 794V-94H230V-130H100V830H230V794H140Z" />
<glyph unicode="\" glyph-name="backslash" horiz-adv-x="300" d="M245 -90L15 870H55L285 -90H245Z" />
<glyph unicode="]" glyph-name="bracketright" horiz-adv-x="240" d="M100 -94V794H10V830H140V-130H10V-94H100Z" />
<glyph unicode="^" glyph-name="asciicircum" horiz-adv-x="470" d="M235 756L151 591L51 400H14L219 790H251L456 400H419L319 591L235 756Z" />
<glyph unicode="_" glyph-name="underscore" horiz-adv-x="300" d="M280 -200H20V-166H280V-200Z" />
<glyph unicode="`" glyph-name="grave" horiz-adv-x="600" d="M177 800H224L318 592H283L177 800Z" />
<glyph unicode="a" glyph-name="a" horiz-adv-x="561" d="M62 138Q62 211 111 248T252 299L444 328V370Q444 444 404 474T281 507Q150 510 129 406L89 411Q117 540 281 540Q378 540 430 497T482 366V108L487 0H457L444 100Q414 44 356 17T233 -10Q150 -10 106
30T62 138ZM103 138Q103 83 136 54T233 25Q392 25 444 158V295L247 264Q177 253 140 226T103 138Z" />
<glyph unicode="b" glyph-name="b" horiz-adv-x="590" d="M117 800V430Q144 481 198 510T309 540Q412 540 471 465T530 265T471 65T309 -10Q252 -10 198 19T117 100L104 0H74L79 108V800H117ZM117 372V158Q137 106 183 66T307 25Q391 25 439 90T488 265T440 440T307
505Q229 505 183 465T117 372Z" />
<glyph unicode="c" glyph-name="c" horiz-adv-x="562" d="M60 141T60 265T125 464T296 540Q386 540 439 504T505 403L463 397Q440 505 296 505Q210 505 156 439T102 265T156 91T296 25Q440 25 463 133L505 127Q493 63 440 27T296 -10Q190 -10 125 65Z" />
<glyph unicode="d" glyph-name="d" horiz-adv-x="590" d="M473 430V800H511V108L516 0H486L473 100Q446 49 392 20T281 -10Q178 -10 119 65T60 265T119 465T281 540Q338 540 392 511T473 430ZM473 158V372Q453 424 407 464T283 505Q199 505 151 440T102 265T150
90T283 25Q361 25 407 65T473 158Z" />
<glyph unicode="e" glyph-name="e" horiz-adv-x="579" d="M514 251H101Q105 148 159 87T296 25Q440 25 463 133L505 127Q493 63 440 27T296 -10Q190 -10 125 65T60 265T125 464T296 540Q413 540 463 469T514 266V251ZM296 505Q215 505 161 445T101 285H471Q469
393 429 449T296 505Z" />
<glyph unicode="f" glyph-name="f" horiz-adv-x="370" d="M309 774Q243 774 212 745T181 629V530H334V496H181V0H143V496H37V530H143V602Q143 641 145 666T156 722T183 769T232 798T309 810Q344 810 366 801L358 765Q337 774 309 774Z" />
<glyph unicode="g" glyph-name="g" horiz-adv-x="590" d="M511 422V-30Q511 -117 450 -163T281 -210Q181 -210 136 -172T76 -71L116 -66Q140 -178 281 -178Q367 -178 420 -143T473 -35V115Q447 65 392 38T278 10Q174 10 116 80T57 275T115 469T278 540Q336 540
391 511T473 430L486 530H516L511 422ZM473 173V372Q454 424 406 464T280 505Q195 505 147 445T99 275T147 106T280 45Q359 45 406 84T473 173Z" />
<glyph unicode="h" glyph-name="h" horiz-adv-x="566" d="M118 800V430Q143 478 196 509T313 540Q392 540 443 498T495 384V0H457V369Q457 434 415 469T303 505Q232 505 185 464T118 373V0H80V800H118Z" />
<glyph unicode="i" glyph-name="i" horiz-adv-x="236" d="M99 0V530H137V0H99ZM148 743V683H88V743H148Z" />
<glyph unicode="j" glyph-name="j" horiz-adv-x="236" d="M-29 -174Q37 -174 68 -145T99 -29V530H137V-2Q137 -41 135 -66T124 -122T97 -169T48 -198T-29 -210Q-64 -210 -86 -201L-78 -165Q-57 -174 -29 -174ZM148 743V683H88V743H148Z" />
<glyph unicode="k" glyph-name="k" horiz-adv-x="531" d="M118 0H80V800H118V232L242 357L415 530H470L241 306L508 0H457L215 282L118 186V0Z" />
<glyph unicode="l" glyph-name="l" horiz-adv-x="242" d="M102 0V800H140V0H102Z" />
<glyph unicode="m" glyph-name="m" horiz-adv-x="874" d="M104 530L117 430Q142 478 192 509T298 540Q360 540 401 510T455 425Q486 481 536 510T641 540Q712 540 757 498T803 384V0H765V369Q765 434 729 469T631 505Q567 505 523 464T460 373V0H422V369Q422 435
388 470T288 505Q224 505 180 464T117 373V0H79V422L74 530H104Z" />
<glyph unicode="n" glyph-name="n" horiz-adv-x="565" d="M104 530L117 430Q142 478 195 509T312 540Q391 540 442 498T494 384V0H456V369Q456 434 414 469T302 505Q231 505 184 464T117 373V0H79V422L74 530H104Z" />
<glyph unicode="o" glyph-name="o" horiz-adv-x="592" d="M389 505T296 505T153 442T102 265T152 88T296 25T439 88T490 265T440 442ZM408 -10T296 -10T122 62T60 265T122 467T296 540T470 468T532 265T470 63Z" />
<glyph unicode="p" glyph-name="p" horiz-adv-x="590" d="M117 100V-200H79V422L74 530H104L117 430Q144 481 198 510T309 540Q412 540 471 465T530 265T471 65T309 -10Q252 -10 198 19T117 100ZM117 372V158Q137 106 183 66T307 25Q391 25 439 90T488 265T440
440T307 505Q229 505 183 465T117 372Z" />
<glyph unicode="q" glyph-name="q" horiz-adv-x="591" d="M473 -200V100Q446 49 392 20T281 -10Q178 -10 119 65T60 265T119 465T281 540Q338 540 392 511T473 430L486 530H516L511 422V-200H473ZM473 158V372Q453 424 407 464T283 505Q199 505 151 440T102 265T150
90T283 25Q361 25 407 65T473 158Z" />
<glyph unicode="r" glyph-name="r" horiz-adv-x="375" d="M307 540Q334 540 351 536L346 496Q321 501 307 501Q225 501 172 450T117 337V0H79V422L74 530H104L118 420Q143 475 196 507T307 540Z" />
<glyph unicode="s" glyph-name="s" horiz-adv-x="534" d="M264 505Q204 505 157 477T109 388Q109 369 112 356T127 333T148 317T182 307T222 300T276 293Q314 289 336 286T390 272T440 248T471 209T485 150Q485 69 423 30T261 -10Q171 -10 118 26T52 127L94 133Q117
25 260 25Q342 25 392 55T443 149Q443 171 438 187T418 215T390 233T351 246T308 253T256 259Q223 262 203 265T154 277T109 298T81 333T69 387Q69 463 125 501T265 540Q355 540 408 504T474 403L432 397Q409 505 264 505Z" />
<glyph unicode="t" glyph-name="t" horiz-adv-x="400" d="M304 26Q332 26 353 35L361 -1Q339 -10 304 -10Q259 -10 227 2T178 31T152 78T140 133T138 198V496H32V530H138V670L176 683V530H349V496H176V171Q176 85 207 56T304 26Z" />
<glyph unicode="u" glyph-name="u" horiz-adv-x="565" d="M461 0L448 100Q423 52 370 21T253 -10Q174 -10 123 32T71 146V530H109V161Q109 96 151 61T263 25Q334 25 381 66T448 157V530H486V108L491 0H461Z" />
<glyph unicode="v" glyph-name="v" horiz-adv-x="520" d="M488 530L281 -10H239L32 530H77L190 225L260 32L330 225L444 530H488Z" />
<glyph unicode="w" glyph-name="w" horiz-adv-x="776" d="M249 199L365 530H411L527 199L579 43L612 202V201L683 530H724L603 -10H560L437 342L388 490L339 342L216 -10H173L52 530H93L164 201V202L197 43L249 199Z" />
<glyph unicode="x" glyph-name="x" horiz-adv-x="518" d="M338 137L259 246L180 137L82 0H33L188 212L235 275L187 339L46 530H94L179 412L259 299L339 412L424 530H472L331 339L283 275L330 212L485 0H436L338 137Z" />
<glyph unicode="y" glyph-name="y" horiz-adv-x="512" d="M484 530L287 47L188 -200H145L236 20L28 530H73L186 246L256 63L326 246L440 530H484Z" />
<glyph unicode="z" glyph-name="z" horiz-adv-x="532" d="M55 0V30L318 369L418 497L253 496H74V530H465V500L202 161L102 33L267 34H476V0H55Z" />
<glyph unicode="{" glyph-name="braceleft" horiz-adv-x="280" d="M90 350Q141 326 141 233V6Q141 -51 165 -72T233 -94H270V-130H243Q198 -130 168 -119T125 -85T106 -40T101 12V234Q101 293 84 312T27 332H8V368H27Q67 368 84 387T101 466V688Q101 718 106 740T124
784T168 818T243 830H270V794H233Q190 794 166 773T141 694V467Q141 374 90 350Z" />
<glyph unicode="|" glyph-name="bar" horiz-adv-x="250" d="M145 830V-130H105V830H145Z" />
<glyph unicode="}" glyph-name="braceright" horiz-adv-x="280" d="M190 350Q139 374 139 467V694Q139 751 115 772T47 794H10V830H37Q82 830 112 819T155 785T174 740T179 688V466Q179 407 196 388T253 368H272V332H253Q213 332 196 313T179 234V12Q179 -18 174
-40T156 -84T112 -118T37 -130H10V-94H47Q90 -94 114 -73T139 6V233Q139 326 190 350Z" />
<glyph unicode="~" glyph-name="asciitilde" horiz-adv-x="470" d="M425 342L404 316L396 324Q388 333 370 341T330 350Q294 350 239 317T140 283Q77 283 45 328L66 354L74 346Q82 337 100 329T140 320Q176 320 231 353T330 387Q393 387 425 342Z" />
</font>
</defs>
</svg>
