<?xml version="1.0" standalone="no"?> <!DOCTYPE svg PUBLIC "-//W3C//DTD SVG 1.0//EN" "http://www.w3.org/TR/2001/REC-SVG-20010904/DTD/svg10.dtd" > <svg xmlns="http://www.w3.org/2000/svg" width="100%" height="100%">
<defs >
<font id="polaris_v2_bold" horiz-adv-x="493" ><font-face
    font-family="Galaxie Polaris Bold"
    units-per-em="1000"
    panose-1="2 11 5 4 3 3 1 2 1 3"
    ascent="800"
    descent="-200"
    alphabetic="0" />
<missing-glyph horiz-adv-x="960" d="M90 0V780H870V0H90ZM480 345L201 66H759L480 345ZM201 714L480 435L759 714H201ZM435 390L160 665V115L435 390ZM525 390L800 115V665L525 390Z" />
<glyph unicode=" " glyph-name="space" horiz-adv-x="220" />
<glyph unicode="!" glyph-name="exclam" horiz-adv-x="284" d="M62 780H222L193 229H91L62 780ZM217 150V0H67V150H217Z" />
<glyph unicode="&quot;" glyph-name="quotedbl" horiz-adv-x="426" d="M37 780H194L170 530H61L37 780ZM232 780H389L365 530H256L232 780Z" />
<glyph unicode="#" glyph-name="numbersign" horiz-adv-x="709" d="M31 302H134L175 462H102V590H208L253 764H391L346 590H471L516 764H654L609 590H679V462H576L535 302H608V174H502L457 0H319L364 174H239L194 0H56L101 174H31V302ZM313 462L272 302H397L438 462H313Z" />
<glyph unicode="$" glyph-name="dollar" horiz-adv-x="557" d="M275 228Q377 228 377 280Q377 290 374 297T364 308T347 316T324 322T293 326T254 331Q221 335 199 339T146 353T98 379T66 422T53 486Q53 574 121 616T283 659L308 764H429L402 650Q463 639 516
605L485 479Q383 536 278 534Q245 533 221 522T197 487Q197 472 210 464T242 452T305 443Q334 440 347 438T388 431T429 419T462 400T490 373T507 334T515 282Q515 219 480 177T393 118T280 101H271L246 0H126L153 113Q83 129 38 158L73 285Q177 228 275 228Z"
/>
<glyph unicode="%" glyph-name="percent" horiz-adv-x="1147" d="M363 348T264 348T110 402T55 563T110 724T264 778T418 724T473 563T418 402ZM164 450T264 450T364 563T264 676T164 563ZM905 764L384 0H243L763 764H905ZM784 416T883 416T1037 362T1092 201T1037
40T883 -14T729 40T674 201T729 362ZM983 314T883 314T783 201T883 88T983 201Z" />
<glyph unicode="&amp;" glyph-name="ampersand" horiz-adv-x="733" d="M687 158V-13L562 89Q471 -14 309 -14Q256 -14 210 -1T124 38T63 112T40 223Q40 295 73 349T159 435Q85 505 85 599Q85 692 141 742T304 793Q407 793 462 739T518 603Q518 509 426 441Q400
422 380 412Q434 363 516 299Q527 334 527 381Q527 429 517 474L654 485Q664 447 666 391Q666 284 631 206L687 158ZM309 111Q401 111 456 175L251 346Q214 321 196 293T178 223Q178 187 192 163T230 128T271 115T309 111ZM382 600Q382 665 304 665Q222 665 222
600Q222 579 232 559T252 528T281 499Q294 505 307 512Q382 551 382 600Z" />
<glyph unicode="&apos;" glyph-name="quotesingle" horiz-adv-x="231" d="M37 780H194L170 530H61L37 780Z" />
<glyph unicode="(" glyph-name="parenleft" horiz-adv-x="292" d="M178 604T178 350T282 -130H147Q99 -48 68 80T37 350T68 619T147 830H282Q178 604 178 350Z" />
<glyph unicode=")" glyph-name="parenright" horiz-adv-x="292" d="M114 96T114 350T10 830H145Q193 748 224 620T255 350T224 81T145 -130H10Q114 96 114 350Z" />
<glyph unicode="*" glyph-name="asterisk" horiz-adv-x="326" d="M210 780L202 693L282 727L311 638L226 618L283 552L207 497L163 572L119 497L43 552L100 618L15 638L44 727L124 693L116 780H210Z" />
<glyph unicode="+" glyph-name="plus" horiz-adv-x="490" d="M178 180V315H43V449H178V584H312V449H447V315H312V180H178Z" />
<glyph unicode="," glyph-name="comma" horiz-adv-x="254" d="M52 149H210L120 -127H19L52 149Z" />
<glyph unicode="-" glyph-name="hyphen" horiz-adv-x="370" d="M325 272H45V400H325V272Z" />
<glyph unicode="." glyph-name="period" horiz-adv-x="254" d="M202 150V0H52V150H202Z" />
<glyph unicode="/" glyph-name="slash" horiz-adv-x="391" d="M380 870L151 -90H11L240 870H380Z" />
<glyph unicode="0" glyph-name="zero" horiz-adv-x="700" d="M265 114T350 114T471 176T508 382T472 588T350 650T229 588T192 382T228 176ZM350 778Q507 778 577 681T648 382Q648 180 578 83T350 -14Q193 -14 123 83T52 382Q52 584 122 681T350 778Z" />
<glyph unicode="1" glyph-name="one" horiz-adv-x="700" d="M619 0H96V128H291V578Q216 516 83 485V621Q168 649 220 685T318 778H428V128H619V0Z" />
<glyph unicode="2" glyph-name="two" horiz-adv-x="700" d="M360 778Q480 778 560 717T640 543Q640 515 635 491T620 448T597 412T568 382T532 356T493 335T450 315T406 295Q303 252 255 217T199 128H656V0H50V10Q50 85 65 143T102 240T165 311T242 361T337 403Q366
414 395 428T449 456T488 493T503 543Q503 601 461 624T360 648Q285 648 246 620T201 525L60 540Q81 778 360 778Z" />
<glyph unicode="3" glyph-name="three" horiz-adv-x="700" d="M653 225Q653 115 575 51T341 -14Q63 -14 42 224L183 239Q190 171 225 144T341 115Q429 114 471 140T514 225Q514 254 506 274T485 304T451 320T412 327T364 328H251V456H364Q397 456 415 458T451
469T478 498T486 551Q486 652 348 648Q270 648 236 622T195 528L55 543Q64 658 134 718T348 778Q471 778 548 723T625 551Q625 493 600 454T535 398Q581 384 617 338T653 225Z" />
<glyph unicode="4" glyph-name="four" horiz-adv-x="700" d="M652 168H517V0H381V168H45V261L400 778H517V297H652V168ZM381 297V547L214 297H381Z" />
<glyph unicode="5" glyph-name="five" horiz-adv-x="700" d="M204 333L87 360L127 764H601V634H249L235 491Q282 525 365 525Q499 525 571 457T643 254Q643 123 561 55T349 -14Q206 -14 136 45T56 221L197 235Q205 167 240 141T349 115Q415 116 459 149T505 254Q506
400 361 402Q249 404 204 333Z" />
<glyph unicode="6" glyph-name="six" horiz-adv-x="700" d="M640 580L500 562Q493 609 462 629T372 650Q327 650 293 634T240 595T211 540T196 484T191 436Q216 476 268 496T376 517Q505 517 574 449T643 250Q643 123 565 55T359 -14Q200 -14 126 84T52 384Q52
577 137 677T383 777Q499 777 565 723T640 580ZM364 390Q289 392 243 346T205 223Q220 165 256 138T356 111Q421 112 461 146T502 250Q502 321 466 355T364 390Z" />
<glyph unicode="7" glyph-name="seven" horiz-adv-x="700" d="M319 0H170L446 563L481 635L345 634H55V764H646V675L319 0Z" />
<glyph unicode="8" glyph-name="eight" horiz-adv-x="700" d="M285 451T350 451T452 472T490 552Q490 647 350 647T210 552Q210 493 247 472ZM189 116T350 116T511 219Q511 333 350 333T189 219Q189 116 350 116ZM500 -14T350 -14T126 43T51 210Q51 283 82 330T160
396Q121 416 96 459T71 561Q71 638 111 688T211 758T350 778T489 759T589 689T629 561Q629 503 604 460T540 396Q587 377 618 330T649 210Q649 101 575 44Z" />
<glyph unicode="9" glyph-name="nine" horiz-adv-x="700" d="M58 184L198 202Q205 155 236 135T326 114Q371 114 405 130T458 169T487 224T502 280T507 328Q482 288 430 268T322 247Q193 247 124 315T55 514Q55 641 133 709T339 778Q498 778 572 680T646 380Q646
187 561 87T315 -13Q199 -13 133 41T58 184ZM334 374Q409 372 455 418T493 541Q478 599 442 626T342 653Q277 652 237 618T196 514Q196 443 232 409T334 374Z" />
<glyph unicode=":" glyph-name="colon" horiz-adv-x="254" d="M202 150V0H52V150H202ZM202 482V332H52V482H202Z" />
<glyph unicode=";" glyph-name="semicolon" horiz-adv-x="254" d="M52 149H210L120 -127H19L52 149ZM202 482V332H52V482H202Z" />
<glyph unicode="&lt;" glyph-name="less" horiz-adv-x="490" d="M291 422L200 382L291 342L447 272V126L43 318V446L447 638V492L291 422Z" />
<glyph unicode="=" glyph-name="equal" horiz-adv-x="490" d="M447 220H43V354H447V220ZM447 410H43V544H447V410Z" />
<glyph unicode="&gt;" glyph-name="greater" horiz-adv-x="490" d="M290 382L199 422L43 492V638L447 446V318L43 126V272L199 342L290 382Z" />
<glyph unicode="?" glyph-name="question" horiz-adv-x="595" d="M313 229H205Q181 283 180 321Q180 358 191 384T221 425T263 452T309 474Q333 485 343 491T372 510T399 538T407 573Q407 663 294 663Q231 663 200 638T162 551L22 565Q43 793 294 793Q413 793
481 737T550 574Q550 523 532 485T487 427T429 392T371 367Q301 337 304 288Q304 267 313 229ZM343 150V0H193V150H343Z" />
<glyph unicode="@" glyph-name="at" horiz-adv-x="1065" d="M639 480L650 529H775L766 395V184Q835 185 862 236T889 388Q889 524 804 599T540 674Q368 674 273 578T178 293Q178 103 274 8T550 -88Q664 -88 728 -60T803 5L946 -12Q930 -100 830 -157T536 -214Q302
-214 173 -79T44 293Q44 528 177 664T540 800Q772 800 896 687T1020 388Q1020 222 952 141T733 59H650L639 108Q625 83 589 64T504 44Q406 44 342 107T277 294T341 481T504 544Q552 544 588 525T639 480ZM630 258V330Q623 365 594 390T519 415Q412 415 412 294T519
173Q564 173 593 198T630 258Z" />
<glyph unicode="A" glyph-name="A" horiz-adv-x="742" d="M583 0L516 186H226L159 0H8L309 794H433L734 0H583ZM472 313L371 613L270 313H472Z" />
<glyph unicode="B" glyph-name="B" horiz-adv-x="716" d="M415 0H76V780H410Q452 780 489 771T562 740T620 673T642 564Q642 508 622 468T571 409Q614 391 640 344T667 228T647 113T590 43T511 10T415 0ZM216 130H408Q430 130 446 132T482 144T513 175T524 230T515
285T487 317T452 330T412 334H216V130ZM400 650H216V464H400Q449 464 473 484T498 559Q498 612 474 631T400 650Z" />
<glyph unicode="C" glyph-name="C" horiz-adv-x="743" d="M198 450T198 390T205 285T233 200T292 138T389 116Q467 116 505 147T554 248L695 233Q669 -14 389 -14Q216 -14 136 92T55 390T135 687T389 794Q669 794 695 547L554 532Q543 602 505 633T389 664Q331
664 292 643T233 581T206 495Z" />
<glyph unicode="D" glyph-name="D" horiz-adv-x="771" d="M352 0H76V780H352Q533 780 623 685T714 390T624 96T352 0ZM216 130H352Q468 130 519 197T571 390T520 583T352 650H216V130Z" />
<glyph unicode="E" glyph-name="E" horiz-adv-x="708" d="M76 780H629V650H216V464H582V334H216V130H648V0H76V780Z" />
<glyph unicode="F" glyph-name="F" horiz-adv-x="644" d="M216 334V0H76V780H609V650H216V464H561V334H216Z" />
<glyph unicode="G" glyph-name="G" horiz-adv-x="790" d="M198 664T198 390T399 116Q507 116 572 152V309H413V434H711V68Q634 20 563 3T399 -14Q225 -14 140 93T55 390T140 687T399 794Q545 794 624 729T715 547L574 532Q564 601 522 632T399 664Q198 664 198 390Z" />
<glyph unicode="H" glyph-name="H" horiz-adv-x="760" d="M544 780H684V0H544V334H216V0H76V780H216V464H544V780Z" />
<glyph unicode="I" glyph-name="I" horiz-adv-x="320" d="M230 780V0H90V780H230Z" />
<glyph unicode="J" glyph-name="J" horiz-adv-x="595" d="M384 780H524V213Q524 108 457 47T266 -14Q33 -14 17 196L156 214Q162 166 186 140T265 115Q384 117 384 211V780Z" />
<glyph unicode="K" glyph-name="K" horiz-adv-x="742" d="M216 780V437L310 545L524 780H714L378 425L729 0H543L284 325L216 254V0H76V780H216Z" />
<glyph unicode="L" glyph-name="L" horiz-adv-x="606" d="M216 780V130H586V0H76V780H216Z" />
<glyph unicode="M" glyph-name="M" horiz-adv-x="906" d="M507 0H399L255 390L212 513L213 298V0H76V780H239L400 355L453 208L506 355L667 780H830V0H693V298L694 513L651 390L507 0Z" />
<glyph unicode="N" glyph-name="N" horiz-adv-x="765" d="M560 0L291 402L214 522L216 335V0H76V780H205L474 378L551 258L549 445V780H689V0H560Z" />
<glyph unicode="O" glyph-name="O" horiz-adv-x="810" d="M584 -14T405 -14T141 92T55 390T140 688T405 794T669 688T755 390T670 92ZM465 664T405 664T303 643T238 582T207 496T197 390T206 284T238 199T302 138T405 116T507 137T571 198T603 284T612 390T603
496T572 581T507 642Z" />
<glyph unicode="P" glyph-name="P" horiz-adv-x="669" d="M216 293V0H76V780H372Q425 780 469 769T553 732T616 657T639 537T617 417T555 341T471 304T373 293H216ZM495 424T495 537T383 650H216V424H383Q495 424 495 537Z" />
<glyph unicode="Q" glyph-name="Q" horiz-adv-x="810" d="M465 664T405 664T303 643T238 582T207 496T197 390T206 284T238 199T302 138T405 116T507 137T571 198T603 284T612 390T603 496T572 581T507 642ZM566 14L610 0L798 -64V-211L260 8Q55 83 55 390Q55
582 140 688T405 794T669 688T755 390Q755 97 566 15V14Z" />
<glyph unicode="R" glyph-name="R" horiz-adv-x="726" d="M216 306V0H76V780H398Q663 780 663 543Q663 362 509 321L698 0H534L359 306H216ZM216 437H407Q429 437 446 440T481 453T510 486T520 543Q520 578 510 601T482 633T446 646T407 650H216V437Z" />
<glyph unicode="S" glyph-name="S" horiz-adv-x="723" d="M365 -14Q211 -14 137 45T50 225L192 240Q200 173 242 145T365 116Q433 117 482 145T531 232Q531 284 494 308T361 341Q313 345 276 352T200 374T136 412T94 472T77 557Q77 617 99 663T160 737T250 779T358
794Q646 794 669 556L527 541Q519 609 479 636T358 664Q326 663 297 656T243 623T217 556Q218 514 249 495T368 467Q447 460 497 449T589 412T650 343T670 232Q670 169 645 121T576 44T479 1T365 -14Z" />
<glyph unicode="T" glyph-name="T" horiz-adv-x="640" d="M390 650V0H250V650H23V780H617V650H390Z" />
<glyph unicode="U" glyph-name="U" horiz-adv-x="772" d="M704 -14T386 -14T68 285V780H208V285Q208 204 245 160T386 116T526 160T564 285V780H704V285Q704 -14 386 -14Z" />
<glyph unicode="V" glyph-name="V" horiz-adv-x="742" d="M309 351L371 167L433 351L579 780H734L440 -14H302L8 780H163L309 351Z" />
<glyph unicode="W" glyph-name="W" horiz-adv-x="960" d="M525 403L480 551L435 403L305 -14H188L25 780H170L236 420L262 264L308 420L421 780H539L652 420L698 264L724 420L790 780H935L772 -14H655L525 403Z" />
<glyph unicode="X" glyph-name="X" horiz-adv-x="762" d="M449 180L381 284L313 180L193 0H25L246 323L300 400L243 482L40 780H206L316 614L381 515L446 614L556 780H722L519 482L462 400L516 323L737 0H569L449 180Z" />
<glyph unicode="Y" glyph-name="Y" horiz-adv-x="720" d="M430 323V0H290V323L-12 780H149L297 548L360 447L423 548L571 780H732L430 323Z" />
<glyph unicode="Z" glyph-name="Z" horiz-adv-x="694" d="M39 0V100L407 581L463 651L309 650H58V780H654V680L286 199L230 129L384 130H654V0H39Z" />
<glyph unicode="[" glyph-name="bracketleft" horiz-adv-x="292" d="M221 700V0H276V-130H81V830H276V700H221Z" />
<glyph unicode="\" glyph-name="backslash" horiz-adv-x="391" d="M240 -90L11 870H151L380 -90H240Z" />
<glyph unicode="]" glyph-name="bracketright" horiz-adv-x="292" d="M71 0V700H16V830H211V-130H16V0H71Z" />
<glyph unicode="^" glyph-name="asciicircum" horiz-adv-x="548" d="M314 546L274 637L234 546L164 390H18L210 794H338L530 390H384L314 546Z" />
<glyph unicode="_" glyph-name="underscore" horiz-adv-x="325" d="M303 -200H22V-71H303V-200Z" />
<glyph unicode="`" glyph-name="grave" horiz-adv-x="600" d="M127 800H278L372 592H238L127 800Z" />
<glyph unicode="a" glyph-name="a" horiz-adv-x="600" d="M44 151Q44 234 92 270T240 320L402 343V354Q402 425 300 425Q249 426 228 409T200 357L61 375Q67 413 80 441T120 494T190 531T296 544Q412 544 475 494T538 343V143L547 0H422L411 56Q349 -14 239 -14Q138
-14 91 30T44 151ZM188 157Q188 104 256 102Q310 100 350 129T402 198V241L261 218Q221 211 205 198T188 157Z" />
<glyph unicode="b" glyph-name="b" horiz-adv-x="633" d="M200 800V483Q223 509 264 526T349 544Q467 544 529 472T592 265T530 58T349 -14Q303 -14 258 6T191 58L180 0H55L64 143V800H200ZM450 191T450 265T416 377T327 416Q277 416 243 390T200 327V203Q208
167 242 141T327 114Q382 114 416 152Z" />
<glyph unicode="c" glyph-name="c" horiz-adv-x="576" d="M179 414T179 265T298 113Q350 112 373 130T404 187L543 169Q532 84 477 35T299 -14Q177 -14 109 58T41 265T109 471T299 544Q422 544 477 495T543 361L404 343Q397 381 374 399T298 417Q179 414 179 265Z" />
<glyph unicode="d" glyph-name="d" horiz-adv-x="633" d="M433 483V800H569V143L578 0H453L442 58Q421 27 376 7T284 -14Q166 -14 104 58T41 265T103 472T284 544Q328 544 369 527T433 483ZM183 339T183 265T217 153T306 114Q356 114 390 140T433 203V327Q425
363 391 389T306 416Q251 416 217 378Z" />
<glyph unicode="e" glyph-name="e" horiz-adv-x="597" d="M554 213H185Q188 159 220 132T306 105Q398 104 412 168L551 151Q525 -14 309 -14Q181 -14 111 58T41 265Q41 399 110 471T302 544T489 472T554 265V213ZM303 425Q196 425 186 320H408Q404 425 303 425Z" />
<glyph unicode="f" glyph-name="f" horiz-adv-x="437" d="M29 407V530H133V602Q133 647 141 681T171 748T234 797T339 814Q393 814 431 798L418 669Q380 689 341 687T286 667T269 595V530H411V407H269V0H133V407H29Z" />
<glyph unicode="g" glyph-name="g" horiz-adv-x="633" d="M433 -10V75Q410 49 369 32T284 14Q41 14 41 279T284 544Q333 544 377 524T442 472L453 530H578L569 387V-8Q569 -110 499 -162T309 -214Q70 -214 56 -47L197 -27Q205 -95 306 -92Q433 -90 433 -10ZM183
416T183 279T306 142Q356 142 390 168T433 231V327Q425 363 391 389T306 416Q183 416 183 279Z" />
<glyph unicode="h" glyph-name="h" horiz-adv-x="611" d="M59 800H195V478Q223 507 266 525T352 544Q447 544 502 497T557 357V0H421V337Q421 416 328 416Q280 416 243 389T195 328V0H59V800Z" />
<glyph unicode="i" glyph-name="i" horiz-adv-x="278" d="M214 767V617H64V767H214ZM71 0V530H207V0H71Z" />
<glyph unicode="j" glyph-name="j" horiz-adv-x="278" d="M214 767V617H64V767H214ZM71 5V530H207V-2Q207 -47 199 -81T169 -148T106 -197T1 -214Q-53 -214 -91 -198L-78 -69Q-40 -89 -1 -87T54 -67T71 5Z" />
<glyph unicode="k" glyph-name="k" horiz-adv-x="597" d="M195 0H60V800H195V337L379 530H574L333 300L600 0H416L241 212L195 167V0Z" />
<glyph unicode="l" glyph-name="l" horiz-adv-x="278" d="M71 0V800H207V0H71Z" />
<glyph unicode="m" glyph-name="m" horiz-adv-x="894" d="M180 530L191 469Q216 502 255 523T338 544Q441 544 486 468Q544 544 652 544Q743 544 792 493T841 349V0H705V340Q705 378 684 397T624 416Q584 415 558 390T520 328V0H384V340Q384 378 363 397T303 416Q263
415 237 390T199 328V0H64V387L55 530H180Z" />
<glyph unicode="n" glyph-name="n" horiz-adv-x="614" d="M180 530L191 469Q218 502 264 523T356 544Q451 544 506 497T561 357V0H425V337Q425 416 332 416Q284 416 247 389T199 328V0H64V387L55 530H180Z" />
<glyph unicode="o" glyph-name="o" horiz-adv-x="602" d="M421 417T301 417T181 265T301 113T421 265ZM423 -14T301 -14T110 57T41 265T110 472T301 544T492 473T561 265T492 58Z" />
<glyph unicode="p" glyph-name="p" horiz-adv-x="633" d="M200 47V-200H64V387L55 530H180L191 472Q212 503 257 523T349 544Q467 544 529 472T592 265T530 58T349 -14Q305 -14 264 3T200 47ZM450 191T450 265T416 377T327 416Q277 416 243 390T200 327V203Q208
167 242 141T327 114Q382 114 416 152Z" />
<glyph unicode="q" glyph-name="q" horiz-adv-x="633" d="M433 -200V47Q410 21 369 4T284 -14Q166 -14 104 58T41 265T103 472T284 544Q330 544 375 524T442 472L453 530H578L569 387V-200H433ZM183 339T183 265T217 153T306 114Q356 114 390 140T433 203V327Q425
363 391 389T306 416Q251 416 217 378Z" />
<glyph unicode="r" glyph-name="r" horiz-adv-x="442" d="M337 544Q388 544 425 530L412 396Q388 412 340 411Q291 410 251 383T199 319V0H64V387L55 530H180L191 473Q243 544 337 544Z" />
<glyph unicode="s" glyph-name="s" horiz-adv-x="555" d="M226 102T275 103T353 118T382 164Q382 180 374 189T351 202T315 208T266 213Q231 216 213 218T165 227T118 243T83 269T57 311T49 369Q49 417 70 452T125 507T198 535T278 544Q390 544 446 504T514 377L376
359Q366 428 278 427Q194 425 194 372Q194 359 202 351T223 339T257 333T301 328Q324 325 347 324T392 317T433 306T469 288T498 261T517 221T524 165Q524 101 486 59T394 2T275 -14Q52 -14 33 159L172 177Q178 139 202 121Z" />
<glyph unicode="t" glyph-name="t" horiz-adv-x="450" d="M24 407V530H118V669L254 695V530H406V407H254V205Q254 152 270 134T326 113T403 131L416 2Q378 -14 324 -14Q262 -14 220 3T156 52T127 118T118 198V407H24Z" />
<glyph unicode="u" glyph-name="u" horiz-adv-x="614" d="M434 0L423 61Q396 28 350 7T258 -14Q163 -14 108 33T53 173V530H189V193Q189 114 282 114Q330 114 367 141T415 202V530H550V143L559 0H434Z" />
<glyph unicode="v" glyph-name="v" horiz-adv-x="580" d="M350 -14H230L9 530H157L246 286L290 162L334 286L423 530H571L350 -14Z" />
<glyph unicode="w" glyph-name="w" horiz-adv-x="810" d="M337 530H473L546 313L582 202L605 313L648 530H798L664 -14H526L441 239L405 350L369 239L284 -14H146L12 530H162L205 313L228 202L264 313L337 530Z" />
<glyph unicode="x" glyph-name="x" horiz-adv-x="598" d="M354 90L298 170L242 90L177 0H9L161 203L215 274L169 335L22 530H189L257 431L298 371L339 431L407 530H574L427 335L381 274L435 203L587 0H419L354 90Z" />
<glyph unicode="y" glyph-name="y" horiz-adv-x="590" d="M158 530L249 300L295 179L341 300L432 530H581L370 36L273 -200H117L220 36L9 530H158Z" />
<glyph unicode="z" glyph-name="z" horiz-adv-x="558" d="M514 433L292 193L223 121L315 122H525V0H32V97L254 337L323 409L231 408H50V530H514V433Z" />
<glyph unicode="{" glyph-name="braceleft" horiz-adv-x="322" d="M9 414H30Q60 414 75 428T90 480V649Q90 835 279 835H312V705H290Q226 705 226 640V479Q226 393 169 350Q226 307 226 222V60Q226 -5 290 -5H312V-135H279Q90 -135 90 51V221Q90 258 75 272T30
287H9V414Z" />
<glyph unicode="|" glyph-name="bar" horiz-adv-x="304" d="M222 830V-130H82V830H222Z" />
<glyph unicode="}" glyph-name="braceright" horiz-adv-x="322" d="M314 286H292Q262 286 247 272T232 220V51Q232 -135 44 -135H11V-5H32Q63 -5 79 9T96 60V221Q96 308 153 350Q96 392 96 478V640Q96 676 80 690T32 705H11V835H44Q232 835 232 649V479Q232 443
247 428T292 413H314V286Z" />
<glyph unicode="~" glyph-name="asciitilde" horiz-adv-x="499" d="M470 354L420 274L412 284Q404 294 386 303T346 313Q327 313 308 301T273 273T229 246T165 233Q132 233 104 246T60 274T36 302L28 315L78 395L86 386Q94 376 112 366T152 356Q171 356 190 368T225
396T269 423T333 436Q366 436 394 423T438 395T462 367L470 354Z" />
</font>
</defs>
</svg>
