<?xml version="1.0" encoding="utf-8"?>
<!-- Generator: Adobe Illustrator 15.1.0, SVG Export Plug-In  -->
<!DOCTYPE svg PUBLIC "-//W3C//DTD SVG 1.1//EN" "http://www.w3.org/Graphics/SVG/1.1/DTD/svg11.dtd" [
	<!ENTITY ns_flows "http://ns.adobe.com/Flows/1.0/">
]>
<svg version="1.1"
	 xmlns="http://www.w3.org/2000/svg" xmlns:xlink="http://www.w3.org/1999/xlink" xmlns:a="http://ns.adobe.com/AdobeSVGViewerExtensions/3.0/"
	 x="0px" y="0px" width="198px" height="100px" viewBox="0 -0.5 198 100"
	 overflow="visible" enable-background="new 0 -0.5 198 100" xml:space="preserve">
<defs>
</defs>
<path fill="#231F20" d="M189.34,32L153,52.98V37c0-5.5-4.5-10-10-10h-4.271L114.364,2.636C112.676,0.948,110.387,0,108,0H18
	c-4.971,0-9,4.029-9,9s4.029,9,9,9h86.272l9,9H10C4.5,27,0,31.5,0,37v52c0,5.5,4.5,10,10,10h133c5.5,0,10-4.5,10-10V73.02L189.34,94
	c4.763,2.75,8.66,0.5,8.66-5V37C198,31.5,194.103,29.25,189.34,32z M45,84c-11.579,0-21-9.421-21-21s9.421-21,21-21s21,9.421,21,21
	S56.579,84,45,84z M99,84c-11.579,0-21-9.421-21-21s9.421-21,21-21s21,9.421,21,21S110.579,84,99,84z"/>
<path fill="#231F20" d="M101,48.149V58.5c0,1.104-0.896,2-2,2s-2-0.896-2-2V48.149C89.673,49.132,84,55.408,84,63
	c0,8.271,6.729,15,15,15s15-6.729,15-15C114,55.408,108.327,49.132,101,48.149z"/>
<path fill="#231F20" d="M47,48.149V58.5c0,1.104-0.896,2-2,2s-2-0.896-2-2V48.149C35.673,49.132,30,55.408,30,63
	c0,8.271,6.729,15,15,15s15-6.729,15-15C60,55.408,54.327,49.132,47,48.149z"/>
</svg>
