<?xml version="1.0" encoding="utf-8"?>
<!-- Generator: Adobe Illustrator 15.1.0, SVG Export Plug-In  -->
<!DOCTYPE svg PUBLIC "-//W3C//DTD SVG 1.1//EN" "http://www.w3.org/Graphics/SVG/1.1/DTD/svg11.dtd" [
	<!ENTITY ns_flows "http://ns.adobe.com/Flows/1.0/">
]>
<svg version="1.1"
	 xmlns="http://www.w3.org/2000/svg" xmlns:xlink="http://www.w3.org/1999/xlink" xmlns:a="http://ns.adobe.com/AdobeSVGViewerExtensions/3.0/"
	 x="0px" y="0px" width="179px" height="199px" viewBox="-0.324 -0.361 179 199"
	 overflow="visible" enable-background="new -0.324 -0.361 179 199" xml:space="preserve">
<defs>
</defs>
<path d="M136.743,198.277h-95.72v-6.838c0-4.196,0.321-8.255,0.633-12.178c0.636-8.031,1.238-15.619-1.691-18.792
	c-2.455-2.657-8.217-3.216-12.617-3.216C7.283,157.254,0,140.898,0,129.905V88.883C0,39.873,39.873,0,88.883,0
	s88.883,39.873,88.883,88.883v41.022c0,10.993-7.283,27.349-27.35,27.349c-4.4,0-10.159,0.559-12.615,3.216
	c-2.93,3.173-2.329,10.761-1.691,18.792c0.312,3.923,0.633,7.981,0.633,12.178V198.277z M54.966,184.603H122.8
	c-0.096-1.429-0.21-2.853-0.321-4.26c-0.841-10.611-1.711-21.587,5.278-29.15c4.729-5.121,12.143-7.612,22.659-7.612
	c12.488,0,13.626-10.506,13.675-13.727v-40.97c0-41.47-33.737-75.208-75.208-75.208S13.674,47.414,13.674,88.883v41.022
	c0.05,3.169,1.187,13.675,13.674,13.675c10.517,0,17.93,2.491,22.66,7.612c6.99,7.563,6.12,18.539,5.278,29.15
	C55.176,181.75,55.062,183.174,54.966,184.603z"/>
<path d="M68.372,198.277c-3.776,0-6.837-3.06-6.837-6.838v-20.511c0-3.776,3.061-6.837,6.837-6.837s6.837,3.061,6.837,6.837v20.511
	C75.209,195.218,72.147,198.277,68.372,198.277z"/>
<path d="M109.394,198.277c-3.775,0-6.836-3.06-6.836-6.838v-20.511c0-3.776,3.061-6.837,6.836-6.837
	c3.777,0,6.838,3.061,6.838,6.837v20.511C116.232,195.218,113.171,198.277,109.394,198.277z"/>
<path d="M88.883,198.277c-3.775,0-6.837-3.06-6.837-6.838v-20.511c0-3.776,3.062-6.837,6.837-6.837c3.776,0,6.836,3.061,6.836,6.837
	v20.511C95.719,195.218,92.66,198.277,88.883,198.277z"/>
<path d="M100.018,140.271c0-4.921-5.58-25.624-10.609-28.326v-0.292c-0.174,0-0.347,0.028-0.525,0.076
	c-0.179-0.048-0.352-0.076-0.525-0.076v0.292c-5.03,2.702-10.61,23.405-10.61,28.326c0,4.926,5.58,7.125,10.61,7.391v0.029
	c0.174,0,0.35-0.009,0.525-0.013c0.176,0.004,0.352,0.013,0.525,0.013v-0.029C94.438,147.396,100.018,145.196,100.018,140.271z"/>
<path display="none" d="M68.372,88.883c0,11.328-9.183,20.511-20.511,20.511c-11.329,0-20.512-9.183-20.512-20.511s9.183,0,20.512,0
	C59.188,88.883,68.372,77.555,68.372,88.883z"/>
<path display="none" d="M150.417,88.883c0,11.328-9.182,20.511-20.512,20.511c-11.328,0-20.511-9.183-20.511-20.511
	s9.183,0,20.511,0C141.235,88.883,150.417,77.555,150.417,88.883z"/>
<path d="M68.372,88.883c0,11.328-9.183,20.511-20.511,20.511c-11.329,0-20.512-9.183-20.512-20.511s9.183-20.916,20.512-20.916
	C59.188,67.968,68.372,77.555,68.372,88.883z"/>
<path d="M150.417,88.883c0,11.328-9.182,20.511-20.512,20.511c-11.328,0-20.511-9.183-20.511-20.511s9.183-20.916,20.511-20.916
	C141.235,67.968,150.417,77.555,150.417,88.883z"/>
</svg>
