<?xml version="1.0" encoding="utf-8"?>
<!-- Generator: Adobe Illustrator 15.1.0, SVG Export Plug-In  -->
<!DOCTYPE svg PUBLIC "-//W3C//DTD SVG 1.1//EN" "http://www.w3.org/Graphics/SVG/1.1/DTD/svg11.dtd" [
	<!ENTITY ns_flows "http://ns.adobe.com/Flows/1.0/">
]>
<svg version="1.1"
	 xmlns="http://www.w3.org/2000/svg" xmlns:xlink="http://www.w3.org/1999/xlink" xmlns:a="http://ns.adobe.com/AdobeSVGViewerExtensions/3.0/"
	 x="0px" y="0px" width="182px" height="152px" viewBox="3.625 -0.752 182 152"
	 overflow="visible" enable-background="new 3.625 -0.752 182 152" xml:space="preserve">
<defs>
</defs>
<path display="none" d="M17.641,32.623c-0.491,0.491-0.581,1.089-1.072,0.598s-0.491-1.288,0-1.779s1.288-0.491,1.779,0
	S18.132,32.132,17.641,32.623z"/>
<path display="none" d="M186.292,29.248c-2.5-6.833-10.5-15.5-22.167-20s-23.833,0.667-28.167,4.5s-11.333,13.834-8.999,27.5
	s2.166,28.333-3.834,36.333c-6,8-18.166,20.5-28.833,15s-12.358-25.558-15.667-33.5c-3.333-8-11.167-23.834-20.5-27
	c-6.03-2.046-13.104-2.891-20.187-0.818c0.096,0.171,0.208,0.33,0.293,0.51c0.964,2.035,0.557,4.483-1.211,7.276
	c-3.542,5.595-12.256,11.808-15.823,12.092c-1.384,1.659-2.848,3.373-4.314,5.031c-0.16,3.401,1.248,12.161,5.576,17.744
	c4.151,5.355,11.5,13.5,23.5,20s11.167,16.499,14.333,22.832s-10.5,18.5-3.833,24.667s62.833,18.167,65.5,0
	s11.667-24.668,19.667-33.168s26.667-18.999,37.833-30s10.334-24.5,10.5-27.53S188.792,36.081,186.292,29.248z M43.75,63.123
	c-2.292,2.854-3.688-0.552-3.875-0.875c-0.688-1.188-0.333-2.083,1.188-2.438C42.853,59.394,44.415,62.295,43.75,63.123z
	 M50.125,55.498c1.25-3.438,6,0.188,3.125,2.75C52,59.311,49.754,56.517,50.125,55.498z M55.375,76.998
	c-1.25,0.625-2.5,0.248-4.75-0.751c0,0,4.375-3.124,7.5-3.249C57.935,75.149,56.625,76.373,55.375,76.998z M133.969,94.651
	c-0.136,0.204-0.146,0.438-0.033,0.661c-1.33,0.479-3.036,0.933-3.936,0.123c-1.25-1.125-2.312-1.188-1.75-2.062
	s3.032-7.429,3.625-6.625c1.432,1.941,2.875,4.062,4.688,4.625c0.003,0.058,0.002,0.117,0.004,0.176
	c-0.504,0.185-1.23,1.054-2.523,2.991L133.969,94.651z M134.706,94.943c-0.033-0.062-0.023-0.098,0.004-0.14l0.062-0.095
	c1.378-2.064,1.82-2.382,1.961-2.387c1.703,0.094,1.694,0.27,1.688,0.385c-0.041,0.326-1.33,2.9-1.707,3.164
	C136.383,95.841,134.939,95.382,134.706,94.943z M142.312,99.123c-1.265,0.603-4.78-1.969-4.813-3.114
	c0.783-1.131,1.74-3.306,1.751-3.517c0-0.009-0.002-0.016-0.002-0.024c1.256-0.577,6.691-2.371,6.377-1.188
	C145.271,92.612,143.625,98.498,142.312,99.123z M162.938,33.623c-1.75,0.125-1.917-1.646-1.875-2.062s1.125-1.375,2-0.75
	C163.534,31.147,164.312,33.498,162.938,33.623z M166.775,56.478c-0.631,0.34-1.16,0.51-1.631,0.51c-0.43,0-0.8-0.15-1.079-0.43
	c-0.391-0.4-0.58-1.05-0.561-1.98c0.04-2.61,0.95-3.73,0.99-3.78l0.08-0.07c0.5-0.38,1.04-0.57,1.58-0.57
	c0.979,0,1.75,0.65,1.84,1.26C168.005,51.458,168.335,55.638,166.775,56.478z M174.562,36.498c-0.583,0.75-2.167-1.333-2-1.875
	s1.208-1.562,2-1.062C175.285,34.017,175.146,35.748,174.562,36.498z"/>
<path display="none" d="M36.697,32.619c0.126,0.107,0.248,0.208,0.366,0.306c-0.052-0.173-0.109-0.344-0.188-0.51
	c-2.83-5.973-11.881-5.272-17.307-1.958C30.429,27.371,34.335,30.626,36.697,32.619z"/>
<path display="none" d="M16.958,32.493c-0.065,0.062-0.133,0.124-0.196,0.187c0.134,0.131,0.191,0.33,0.127,0.518
	c-2.835,8.259,0.942,13.877,0.981,13.933c0.157,0.227,0.1,0.539-0.126,0.695c-0.087,0.06-0.187,0.089-0.285,0.089
	c-0.158,0-0.313-0.075-0.411-0.215c-0.162-0.233-3.763-5.583-1.44-13.719c-2.982,3.731-4.035,8.515-3.066,12.569
	c0.047,0.198-1.117,2.047-7.333,6.864c-10,7.75-3,11.667-0.333,11.75s15.667-15.583,15.667-15.583
	c0.586,0.246,1.907-0.183,3.558-1.06C22.347,46.448,16.573,39.073,16.958,32.493z"/>
<path display="none" d="M18.265,31.864c-0.011,0.001-0.021-0.005-0.033-0.004c-0.02-0.001-0.039-0.004-0.058-0.008
	c-0.046-0.006-0.09-0.017-0.133-0.039c-0.02-0.009-0.036-0.023-0.054-0.035c-0.029-0.021-0.058-0.039-0.083-0.065
	c-0.011-0.011-0.019-0.026-0.028-0.039c-0.078,0.064-0.159,0.125-0.235,0.19c6.951,1.514,12.265,9.167,13.701,11.428
	c1.655-1.511,3.16-3.156,4.236-4.784C34.672,37.145,30.251,31.615,18.265,31.864z"/>
<path display="none" d="M36.052,33.383c-2.077-1.75-5.43-4.543-14.421-2.43c9.25,0.673,13.229,4.844,14.517,6.614
	c0.635-1.141,1.031-2.256,1.077-3.292C36.852,34.038,36.477,33.741,36.052,33.383z"/>
<path display="none" d="M17.93,32.958c-0.099,6.203,5.601,13.34,7.061,15.064c1.735-1.017,3.724-2.436,5.592-4.054
	C29.373,42.064,24.328,34.67,17.93,32.958z"/>
<path d="M21.342,30.618c-0.491,0.491-0.581,1.089-1.072,0.598s-0.491-1.288,0-1.779s1.288-0.491,1.779,0
	S21.833,30.126,21.342,30.618z"/>
<path d="M181.292,21.748c-2.5-6.833-10.5-15.5-22.167-20s-23.833,0.667-28.167,4.5s-11.333,13.834-8.999,27.5
	s2.166,28.333-3.834,36.333c-6,8-13.166,27.999-23.833,22.499s-8.657-27.563-11.966-35.505c-3.333-8-11.167-23.834-20.5-27
	c-6.03-2.046-13.104-2.891-20.187-0.818c0.096,0.171,0.208,0.33,0.293,0.51c0.964,2.035,0.557,4.483-1.211,7.276
	c-3.542,5.595-12.256,11.808-15.823,12.092c-1.384,1.659-2.848,3.373-4.314,5.031c-0.16,3.401,1.248,12.161,5.576,17.744
	c4.151,5.355,11.5,13.5,23.5,20s10.965,18.172,10.632,24.838c-0.354,7.072-10.5,18.5-3.833,24.667s62.833,18.167,65.5,0
	s11.667-24.668,19.667-33.168s21.667-26.499,32.833-37.499c11.166-11,10.334-24.5,10.5-27.53S183.792,28.582,181.292,21.748z
	 M47.451,61.118c-2.292,2.854-3.688-0.552-3.875-0.875c-0.688-1.188-0.333-2.083,1.188-2.438
	C46.554,57.389,48.116,60.29,47.451,61.118z M53.826,53.493c1.25-3.438,6,0.188,3.125,2.75
	C55.701,57.305,53.456,54.511,53.826,53.493z M61.493,79.41c-1.25,0.625-7.75,0.25-10.083-5.083c0,0,9.375-5.125,12.5-5.25
	C67.243,75.41,62.743,78.785,61.493,79.41z M128.969,87.152c-0.136,0.203-0.146,0.438-0.033,0.66
	c-1.33,0.48-3.036,0.934-3.936,0.123c-1.25-1.125-2.312-1.188-1.75-2.062s3.032-7.428,3.625-6.625
	c1.432,1.941,2.875,4.062,4.688,4.625c0.003,0.059,0.002,0.117,0.004,0.176c-0.504,0.186-1.23,1.055-2.523,2.992L128.969,87.152z
	 M129.706,87.443c-0.033-0.062-0.023-0.098,0.004-0.139l0.062-0.096c1.378-2.064,1.82-2.381,1.961-2.387
	c1.703,0.094,1.694,0.27,1.688,0.385c-0.041,0.326-1.33,2.9-1.707,3.164C131.383,88.342,129.939,87.883,129.706,87.443z
	 M137.312,91.623c-1.265,0.604-4.78-1.969-4.813-3.113c0.783-1.131,1.74-3.307,1.751-3.518c0-0.008-0.002-0.016-0.002-0.023
	c1.256-0.578,6.691-2.371,6.377-1.188C140.271,85.113,138.625,90.998,137.312,91.623z M157.938,26.124
	c-1.75,0.125-1.917-1.646-1.875-2.062s1.125-1.375,2-0.75C158.534,23.647,159.312,25.999,157.938,26.124z M161.775,48.979
	c-0.631,0.34-1.16,0.51-1.631,0.51c-0.43,0-0.8-0.15-1.079-0.43c-0.391-0.4-0.58-1.05-0.561-1.98c0.04-2.61,1.045-6.953,1.085-7.003
	l0.08-0.07c0.5-0.38,1.04-0.57,1.58-0.57c0.979,0,1.75,0.65,1.84,1.26C163.1,40.735,163.335,48.139,161.775,48.979z M169.562,28.999
	c-0.583,0.75-2.167-1.333-2-1.875s1.208-1.562,2-1.062C170.285,26.517,170.146,28.249,169.562,28.999z"/>
<path d="M40.398,30.613c0.126,0.107,0.248,0.208,0.366,0.306c-0.052-0.173-0.109-0.344-0.188-0.51
	c-2.83-5.973-11.881-5.272-17.307-1.958C34.13,25.366,38.036,28.621,40.398,30.613z"/>
<path d="M20.659,30.487c-0.065,0.062-0.133,0.124-0.196,0.187c0.134,0.131,0.191,0.33,0.127,0.518
	c-2.835,8.259,0.942,13.877,0.981,13.933c0.157,0.227,0.1,0.539-0.126,0.695c-0.087,0.06-0.187,0.089-0.285,0.089
	c-0.158,0-0.313-0.075-0.411-0.215c-0.162-0.233-3.763-5.583-1.44-13.719c-2.982,3.731-4.035,8.515-3.066,12.569
	c0.047,0.198-1.117,2.047-7.333,6.864c-10,7.75-3,11.667-0.333,11.75s15.667-15.583,15.667-15.583
	c0.586,0.246,1.907-0.183,3.558-1.06C26.048,44.442,20.274,37.067,20.659,30.487z"/>
<path d="M21.966,29.859c-0.011,0.001-0.021-0.005-0.033-0.004c-0.02-0.001-0.039-0.004-0.058-0.008
	c-0.046-0.006-0.09-0.017-0.133-0.039c-0.02-0.009-0.036-0.023-0.054-0.035c-0.029-0.021-0.058-0.039-0.083-0.065
	c-0.011-0.011-0.019-0.026-0.028-0.039c-0.078,0.064-0.159,0.125-0.235,0.19c6.951,1.514,12.265,9.167,13.701,11.428
	c1.655-1.511,3.16-3.156,4.236-4.784C38.374,35.14,33.952,29.61,21.966,29.859z"/>
<path d="M39.753,31.377c-2.077-1.75-5.43-4.543-14.421-2.43c9.25,0.673,13.229,4.844,14.517,6.614
	c0.635-1.141,1.031-2.256,1.077-3.292C40.553,32.033,40.178,31.735,39.753,31.377z"/>
<path d="M21.631,30.953c-0.099,6.203,5.601,13.34,7.061,15.064c1.735-1.017,3.724-2.436,5.592-4.054
	C33.074,40.059,28.029,32.665,21.631,30.953z"/>
</svg>
