<?xml version="1.0" encoding="utf-8"?>
<!-- Generator: Adobe Illustrator 15.1.0, SVG Export Plug-In  -->
<!DOCTYPE svg PUBLIC "-//W3C//DTD SVG 1.1//EN" "http://www.w3.org/Graphics/SVG/1.1/DTD/svg11.dtd" [
	<!ENTITY ns_flows "http://ns.adobe.com/Flows/1.0/">
]>
<svg version="1.1"
	 xmlns="http://www.w3.org/2000/svg" xmlns:xlink="http://www.w3.org/1999/xlink" xmlns:a="http://ns.adobe.com/AdobeSVGViewerExtensions/3.0/"
	 x="0px" y="0px" width="179px" height="149px" viewBox="6.625 -0.944 179 149"
	 overflow="visible" enable-background="new 6.625 -0.944 179 149" xml:space="preserve">
<defs>
</defs>
<path display="none" d="M17.641,29.431c-0.491,0.491-0.581,1.089-1.072,0.598s-0.491-1.288,0-1.779s1.288-0.491,1.779,0
	S18.132,28.939,17.641,29.431z"/>
<path display="none" d="M186.292,26.055c-2.5-6.833-10.5-15.5-22.167-20s-23.833,0.667-28.167,4.5s-11.333,13.834-8.999,27.5
	s2.166,28.333-3.834,36.333c-6,8-18.166,20.5-28.833,15S83.625,72.556,83.958,63.056c0,0,1.333-15.167-4.667-21.333
	s-11.833-9.667-21.167-12.833c-6.03-2.046-13.104-2.891-20.187-0.818c0.096,0.171,0.208,0.33,0.293,0.51
	c0.964,2.035,0.557,4.483-1.211,7.276c-3.542,5.595-12.256,11.808-15.823,12.092c-1.384,1.659-2.848,3.373-4.314,5.031
	c-0.16,3.401,0.033,7.31,0.242,12.076c0.667,15.167,9.5,21,21.5,27.5s18.5,14.667,21.667,21s-10.5,18.5-3.833,24.667
	s62.833,18.167,65.5,0s11.667-24.668,19.667-33.168s26.667-18.999,37.833-30s10.334-24.5,10.5-27.53S188.792,32.889,186.292,26.055z
	 M43.75,59.931c-2.292,2.854-3.688-0.552-3.875-0.875c-0.688-1.188-0.333-2.083,1.188-2.438
	C42.853,56.202,44.415,59.103,43.75,59.931z M50.125,52.306c1.25-3.438,6,0.188,3.125,2.75C52,56.118,49.754,53.324,50.125,52.306z
	 M55.375,73.806c-1.25,0.625-2.5,0.248-4.75-0.751c0,0,4.375-3.124,7.5-3.249C57.935,71.957,56.625,73.181,55.375,73.806z
	 M133.969,91.459c-0.136,0.204-0.146,0.438-0.033,0.661c-1.33,0.479-3.036,0.933-3.936,0.123c-1.25-1.125-2.312-1.188-1.75-2.062
	s3.032-7.429,3.625-6.625c1.432,1.941,2.875,4.062,4.688,4.625c0.003,0.058,0.002,0.117,0.004,0.176
	c-0.504,0.185-1.23,1.054-2.523,2.991L133.969,91.459z M134.706,91.751c-0.033-0.062-0.023-0.098,0.004-0.14l0.062-0.095
	c1.378-2.064,1.82-2.382,1.961-2.387c1.703,0.094,1.694,0.27,1.688,0.385c-0.041,0.326-1.33,2.9-1.707,3.164
	C136.383,92.648,134.939,92.189,134.706,91.751z M142.312,95.931c-1.265,0.603-4.78-1.969-4.813-3.114
	c0.783-1.131,1.74-3.306,1.751-3.517c0-0.009-0.002-0.016-0.002-0.024c1.256-0.577,6.691-2.371,6.377-1.188
	C145.271,89.42,143.625,95.306,142.312,95.931z M162.938,30.431c-1.75,0.125-1.917-1.646-1.875-2.062s1.125-1.375,2-0.75
	C163.534,27.955,164.312,30.306,162.938,30.431z M166.775,53.286c-0.631,0.34-1.16,0.51-1.631,0.51c-0.43,0-0.8-0.15-1.079-0.43
	c-0.391-0.4-0.58-1.05-0.561-1.98c0.04-2.61,0.95-3.73,0.99-3.78l0.08-0.07c0.5-0.38,1.04-0.57,1.58-0.57
	c0.979,0,1.75,0.65,1.84,1.26C168.005,48.266,168.335,52.446,166.775,53.286z M174.562,33.306c-0.583,0.75-2.167-1.333-2-1.875
	s1.208-1.562,2-1.062C175.285,30.824,175.146,32.556,174.562,33.306z"/>
<path display="none" d="M36.697,29.426c0.126,0.107,0.248,0.208,0.366,0.306c-0.052-0.173-0.109-0.344-0.188-0.51
	c-2.83-5.973-11.881-5.272-17.307-1.958C30.429,24.179,34.335,27.434,36.697,29.426z"/>
<path display="none" d="M16.958,29.3c-0.065,0.062-0.133,0.124-0.196,0.187c0.134,0.131,0.191,0.33,0.127,0.518
	c-2.835,8.259,0.942,13.877,0.981,13.933c0.157,0.227,0.1,0.539-0.126,0.695c-0.087,0.06-0.187,0.089-0.285,0.089
	c-0.158,0-0.313-0.075-0.411-0.215c-0.162-0.233-3.763-5.583-1.44-13.719c-2.982,3.731-4.035,8.515-3.066,12.569
	c0.047,0.198-1.117,2.047-7.333,6.864c-10,7.75-3,11.667-0.333,11.75s15.667-15.583,15.667-15.583
	c0.586,0.246,1.907-0.183,3.558-1.06C22.347,43.255,16.573,35.88,16.958,29.3z"/>
<path display="none" d="M18.265,28.672c-0.011,0.001-0.021-0.005-0.033-0.004c-0.02-0.001-0.039-0.004-0.058-0.008
	c-0.046-0.006-0.09-0.017-0.133-0.039c-0.02-0.009-0.036-0.023-0.054-0.035c-0.029-0.021-0.058-0.039-0.083-0.065
	c-0.011-0.011-0.019-0.026-0.028-0.039c-0.078,0.064-0.159,0.125-0.235,0.19c6.951,1.514,12.265,9.167,13.701,11.428
	c1.655-1.511,3.16-3.156,4.236-4.784C34.672,33.953,30.251,28.423,18.265,28.672z"/>
<path display="none" d="M36.052,30.19c-2.077-1.75-5.43-4.543-14.421-2.43c9.25,0.673,13.229,4.844,14.517,6.614
	c0.635-1.141,1.031-2.256,1.077-3.292C36.852,30.846,36.477,30.548,36.052,30.19z"/>
<path display="none" d="M17.93,29.766c-0.099,6.203,5.601,13.34,7.061,15.064c1.735-1.017,3.724-2.436,5.592-4.054
	C29.373,38.872,24.328,31.478,17.93,29.766z"/>
<path d="M25.203,17.421c-0.491,0.491-0.581,1.089-1.072,0.598s-0.491-1.288,0-1.779s1.288-0.491,1.779,0S25.694,16.93,25.203,17.421
	z"/>
<path d="M180.959,21.748c-2.5-6.833-10.5-15.5-22.167-20s-23.833,0.667-28.167,4.5s-11.333,13.834-8.999,27.5
	s4.999,27.306-1.001,35.306c-6,8-15.666,25.834-26.333,20.334s-3.104-28.843-2.771-38.343c0,0,1.333-15.167-4.667-21.333
	s-11.833-9.667-21.167-12.833c-6.03-2.046-13.104-2.891-20.187-0.818c0.096,0.171,0.208,0.33,0.293,0.51
	c0.964,2.035,0.557,4.483-1.211,7.276c-3.542,5.595-12.256,11.808-15.823,12.092c-1.384,1.659-2.848,3.373-4.314,5.031
	c-0.16,3.401,0.033,7.31,0.242,12.076c0.667,15.167,9.5,21,21.5,27.5s10.938,26.677,14.104,33.01s-10.5,18.5-3.833,24.667
	s62.833,18.167,65.5,0s11.667-24.668,19.667-33.168s24.167-24.333,35.333-35.334c11.166-11,7.501-23.473,7.667-26.502
	S183.459,28.582,180.959,21.748z M51.312,47.921c-2.292,2.854-3.688-0.552-3.875-0.875c-0.688-1.188-0.333-2.083,1.188-2.438
	C50.416,44.192,51.977,47.093,51.312,47.921z M57.688,40.296c1.25-3.438,6,0.188,3.125,2.75
	C59.562,44.108,57.317,41.314,57.688,40.296z M64.458,65.056c-1.25,0.625-5.833-1.167-6.271-4.011c0,0,2.437-3.99,7.5-3.249
	C66.958,59.889,65.708,64.431,64.458,65.056z M131.469,86.124c-0.136,0.205-0.146,0.439-0.033,0.662
	c-1.33,0.479-3.036,0.932-3.936,0.123c-1.25-1.125-2.312-1.188-1.75-2.062s3.032-7.429,3.625-6.625
	c1.432,1.941,2.875,4.062,4.688,4.625c0.003,0.057,0.002,0.117,0.004,0.176c-0.504,0.184-1.23,1.053-2.523,2.99L131.469,86.124z
	 M132.206,86.417c-0.033-0.062-0.023-0.098,0.004-0.141l0.062-0.094c1.378-2.064,1.82-2.383,1.961-2.387
	c1.703,0.094,1.694,0.27,1.688,0.385c-0.041,0.326-1.33,2.9-1.707,3.164C133.883,87.313,132.439,86.854,132.206,86.417z
	 M139.812,90.597c-1.265,0.602-4.78-1.969-4.813-3.115c0.783-1.131,1.74-3.305,1.751-3.516c0-0.01-0.002-0.016-0.002-0.025
	c1.256-0.576,6.691-2.371,6.377-1.188C142.771,84.085,141.125,89.972,139.812,90.597z M157.604,26.124
	c-1.75,0.125-1.917-1.646-1.875-2.062s1.125-1.375,2-0.75C158.201,23.647,158.979,25.999,157.604,26.124z M161.442,48.979
	c-0.631,0.34-1.16,0.51-1.631,0.51c-0.43,0-0.8-0.15-1.079-0.43c-0.391-0.4-0.58-1.05-0.561-1.98c0.04-2.61,1.419-6.833,1.459-6.884
	l0.08-0.07c0.5-0.38,1.04-0.57,1.58-0.57c0.979,0,1.75,0.65,1.84,1.26C163.141,40.855,163.002,48.139,161.442,48.979z
	 M169.229,28.999c-0.583,0.75-2.167-1.333-2-1.875s1.208-1.562,2-1.062C169.952,26.517,169.812,28.249,169.229,28.999z"/>
<path d="M44.259,17.417c0.126,0.107,0.248,0.208,0.366,0.306c-0.052-0.173-0.109-0.344-0.188-0.51
	c-2.83-5.973-11.881-5.272-17.307-1.958C37.991,12.169,41.897,15.424,44.259,17.417z"/>
<path d="M24.521,17.291c-0.065,0.062-0.133,0.124-0.196,0.187c0.134,0.131,0.191,0.33,0.127,0.518
	c-2.835,8.259,0.942,13.877,0.981,13.933c0.157,0.227,0.1,0.539-0.126,0.695c-0.087,0.06-0.187,0.089-0.285,0.089
	c-0.158,0-0.313-0.075-0.411-0.215c-0.162-0.233-3.763-5.583-1.44-13.719c-2.982,3.731-4.035,8.515-3.066,12.569
	c0.047,0.198-1.117,2.047-7.333,6.864c-10,7.75-3,11.667-0.333,11.75s15.667-15.583,15.667-15.583
	c0.586,0.246,1.907-0.183,3.558-1.06C29.91,31.246,24.135,23.871,24.521,17.291z"/>
<path d="M25.827,16.662c-0.011,0.001-0.021-0.005-0.033-0.004c-0.02-0.001-0.039-0.004-0.058-0.008
	c-0.046-0.006-0.09-0.017-0.133-0.039c-0.02-0.009-0.036-0.023-0.054-0.035c-0.029-0.021-0.058-0.039-0.083-0.065
	c-0.011-0.011-0.019-0.026-0.028-0.039c-0.078,0.064-0.159,0.125-0.235,0.19c6.951,1.514,12.265,9.167,13.701,11.428
	c1.655-1.511,3.16-3.156,4.236-4.784C42.235,21.943,37.813,16.413,25.827,16.662z"/>
<path d="M43.615,18.181c-2.077-1.75-5.43-4.543-14.421-2.43c9.25,0.673,13.229,4.844,14.517,6.614
	c0.635-1.141,1.031-2.256,1.077-3.292C44.414,18.836,44.039,18.539,43.615,18.181z"/>
<path d="M25.492,17.756c-0.099,6.203,5.601,13.34,7.061,15.064c1.735-1.017,3.724-2.436,5.592-4.054
	C36.936,26.862,31.89,19.468,25.492,17.756z"/>
</svg>
