<?xml version="1.0" encoding="utf-8"?>
<!-- Generator: Adobe Illustrator 15.1.0, SVG Export Plug-In  -->
<!DOCTYPE svg PUBLIC "-//W3C//DTD SVG 1.1//EN" "http://www.w3.org/Graphics/SVG/1.1/DTD/svg11.dtd" [
	<!ENTITY ns_flows "http://ns.adobe.com/Flows/1.0/">
]>
<svg version="1.1"
	 xmlns="http://www.w3.org/2000/svg" xmlns:xlink="http://www.w3.org/1999/xlink" xmlns:a="http://ns.adobe.com/AdobeSVGViewerExtensions/3.0/"
	 x="0px" y="0px" width="195px" height="132px" viewBox="2 -0.818 195 132"
	 overflow="visible" enable-background="new 2 -0.818 195 132" xml:space="preserve">
<defs>
</defs>
<path fill="#231F20" d="M163.436,64.693c-5.833,0-11.316,1.52-16.083,4.175l-11.71-15.61l1.264-2.726
	c0.285-0.617,0.368-1.271,0.297-1.901H140c1.975,0,3.572-1.598,3.572-3.572c0-1.974-1.598-3.574-3.572-3.574h-15.374
	c-1.972,0-3.574,1.6-3.574,3.574c0,1.974,1.603,3.572,3.574,3.572h5.286l-1.288,2.779H83.739l5.759-11.979l15.696-0.492
	c1.972-0.063,3.52-1.712,3.458-3.684c-0.059-1.972-1.698-3.561-3.683-3.458l-17.862,0.562c-1.333,0.04-2.532,0.821-3.108,2.021
	L68.51,66.598c-3.463-1.229-7.186-1.905-11.064-1.905c-18.287,0-33.166,14.878-33.166,33.163c0,18.288,14.879,33.164,33.166,33.164
	s33.166-14.876,33.166-33.164c0-11.682-6.078-21.965-15.233-27.875l4.114-8.228l28.687,38.245c0.025,0.034,0.06,0.059,0.087,0.091
	c0.11,0.139,0.233,0.265,0.365,0.387c0.064,0.059,0.126,0.12,0.193,0.175c0.135,0.105,0.282,0.196,0.434,0.283
	c0.077,0.045,0.149,0.098,0.23,0.137c0.016,0.008,0.029,0.02,0.046,0.027c0.132,0.062,0.27,0.093,0.404,0.137
	c0.102,0.033,0.198,0.078,0.303,0.103c0.264,0.06,0.528,0.093,0.792,0.093h0.001h0.001h19.43c1.789,16.612,15.892,29.59,32.97,29.59
	c18.29,0,33.166-14.876,33.166-33.164C196.602,79.571,181.726,64.693,163.436,64.693z M141.517,73
	c-6.049,5.34-10.143,12.842-11.051,21.287h-13.839l15.604-33.668L141.517,73z M145.817,78.734l11.665,15.553H137.67
	C138.513,88.171,141.485,82.728,145.817,78.734z M83.465,97.856c0,14.349-11.673,26.021-26.02,26.021
	c-14.348,0-26.02-11.672-26.02-26.021c0-14.346,11.672-26.016,26.02-26.016c2.771,0,5.439,0.439,7.945,1.245L54.227,96.308
	c-0.054,0.111-0.083,0.228-0.124,0.342c-0.038,0.104-0.086,0.206-0.113,0.311c-0.032,0.124-0.042,0.248-0.061,0.373
	c-0.016,0.107-0.042,0.214-0.048,0.321c-0.007,0.118,0.006,0.234,0.012,0.353c0.004,0.113,0.001,0.227,0.017,0.339
	c0.015,0.109,0.048,0.214,0.074,0.32c0.027,0.116,0.047,0.234,0.085,0.347c0.035,0.102,0.087,0.196,0.13,0.294
	c0.049,0.111,0.092,0.225,0.152,0.33c0.056,0.098,0.128,0.185,0.194,0.276c0.067,0.096,0.127,0.195,0.205,0.284
	c0.08,0.093,0.176,0.171,0.266,0.256c0.081,0.075,0.154,0.157,0.243,0.226c0.1,0.078,0.216,0.139,0.326,0.206
	c0.089,0.056,0.169,0.12,0.265,0.168c0.007,0.004,0.016,0.005,0.023,0.008c0.009,0.005,0.017,0.012,0.026,0.017
	c0.157,0.075,0.321,0.117,0.483,0.168c0.091,0.028,0.178,0.073,0.27,0.094c0.247,0.057,0.497,0.082,0.746,0.086
	c0.015,0,0.03,0.005,0.045,0.005c0,0,0,0,0.001,0h0c0.029,0,0.057-0.005,0.085-0.006c0.136-0.004,0.271-0.01,0.405-0.028
	c0.063-0.009,0.125-0.026,0.188-0.039c0.098-0.019,0.197-0.035,0.293-0.062c0.058-0.017,0.113-0.041,0.17-0.061
	c0.099-0.033,0.198-0.064,0.293-0.105c0.049-0.021,0.095-0.05,0.143-0.074c0.099-0.049,0.199-0.096,0.293-0.153
	c0.043-0.027,0.083-0.06,0.125-0.088c0.094-0.063,0.189-0.127,0.278-0.2c0.039-0.031,0.074-0.07,0.111-0.104
	c0.086-0.077,0.172-0.154,0.251-0.24c0.037-0.04,0.068-0.086,0.103-0.128c0.073-0.087,0.146-0.174,0.211-0.269
	c0.036-0.054,0.065-0.112,0.099-0.168c0.05-0.082,0.104-0.162,0.148-0.25l11.521-23.04C78.982,81.111,83.465,88.968,83.465,97.856z
	 M125.312,58.557l-15.005,32.375L86.027,58.557H125.312z M163.436,123.876c-13.134,0-24.018-9.784-25.766-22.446h26.958
	c1.354,0,2.591-0.767,3.195-1.975c0.606-1.21,0.476-2.659-0.336-3.744l-15.796-21.059c3.531-1.794,7.52-2.812,11.744-2.812
	c14.349,0,26.021,11.67,26.021,26.016C189.456,112.205,177.784,123.876,163.436,123.876z"/>
<polygon fill="#231F20" points="21.299,22.566 29.751,16.426 19.305,16.426 16.077,6.49 12.85,16.426 2.404,16.426 10.855,22.566 
	7.626,32.5 16.077,26.36 24.529,32.5 "/>
<polygon fill="#231F20" points="37.651,11.56 41.408,8.83 45.165,11.56 43.729,7.145 47.484,4.416 42.842,4.416 41.408,0 
	39.973,4.416 35.331,4.416 39.087,7.145 "/>
<polygon fill="#231F20" points="50.975,19.538 46.332,19.538 44.897,15.122 43.462,19.538 38.819,19.538 42.576,22.267 
	41.141,26.681 44.897,23.953 48.654,26.681 47.218,22.267 "/>
<polygon fill="#231F20" points="41.958,35.029 40.523,30.613 39.088,35.029 34.445,35.029 38.202,37.758 36.766,42.173 
	40.523,39.443 44.28,42.173 42.844,37.758 46.601,35.029 "/>
<polygon fill="#231F20" points="29.084,44.713 27.649,40.298 26.215,44.713 21.572,44.713 25.329,47.442 23.893,51.856 
	27.649,49.128 31.406,51.856 29.97,47.442 33.727,44.713 "/>
<path display="none" fill="#231F20" d="M139.155,64.693c-5.833,0-11.316,1.52-16.083,4.175l-11.71-15.61l1.264-2.726
	c0.285-0.617,0.368-1.271,0.297-1.901h2.797c1.975,0,3.572-1.598,3.572-3.572c0-1.974-1.598-3.574-3.572-3.574h-15.374
	c-1.972,0-3.574,1.6-3.574,3.574c0,1.974,1.603,3.572,3.574,3.572h5.286l-1.288,2.779H59.459l5.759-11.979l15.696-0.492
	c1.972-0.063,3.52-1.712,3.458-3.684c-0.059-1.972-1.698-3.561-3.683-3.458l-17.862,0.562c-1.333,0.04-2.532,0.821-3.108,2.021
	L44.23,66.598c-3.463-1.229-7.186-1.905-11.064-1.905C14.879,64.693,0,79.571,0,97.856c0,18.288,14.879,33.164,33.166,33.164
	s33.166-14.876,33.166-33.164c0-11.682-6.078-21.965-15.233-27.875l4.114-8.228l28.687,38.245c0.025,0.034,0.06,0.059,0.087,0.091
	c0.11,0.139,0.233,0.265,0.365,0.387c0.064,0.059,0.126,0.12,0.193,0.175c0.135,0.105,0.282,0.196,0.434,0.283
	c0.077,0.045,0.149,0.098,0.23,0.137c0.016,0.008,0.029,0.02,0.046,0.027c0.132,0.062,0.27,0.093,0.404,0.137
	c0.102,0.033,0.198,0.078,0.303,0.103c0.264,0.06,0.528,0.093,0.792,0.093h0.001h0.001h19.43c1.789,16.612,15.892,29.59,32.97,29.59
	c18.29,0,33.166-14.876,33.166-33.164C172.321,79.571,157.445,64.693,139.155,64.693z M117.236,73
	c-6.049,5.34-10.143,12.842-11.051,21.287H92.347l15.604-33.668L117.236,73z M121.537,78.734l11.665,15.553H113.39
	C114.232,88.171,117.205,82.728,121.537,78.734z M59.185,97.856c0,14.349-11.673,26.021-26.02,26.021
	c-14.348,0-26.02-11.672-26.02-26.021c0-14.346,11.672-26.016,26.02-26.016c2.771,0,5.439,0.439,7.945,1.245L29.946,96.308
	c-0.054,0.111-0.083,0.228-0.124,0.342c-0.038,0.104-0.086,0.206-0.113,0.311c-0.032,0.124-0.042,0.248-0.061,0.373
	c-0.016,0.107-0.042,0.214-0.048,0.321c-0.007,0.118,0.006,0.234,0.012,0.353c0.004,0.113,0.001,0.227,0.017,0.339
	c0.015,0.109,0.048,0.214,0.074,0.32c0.027,0.116,0.047,0.234,0.085,0.347c0.035,0.102,0.087,0.196,0.13,0.294
	c0.049,0.111,0.092,0.225,0.152,0.33c0.056,0.098,0.128,0.185,0.194,0.276c0.067,0.096,0.127,0.195,0.205,0.284
	c0.08,0.093,0.176,0.171,0.266,0.256c0.081,0.075,0.154,0.157,0.243,0.226c0.1,0.078,0.216,0.139,0.326,0.206
	c0.089,0.056,0.169,0.12,0.265,0.168c0.007,0.004,0.016,0.005,0.023,0.008c0.009,0.005,0.017,0.012,0.026,0.017
	c0.157,0.075,0.321,0.117,0.483,0.168c0.091,0.028,0.178,0.073,0.27,0.094c0.247,0.057,0.497,0.082,0.746,0.086
	c0.015,0,0.03,0.005,0.045,0.005c0,0,0,0,0.001,0h0c0.029,0,0.057-0.005,0.085-0.006c0.136-0.004,0.271-0.01,0.405-0.028
	c0.063-0.009,0.125-0.026,0.188-0.039c0.098-0.019,0.197-0.035,0.293-0.062c0.058-0.017,0.113-0.041,0.17-0.061
	c0.099-0.033,0.198-0.064,0.293-0.105c0.049-0.021,0.095-0.05,0.143-0.074c0.099-0.049,0.199-0.096,0.293-0.153
	c0.043-0.027,0.083-0.06,0.125-0.088c0.094-0.063,0.189-0.127,0.278-0.2c0.039-0.031,0.074-0.07,0.111-0.104
	c0.086-0.077,0.172-0.154,0.251-0.24c0.037-0.04,0.068-0.086,0.103-0.128c0.073-0.087,0.146-0.174,0.211-0.269
	c0.036-0.054,0.065-0.112,0.099-0.168c0.05-0.082,0.104-0.162,0.148-0.25l11.521-23.04C54.702,81.111,59.185,88.968,59.185,97.856z
	 M101.031,58.557L86.026,90.931L61.747,58.557H101.031z M139.155,123.876c-13.134,0-24.018-9.784-25.766-22.446h26.958
	c1.354,0,2.591-0.767,3.195-1.975c0.606-1.21,0.476-2.659-0.336-3.744l-15.796-21.059c3.531-1.794,7.52-2.812,11.744-2.812
	c14.349,0,26.021,11.67,26.021,26.016C165.176,112.205,153.504,123.876,139.155,123.876z"/>
</svg>
