<?xml version="1.0" encoding="utf-8"?>
<!-- Generator: Adobe Illustrator 15.1.0, SVG Export Plug-In . SVG Version: 6.00 Build 0)  -->
<!DOCTYPE svg PUBLIC "-//W3C//DTD SVG 1.1//EN" "http://www.w3.org/Graphics/SVG/1.1/DTD/svg11.dtd">
<svg version="1.1" xmlns="http://www.w3.org/2000/svg" xmlns:xlink="http://www.w3.org/1999/xlink" x="0px" y="0px" width="200px"
	 height="200px" viewBox="0 0 200 200" enable-background="new 0 0 200 200" xml:space="preserve">
<g id="Layer_1">
	<g>
		<path d="M167.363,20.025h-13.593v-5.631h-0.021c0.01-0.131,0.021-0.26,0.021-0.402c0-3.467-2.813-6.282-6.284-6.282
			c-3.467,0-6.274,2.815-6.274,6.282c0,0.142,0.012,0.271,0.021,0.402h-0.021v5.631H58.378v-5.631h-0.017
			c0.009-0.131,0.017-0.265,0.017-0.402c0-3.467-2.807-6.282-6.274-6.282c-3.471,0-6.287,2.815-6.287,6.282
			c0,0.137,0.014,0.271,0.023,0.402h-0.023v5.631H32.229c-12.438,0-22.522,10.086-22.522,22.525v7.505v18.768v110.106
			c0,6.886,5.628,12.519,12.512,12.519h155.154c6.883,0,12.512-5.633,12.512-12.519V68.822V50.055V42.55
			C189.885,30.111,179.804,20.025,167.363,20.025z M141.212,24.825v10.436c0,3.467,2.808,6.282,6.274,6.282
			c3.471,0,6.284-2.815,6.284-6.282V24.828c3.582,2.142,5.985,6.047,5.985,10.525c0,6.776-5.486,12.269-12.27,12.269
			c-6.772,0-12.265-5.493-12.265-12.269C135.222,30.873,137.629,26.967,141.212,24.825z M45.817,24.83v10.432
			c0,3.467,2.816,6.282,6.287,6.282c3.467,0,6.274-2.815,6.274-6.282V24.825c3.583,2.141,5.991,6.047,5.991,10.528
			c0,6.776-5.493,12.269-12.266,12.269c-6.782,0-12.271-5.493-12.271-12.269C39.833,30.876,42.236,26.972,45.817,24.83z
			 M177.009,180.182H22.574V60.065h154.435V180.182z"/>
	</g>
</g>
<g id="Layer_3">
	<g>
		<rect x="62.031" y="68.822" width="18.883" height="18.884"/>
		<rect x="90.355" y="68.822" width="18.88" height="18.884"/>
		<rect x="118.678" y="68.822" width="18.88" height="18.884"/>
		<rect x="147.007" y="68.822" width="18.877" height="18.884"/>
		<rect x="33.707" y="97.146" width="18.884" height="18.881"/>
		<rect x="62.031" y="97.146" width="18.883" height="18.881"/>
		<rect x="90.355" y="97.146" width="18.88" height="18.881"/>
		<rect x="118.678" y="97.146" width="18.88" height="18.881"/>
		<rect x="147.007" y="97.146" width="18.877" height="18.881"/>
		<rect x="33.707" y="125.474" width="18.884" height="18.88"/>
		<rect x="62.031" y="125.474" width="18.883" height="18.88"/>
		<rect x="90.355" y="125.474" width="18.88" height="18.88"/>
		<rect x="118.678" y="125.474" width="18.88" height="18.88"/>
		<rect x="147.007" y="125.474" width="18.877" height="18.88"/>
		<rect x="33.707" y="153.8" width="18.884" height="18.876"/>
		<rect x="62.031" y="153.8" width="18.883" height="18.876"/>
		<rect x="90.355" y="153.8" width="18.88" height="18.876"/>
		<rect x="118.678" y="153.8" width="18.88" height="18.876"/>
	</g>
</g>
<g id="Layer_2" display="none">
	
		<rect x="47.061" y="167.148" transform="matrix(0.7121 0.7021 -0.7021 0.7121 140.2552 11.1756)" display="inline" width="18.883" height="18.885"/>
	<rect x="90.355" y="68.822" display="inline" width="18.88" height="18.884"/>
	<rect x="118.678" y="68.822" display="inline" width="18.88" height="18.884"/>
	
		<rect x="149.431" y="168.149" transform="matrix(0.9722 0.2342 -0.2342 0.9722 46.021 -32.2738)" display="inline" width="18.877" height="18.884"/>
	
		<rect x="31.804" y="165.236" transform="matrix(0.8792 0.4765 -0.4765 0.8792 88.2222 1.4528)" display="inline" width="18.885" height="18.88"/>
	<rect x="62.031" y="97.146" display="inline" width="18.883" height="18.881"/>
	<rect x="90.355" y="97.146" display="inline" width="18.88" height="18.881"/>
	
		<rect x="117.044" y="169.271" transform="matrix(0.9761 -0.2172 0.2172 0.9761 -35.8021 31.7448)" display="inline" width="18.881" height="18.881"/>
	<rect x="147.007" y="97.146" display="inline" width="18.877" height="18.881"/>
	<rect x="33.707" y="125.474" display="inline" width="18.884" height="18.88"/>
	<rect x="62.031" y="125.474" display="inline" width="18.883" height="18.88"/>
	
		<rect x="90.56" y="167.675" transform="matrix(0.8445 -0.5355 0.5355 0.8445 -79.2995 81.086)" display="inline" width="18.88" height="18.88"/>
	
		<rect x="123.6" y="165.235" transform="matrix(0.9193 0.3935 -0.3935 0.9193 79.4738 -38.2606)" display="inline" width="18.88" height="18.88"/>
	
		<rect x="140.452" y="166.236" transform="matrix(0.945 -0.3272 0.3272 0.945 -49.2315 58.7164)" display="inline" width="18.877" height="18.879"/>
	<rect x="33.707" y="153.8" display="inline" width="18.884" height="18.876"/>
	
		<rect x="65.815" y="168.153" transform="matrix(0.9659 -0.2588 0.2588 0.9659 -43.4036 25.5322)" display="inline" width="18.883" height="18.876"/>
	<rect x="90.355" y="153.8" display="inline" width="18.88" height="18.876"/>
	<rect x="118.678" y="153.8" display="inline" width="18.88" height="18.876"/>
</g>
</svg>
