<?xml version="1.0" encoding="utf-8"?>
<!-- Generator: Adobe Illustrator 15.1.0, SVG Export Plug-In  -->
<!DOCTYPE svg PUBLIC "-//W3C//DTD SVG 1.1//EN" "http://www.w3.org/Graphics/SVG/1.1/DTD/svg11.dtd" [
	<!ENTITY ns_flows "http://ns.adobe.com/Flows/1.0/">
]>
<svg version="1.1"
	 xmlns="http://www.w3.org/2000/svg" xmlns:xlink="http://www.w3.org/1999/xlink" xmlns:a="http://ns.adobe.com/AdobeSVGViewerExtensions/3.0/"
	 x="0px" y="0px" width="125px" height="198px" viewBox="1.126 -0.513 125 198"
	 overflow="visible" enable-background="new 1.126 -0.513 125 198" xml:space="preserve">
<defs>
</defs>
<path fill-rule="evenodd" clip-rule="evenodd" d="M13.966,61.375c4.309,0.052,12.068,7.823,12.068,12.11
	c0,2.537,6.148,6.013,9.64,6.013c1.547,0,3.556,1.176,6.697,9.878c0.634,1.753,1.202,3.521,1.662,5.027
	c1.572-3.748,4.632-7.654,9.763-7.654c1.488,0,2.014-0.249,2.159-0.344c-0.184-1.231-5.215-5.388-13.424-8.122
	c-7.894-2.632-8.729-3.495-9.879-7.159c-0.345-1.097-0.773-2.457-1.711-4.336c-1.479-2.957-8.591-17.975-3.392-23.176
	c3.901-3.898,10.51-14.34,10.51-17.248c0-0.507,0-1.173-0.019-1.785c-0.318,0.53-0.734,1.28-1.264,2.338
	c-1.259,2.523-2.833,5.24-4.201,7.266c-2.489,3.679-3.642,4.189-4.519,4.189c-0.531,0-1.009-0.234-1.342-0.661
	c-0.681-0.873-0.855-2.57,0.507-8.024c0.665-2.654,0.594-3.642,0.518-3.969c-0.271,0.033-0.63,0.148-0.959,0.253
	c-0.541,0.174-1.1,0.355-1.661,0.355c-0.963,0-1.459-0.534-1.67-0.856c-0.731-1.104-0.947-2.933,3.836-14.092l0.032-0.065
	C29.506,6.933,31.233,2.41,31.715,0c-1.643,2.384-4.546,6.692-7.224,11.154c-7.562,12.608-6.084,14.321-6.068,14.335
	c3.874,3.877,3.985,17.462,3.985,18.998v0.202l-0.062,0.188c-1.306,3.927-2.541,10.991-0.299,13.236
	c0.394,0.395,1.444,1.441,0.992,2.532c-0.226,0.545-0.757,0.884-1.386,0.884c-1.43,0-3.7-1.802-5.401-4.287
	c-1.624-2.37-3.564-6.507-3.564-12.755c0-1.476-0.038-2.565-0.091-3.367c-0.355,0.995-0.737,2.249-1.061,3.519
	c0.006,0.777,0.048,4.433,0.39,8.186C12.596,60.167,13.808,61.265,13.966,61.375z"/>
<path fill-rule="evenodd" clip-rule="evenodd" d="M40.931,100.743c0.569-2.49,0.914-6.728-0.91-8.552l-0.241-0.24v-0.341
	c-0.003-0.019-0.21-3.219-6.795-6.513c-7.074-3.537-7.074-3.537-10.506-3.537c-0.425,0-0.533,0.138-0.574,0.193
	c-0.562,0.713,0.093,3.323,0.568,5.226c0.408,1.633,0.831,3.32,0.831,4.631c0,2.069,5.916,4.981,10.191,6.428
	C34.417,98.053,39.34,98.263,40.931,100.743z"/>
<path fill-rule="evenodd" clip-rule="evenodd" d="M105.026,91.609c0-1.312,0.42-2.999,0.829-4.631
	c0.473-1.903,1.129-4.513,0.57-5.226c-0.043-0.055-0.153-0.193-0.576-0.193c-3.432,0-3.432,0-10.506,3.537
	c-6.588,3.294-6.792,6.494-6.795,6.528l-0.012,0.321l-0.228,0.245c-1.825,1.824-1.482,6.062-0.915,8.552
	c1.595-2.48,6.519-2.69,7.442-2.706C99.109,96.59,105.026,93.678,105.026,91.609z"/>
<path fill-rule="evenodd" clip-rule="evenodd" d="M125.56,146.972c-5.338,1.485-9.64,3.844-12.896,7.057
	c0.435,2.493,1.114,8.231-0.323,14.557c-0.76,3.36-2.205,7.158-4.874,10.685c9.668-3.17,15.64-9.458,17.768-18.731
	C126.568,154.73,125.952,149.321,125.56,146.972z"/>
<path fill-rule="evenodd" clip-rule="evenodd" d="M105.68,177.584c0.121-0.165,0.239-0.331,0.356-0.499
	c0.173-0.248,0.339-0.501,0.502-0.757c0.106-0.166,0.215-0.331,0.317-0.5c0.2-0.333,0.392-0.673,0.577-1.018
	c0.08-0.148,0.16-0.298,0.237-0.449c0.192-0.376,0.377-0.759,0.552-1.148c0.08-0.18,0.154-0.364,0.231-0.546
	c0.123-0.295,0.244-0.593,0.358-0.896c0.073-0.195,0.146-0.394,0.215-0.593c0.111-0.317,0.216-0.641,0.316-0.967
	c0.056-0.18,0.114-0.358,0.167-0.541c0.146-0.509,0.283-1.024,0.404-1.552c0.118-0.516,0.216-1.025,0.306-1.532
	c0.018-0.101,0.035-0.199,0.052-0.299c0.083-0.501,0.155-0.996,0.213-1.484c0.005-0.038,0.008-0.074,0.012-0.111
	c0.055-0.473,0.097-0.938,0.131-1.396c0.005-0.066,0.011-0.133,0.015-0.199c0.033-0.478,0.056-0.945,0.068-1.401
	c0.002-0.054,0.002-0.105,0.004-0.159c0.011-0.445,0.015-0.88,0.01-1.302c0-0.02,0-0.04,0-0.061
	c-0.005-0.448-0.019-0.879-0.038-1.296c-0.001-0.03-0.003-0.059-0.004-0.089c-0.087-1.8-0.282-3.276-0.442-4.237
	c-0.601,0.167-1.164,0.364-1.739,0.554c0.01-0.012,0.018-0.024,0.026-0.036c-0.201,0.066-0.387,0.146-0.585,0.214
	c-0.345,0.12-0.684,0.246-1.019,0.374c-0.462,0.176-0.912,0.361-1.354,0.554c-0.363,0.156-0.726,0.314-1.076,0.481
	c-0.104,0.05-0.217,0.092-0.319,0.143c-0.001,0.008-0.001,0.015-0.002,0.022c-4.589,2.258-8.108,5.407-10.492,9.458
	c1.131,5.744,1.522,12.85-1.062,19.089c-0.213,0.521-0.452,1.028-0.703,1.523c5.895-1.895,10.423-4.939,13.571-9.093
	c0.001,0.006,0.001,0.012,0.002,0.018C105.553,177.766,105.615,177.673,105.68,177.584z"/>
<path fill-rule="evenodd" clip-rule="evenodd" d="M104.948,153.787c0.397-0.166,0.808-0.325,1.222-0.481
	c0.232-0.089,0.459-0.181,0.697-0.266c0.535-0.19,1.092-0.369,1.655-0.544c0.2-0.062,0.388-0.13,0.592-0.189
	c0.64-4.702,0.162-8.827-0.167-10.8c-5.338,1.485-9.645,3.844-12.898,7.057c0.34,1.961,0.835,5.929,0.331,10.615
	C98.627,157.12,101.444,155.268,104.948,153.787z"/>
<path fill-rule="evenodd" clip-rule="evenodd" d="M107.822,139.261c0.636-4.704,0.158-8.827-0.17-10.8
	c-5.341,1.486-9.646,3.844-12.899,7.058c0.343,1.96,0.835,5.931,0.329,10.618C98.162,143.32,102.291,140.873,107.822,139.261z"/>
<path fill-rule="evenodd" clip-rule="evenodd" d="M111.544,151.664l0.112-0.022c3.083-2.839,7.224-5.298,12.78-6.916
	c0.634-4.704,0.155-8.827-0.173-10.8c-5.393,1.5-9.729,3.896-12.996,7.161C111.613,143.137,112.062,147.066,111.544,151.664z"/>
<path fill-rule="evenodd" clip-rule="evenodd" d="M92.332,136.042c-3.409,0.95-6.395,2.258-8.957,3.916
	c0.863,3.835,1.992,7.434,3.331,8.772c0.087,0.084,0.176,0.185,0.273,0.303c1.661-0.783,3.489-1.48,5.505-2.064
	C93.149,142.212,92.663,138.034,92.332,136.042z"/>
<path fill-rule="evenodd" clip-rule="evenodd" d="M93.072,163.587c0.08-0.305,0.155-0.616,0.228-0.933
	c1.333-5.805,0.723-11.214,0.325-13.566c-1.915,0.532-3.697,1.184-5.344,1.938c1.439,2.562,3.25,6.777,4.558,11.672
	C92.916,162.985,92.994,163.285,93.072,163.587z"/>
<path fill-rule="evenodd" clip-rule="evenodd" d="M84.374,94.404c0.458-1.506,1.027-3.274,1.661-5.027
	c3.145-8.702,5.154-9.878,6.703-9.878c3.489,0,9.637-3.477,9.637-6.013c0-4.287,7.759-12.058,12.066-12.11
	c0.158-0.11,1.373-1.21,2.044-8.567c0.34-3.75,0.383-7.395,0.386-8.169c-0.322-1.27-0.702-2.523-1.057-3.519
	c-0.055,0.802-0.095,1.892-0.095,3.367c0,11.731-6.876,17.042-8.963,17.042c-0.628,0-1.16-0.338-1.388-0.884
	c-0.452-1.091,0.599-2.138,0.993-2.532c2.24-2.245,1.005-9.309-0.3-13.236l-0.063-0.188v-0.202c0-1.536,0.109-15.121,3.988-18.998
	c0.014-0.014,1.494-1.728-6.072-14.335C101.24,6.692,98.337,2.384,96.694,0c0.48,2.407,2.205,6.933,4.396,11.313l0.031,0.065
	c4.785,11.16,4.566,12.988,3.835,14.092c-0.207,0.322-0.705,0.856-1.67,0.856c-0.559,0-1.117-0.182-1.664-0.355
	c-0.331-0.108-0.702-0.229-0.956-0.258c-0.074,0.324-0.149,1.309,0.519,3.973c1.364,5.455,1.189,7.152,0.507,8.024
	c-0.328,0.426-0.807,0.661-1.342,0.661c-0.875,0-2.033-0.507-4.518-4.189c-1.367-2.026-2.939-4.742-4.203-7.266
	c-0.527-1.06-0.942-1.808-1.265-2.338c-0.017,0.612-0.017,1.278-0.017,1.785c0,2.908,6.61,13.349,10.509,17.248
	c5.199,5.201-1.912,20.219-3.389,23.176c-0.941,1.879-1.368,3.239-1.714,4.336c-1.148,3.664-1.983,4.527-9.875,7.159
	c-8.212,2.734-13.238,6.891-13.426,8.122c0.146,0.095,0.668,0.344,2.159,0.344C79.747,86.75,82.804,90.656,84.374,94.404z"/>
<path fill-rule="evenodd" clip-rule="evenodd" d="M73.81,135.282c0.812-1.543,1.865-3.127,2.908-4.688
	c0.967-1.454,1.883-2.824,2.449-3.962c0.772-1.543,1.207-4.802,1.44-7.892c-0.879,1.414-1.976,2.836-3.297,3.95
	C73.994,125.487,73.55,131.223,73.81,135.282z"/>
<path fill-rule="evenodd" clip-rule="evenodd" d="M50.615,122.691c-1.322-1.114-2.42-2.536-3.297-3.95
	c0.232,3.09,0.667,6.349,1.437,7.892c0.57,1.138,1.485,2.508,2.453,3.956c1.039,1.563,2.099,3.15,2.908,4.693
	C54.374,131.223,53.934,125.487,50.615,122.691z"/>
<path fill-rule="evenodd" clip-rule="evenodd" d="M44.851,100.67c0,10.588,4.951,16.174,8.228,19.871
	c1.15,1.295,2.062,2.326,2.558,3.322c1.602,3.199,2.103,13.192-0.151,15.449c-1.099,1.101-0.341,4.791,0.197,6.403l0.042,0.127
	v0.133c0,0.037,0.033,3.705,1.821,6.587l2.099,2.24c1.192,0.812,2.642,1.227,4.32,1.227c1.676,0,3.128-0.415,4.317-1.227l2.099-2.24
	c1.788-2.882,1.82-6.55,1.82-6.587v-0.133l0.04-0.127c0.636-1.914,1.258-5.35,0.198-6.403c-2.251-2.257-1.753-12.25-0.152-15.449
	c0.498-0.996,1.411-2.027,2.56-3.322c3.276-3.697,8.229-9.283,8.229-19.871c0-1.34-4.92-8.204-7.008-10.292
	c-1.082-1.084-7.728-1.57-12.103-1.57s-11.021,0.486-12.105,1.57C49.771,92.466,44.851,99.33,44.851,100.67z"/>
<path fill-rule="evenodd" clip-rule="evenodd" d="M84.837,150.476c-2.759-2.756-4.454-11.416-5.258-16.662l-1.825,3.654
	c-0.875,1.753-1.315,4.623-1.779,7.664c-0.443,2.87-0.898,5.839-1.779,8.487c-2.067,6.211-9.902,6.28-10.231,6.28
	c-0.335,0-8.167-0.069-10.237-6.28c-0.879-2.651-1.337-5.617-1.778-8.487c-0.462-3.041-0.901-5.911-1.778-7.664l-1.83-3.654
	c-0.799,5.246-2.495,13.906-5.253,16.662c-2.158,2.159-10.736,21.047-5.375,33.988c3.53,8.514,12.359,12.836,26.25,12.836
	c13.885,0,22.715-4.319,26.245-12.836C95.571,171.522,86.997,152.635,84.837,150.476z"/>
<path fill-rule="evenodd" clip-rule="evenodd" d="M15.386,154.028c-3.255-3.213-7.561-5.571-12.897-7.057
	c-0.393,2.35-1.007,7.759,0.327,13.566c2.127,9.273,8.098,15.562,17.764,18.731c-2.666-3.526-4.114-7.324-4.873-10.685
	C14.271,162.26,14.951,156.521,15.386,154.028z"/>
<path fill-rule="evenodd" clip-rule="evenodd" d="M19.103,141.507c-0.33,1.973-0.809,6.098-0.172,10.8
	c0.238,0.069,0.458,0.148,0.691,0.221c0.525,0.164,1.045,0.33,1.544,0.508c0.252,0.09,0.493,0.187,0.739,0.28
	c0.408,0.155,0.812,0.312,1.203,0.476c3.502,1.479,6.316,3.331,8.562,5.388c-0.504-4.687-0.01-8.654,0.328-10.615
	C28.745,145.351,24.439,142.992,19.103,141.507z"/>
<path fill-rule="evenodd" clip-rule="evenodd" d="M20.4,128.461c-0.331,1.973-0.813,6.096-0.173,10.8
	c5.531,1.612,9.658,4.06,12.736,6.876c-0.502-4.688-0.01-8.658,0.329-10.618C30.039,132.305,25.733,129.947,20.4,128.461z"/>
<path fill-rule="evenodd" clip-rule="evenodd" d="M16.392,151.642l0.112,0.022c-0.519-4.598-0.068-8.527,0.275-10.577
	c-3.265-3.266-7.603-5.661-12.995-7.161c-0.33,1.973-0.809,6.096-0.171,10.8C9.168,146.344,13.31,148.803,16.392,151.642z"/>
<path fill-rule="evenodd" clip-rule="evenodd" d="M41.34,148.73c1.34-1.339,2.472-4.938,3.337-8.772
	c-2.564-1.658-5.551-2.966-8.961-3.916c-0.087,0.52-0.183,1.194-0.268,1.983c-0.032,0.301-0.062,0.621-0.089,0.955
	c-0.01,0.121-0.018,0.245-0.027,0.37c-0.021,0.292-0.039,0.593-0.054,0.905c-0.005,0.11-0.011,0.217-0.015,0.329
	c-0.036,0.887-0.041,1.847-0.004,2.862c0.003,0.066,0.006,0.134,0.009,0.201c0.021,0.487,0.051,0.986,0.094,1.496
	c0.003,0.034,0.005,0.067,0.008,0.102c0.045,0.523,0.1,1.054,0.173,1.596c0.002,0.001,0.005,0.002,0.007,0.002
	c0.006,0.043,0.008,0.083,0.014,0.125c2.014,0.584,3.844,1.281,5.503,2.064C41.165,148.915,41.255,148.814,41.34,148.73z"/>
<path fill-rule="evenodd" clip-rule="evenodd" d="M34.979,163.587c0.076-0.302,0.154-0.602,0.23-0.89
	c1.309-4.895,3.122-9.109,4.559-11.672c-1.65-0.754-3.431-1.405-5.347-1.938c-0.392,2.353-1.005,7.762,0.327,13.566
	C34.82,162.971,34.898,163.282,34.979,163.587z"/>
<path fill-rule="evenodd" clip-rule="evenodd" d="M34.368,166.316c-2.385-4.052-5.904-7.201-10.493-9.458
	c-0.001-0.008-0.001-0.015-0.002-0.022c-0.102-0.05-0.213-0.092-0.316-0.142c-0.353-0.168-0.718-0.327-1.084-0.485
	c-0.438-0.189-0.883-0.372-1.338-0.547c-0.344-0.132-0.691-0.26-1.045-0.383c-0.193-0.067-0.375-0.145-0.571-0.209
	c0.009,0.012,0.017,0.023,0.025,0.035c-0.573-0.188-1.136-0.386-1.735-0.553c-0.085,0.509-0.179,1.169-0.263,1.938
	c0,0,0-0.001,0-0.001c-0.002,0.016-0.003,0.035-0.005,0.052c-0.07,0.65-0.13,1.381-0.17,2.179c-0.003,0.069-0.007,0.136-0.01,0.206
	c-0.018,0.396-0.03,0.805-0.035,1.229c0,0.039,0,0.08,0,0.12c-0.004,0.404,0,0.82,0.01,1.246c0.001,0.061,0.002,0.119,0.004,0.181
	c0.013,0.454,0.036,0.92,0.068,1.396c0.004,0.065,0.01,0.131,0.015,0.196c0.034,0.462,0.077,0.931,0.132,1.408
	c0.004,0.032,0.006,0.064,0.01,0.097c0.058,0.491,0.131,0.99,0.214,1.494c0.016,0.096,0.033,0.19,0.05,0.286
	c0.089,0.51,0.187,1.021,0.306,1.539c0.122,0.533,0.261,1.054,0.409,1.566c0.047,0.165,0.1,0.326,0.15,0.488
	c0.107,0.348,0.218,0.691,0.337,1.029c0.064,0.184,0.131,0.366,0.199,0.547c0.12,0.318,0.246,0.631,0.376,0.939
	c0.073,0.173,0.143,0.348,0.219,0.518c0.173,0.385,0.355,0.763,0.544,1.134c0.087,0.172,0.178,0.34,0.27,0.508
	c0.177,0.327,0.358,0.651,0.549,0.968c0.11,0.183,0.227,0.36,0.342,0.54c0.153,0.239,0.31,0.477,0.471,0.709
	c0.125,0.18,0.251,0.358,0.381,0.534c0.062,0.083,0.119,0.171,0.182,0.254c0-0.005,0.001-0.012,0.001-0.017
	c3.148,4.152,7.675,7.197,13.568,9.092c-0.248-0.495-0.485-1.002-0.701-1.523C32.845,179.166,33.239,172.061,34.368,166.316z"/>
<path display="none" fill-rule="evenodd" clip-rule="evenodd" d="M13.966,64.375c4.309,0.052,12.068,7.823,12.068,12.11
	c0,2.537,6.148,6.013,9.64,6.013c1.547,0,3.556,1.176,6.697,9.878c0.634,1.753,1.202,3.521,1.662,5.027
	c1.572-3.748,4.632-7.654,9.763-7.654c1.488,0,2.014-0.249,2.159-0.344c-0.184-1.231-5.215-5.388-13.424-8.122
	c-7.894-2.632-8.729-3.495-9.879-7.159c-0.345-1.097-0.773-2.457-1.711-4.336c-1.479-2.957-8.591-17.975-3.392-23.176
	c3.901-3.898,10.51-14.34,10.51-17.248c0-0.507,0-1.173-0.019-1.785c-0.318,0.53-0.734,1.28-1.264,2.338
	c-1.259,2.523-2.833,5.24-4.201,7.266c-2.489,3.679-3.642,4.189-4.519,4.189c-0.531,0-1.009-0.234-1.342-0.661
	c-0.681-0.873-0.855-2.57,0.507-8.024c0.665-2.654,0.594-3.642,0.518-3.969c-0.271,0.033-0.63,0.148-0.959,0.253
	c-0.541,0.174-1.1,0.355-1.661,0.355c-0.963,0-1.459-0.534-1.67-0.856c-0.731-1.104-0.947-2.933,3.836-14.092l0.032-0.065
	C29.506,9.933,31.233,5.41,31.715,3c-1.643,2.384-4.546,6.692-7.224,11.154c-7.562,12.608-6.084,14.321-6.068,14.335
	c3.874,3.877,3.985,17.462,3.985,18.998v0.202l-0.062,0.188c-1.306,3.927-2.541,10.991-0.299,13.236
	c0.394,0.395,1.444,1.441,0.992,2.532c-0.226,0.545-0.757,0.884-1.386,0.884c-1.43,0-3.7-1.802-5.401-4.287
	c-1.624-2.37-3.564-6.507-3.564-12.755c0-1.476-0.038-2.565-0.091-3.367c-0.355,0.995-0.737,2.249-1.061,3.519
	c0.006,0.777,0.048,4.433,0.39,8.186C12.596,63.167,13.808,64.265,13.966,64.375z"/>
<path display="none" fill-rule="evenodd" clip-rule="evenodd" d="M40.931,103.743c-0.051-2.555-0.741-6.75-2.952-8.079l-0.292-0.175
	l-0.082-0.331c-0.008-0.018-0.982-3.072-8.169-4.676c-7.719-1.72-7.719-1.72-11.05-0.89c-0.412,0.103-0.482,0.263-0.51,0.326
	c-0.373,0.828,0.895,3.202,1.815,4.933c0.791,1.486,1.608,3.021,1.926,4.293c0.501,2.007,6.945,3.401,11.443,3.771
	C33.959,102.708,38.788,101.722,40.931,103.743z"/>
<path display="none" fill-rule="evenodd" clip-rule="evenodd" d="M106.712,99.146c0.316-1.272,1.133-2.808,1.924-4.293
	c0.92-1.731,2.188-4.105,1.818-4.933c-0.029-0.063-0.103-0.224-0.513-0.326c-3.33-0.83-3.33-0.83-11.05,0.891
	c-7.188,1.602-8.161,4.658-8.172,4.69l-0.09,0.309l-0.279,0.183c-2.213,1.328-2.905,5.523-2.957,8.077
	c2.147-2.021,6.977-1.034,7.876-0.825C99.765,102.547,106.211,101.153,106.712,99.146z"/>
<path display="none" fill-rule="evenodd" clip-rule="evenodd" d="M127.56,144.972c-5.338,1.485-9.64,3.844-12.896,7.057
	c0.435,2.493,1.114,8.231-0.323,14.557c-0.76,3.36-2.205,7.158-4.874,10.685c9.668-3.17,15.64-9.458,17.768-18.731
	C128.568,152.73,127.952,147.321,127.56,144.972z"/>
<path display="none" fill-rule="evenodd" clip-rule="evenodd" d="M107.68,175.584c0.121-0.165,0.239-0.331,0.356-0.499
	c0.173-0.248,0.339-0.501,0.502-0.757c0.106-0.166,0.215-0.331,0.317-0.5c0.2-0.333,0.392-0.673,0.577-1.018
	c0.08-0.148,0.16-0.298,0.237-0.449c0.192-0.376,0.377-0.759,0.552-1.148c0.08-0.18,0.154-0.364,0.231-0.546
	c0.123-0.295,0.244-0.593,0.358-0.896c0.073-0.195,0.146-0.394,0.215-0.593c0.111-0.317,0.216-0.641,0.316-0.967
	c0.056-0.18,0.114-0.358,0.167-0.541c0.146-0.509,0.283-1.024,0.404-1.552c0.118-0.516,0.216-1.025,0.306-1.532
	c0.018-0.101,0.035-0.199,0.052-0.299c0.083-0.501,0.155-0.996,0.213-1.484c0.005-0.038,0.008-0.074,0.012-0.111
	c0.055-0.473,0.097-0.938,0.131-1.396c0.005-0.066,0.011-0.133,0.015-0.199c0.033-0.478,0.056-0.945,0.068-1.401
	c0.002-0.054,0.002-0.105,0.004-0.159c0.011-0.445,0.015-0.88,0.01-1.302c0-0.02,0-0.04,0-0.061
	c-0.005-0.448-0.019-0.879-0.038-1.296c-0.001-0.03-0.003-0.059-0.004-0.089c-0.087-1.8-0.282-3.276-0.442-4.237
	c-0.601,0.167-1.164,0.364-1.739,0.554c0.01-0.012,0.018-0.024,0.026-0.036c-0.201,0.066-0.387,0.146-0.585,0.214
	c-0.345,0.12-0.684,0.246-1.019,0.374c-0.462,0.176-0.912,0.361-1.354,0.554c-0.363,0.156-0.726,0.314-1.076,0.481
	c-0.104,0.05-0.217,0.092-0.319,0.143c-0.001,0.008-0.001,0.015-0.002,0.022c-4.589,2.258-8.108,5.407-10.492,9.458
	c1.131,5.744,1.522,12.85-1.062,19.089c-0.213,0.521-0.452,1.028-0.703,1.523c5.895-1.895,10.423-4.939,13.571-9.093
	c0.001,0.006,0.001,0.012,0.002,0.018C107.553,175.766,107.615,175.673,107.68,175.584z"/>
<path display="none" fill-rule="evenodd" clip-rule="evenodd" d="M106.948,151.787c0.397-0.166,0.808-0.325,1.222-0.481
	c0.232-0.089,0.459-0.181,0.697-0.266c0.535-0.19,1.092-0.369,1.655-0.544c0.2-0.062,0.388-0.13,0.592-0.189
	c0.64-4.702,0.162-8.827-0.167-10.8c-5.338,1.485-9.645,3.844-12.898,7.057c0.34,1.961,0.835,5.929,0.331,10.615
	C100.627,155.12,103.444,153.268,106.948,151.787z"/>
<path display="none" fill-rule="evenodd" clip-rule="evenodd" d="M109.822,137.261c0.636-4.704,0.158-8.827-0.17-10.8
	c-5.341,1.486-9.646,3.844-12.899,7.058c0.343,1.96,0.835,5.931,0.329,10.618C100.162,141.32,104.291,138.873,109.822,137.261z"/>
<path display="none" fill-rule="evenodd" clip-rule="evenodd" d="M113.544,149.664l0.112-0.022c3.083-2.839,7.224-5.298,12.78-6.916
	c0.634-4.704,0.155-8.827-0.173-10.8c-5.393,1.5-9.729,3.896-12.996,7.161C113.613,141.137,114.062,145.066,113.544,149.664z"/>
<path display="none" fill-rule="evenodd" clip-rule="evenodd" d="M94.332,134.042c-3.409,0.95-6.395,2.258-8.957,3.916
	c0.863,3.835,1.992,7.434,3.331,8.772c0.087,0.084,0.176,0.185,0.273,0.303c1.661-0.783,3.489-1.48,5.505-2.064
	C95.149,140.212,94.663,136.034,94.332,134.042z"/>
<path display="none" fill-rule="evenodd" clip-rule="evenodd" d="M95.072,161.587c0.08-0.305,0.155-0.616,0.228-0.933
	c1.333-5.805,0.723-11.214,0.325-13.566c-1.915,0.532-3.697,1.184-5.344,1.938c1.439,2.562,3.25,6.777,4.558,11.672
	C94.916,160.985,94.994,161.285,95.072,161.587z"/>
<path display="none" fill-rule="evenodd" clip-rule="evenodd" d="M84.374,97.404c0.458-1.506,1.027-3.274,1.661-5.027
	c3.145-8.702,5.154-9.878,6.703-9.878c3.489,0,9.637-3.477,9.637-6.013c0-4.287,7.759-12.058,12.066-12.11
	c0.158-0.11,1.373-1.21,2.044-8.567c0.34-3.75,0.383-7.395,0.386-8.169c-0.322-1.27-0.702-2.523-1.057-3.519
	c-0.055,0.802-0.095,1.892-0.095,3.367c0,11.731-6.876,17.042-8.963,17.042c-0.628,0-1.16-0.338-1.388-0.884
	c-0.452-1.091,0.599-2.138,0.993-2.532c2.24-2.245,1.005-9.309-0.3-13.236l-0.063-0.188v-0.202c0-1.536,0.109-15.121,3.988-18.998
	c0.014-0.014,1.494-1.728-6.072-14.335C101.24,9.692,98.337,5.384,96.694,3c0.48,2.407,2.205,6.933,4.396,11.313l0.031,0.065
	c4.785,11.16,4.566,12.988,3.835,14.092c-0.207,0.322-0.705,0.856-1.67,0.856c-0.559,0-1.117-0.182-1.664-0.355
	c-0.331-0.108-0.702-0.229-0.956-0.258c-0.074,0.324-0.149,1.309,0.519,3.973c1.364,5.455,1.189,7.152,0.507,8.024
	c-0.328,0.426-0.807,0.661-1.342,0.661c-0.875,0-2.033-0.507-4.518-4.189c-1.367-2.026-2.939-4.742-4.203-7.266
	c-0.527-1.06-0.942-1.808-1.265-2.338c-0.017,0.612-0.017,1.278-0.017,1.785c0,2.908,6.61,13.349,10.509,17.248
	c5.199,5.201-1.912,20.219-3.389,23.176c-0.941,1.879-1.368,3.239-1.714,4.336c-1.148,3.664-1.983,4.527-9.875,7.159
	c-8.212,2.734-13.238,6.891-13.426,8.122c0.146,0.095,0.668,0.344,2.159,0.344C79.747,89.75,82.804,93.656,84.374,97.404z"/>
<path display="none" fill-rule="evenodd" clip-rule="evenodd" d="M73.81,138.282c0.812-1.543,1.865-3.127,2.908-4.688
	c0.967-1.454,1.883-2.824,2.449-3.962c0.772-1.543,1.207-4.802,1.44-7.892c-0.879,1.414-1.976,2.836-3.297,3.95
	C73.994,128.487,73.55,134.223,73.81,138.282z"/>
<path display="none" fill-rule="evenodd" clip-rule="evenodd" d="M50.615,125.691c-1.322-1.114-2.42-2.536-3.297-3.95
	c0.232,3.09,0.667,6.349,1.437,7.892c0.57,1.138,1.485,2.508,2.453,3.956c1.039,1.563,2.099,3.15,2.908,4.693
	C54.374,134.223,53.934,128.487,50.615,125.691z"/>
<path display="none" fill-rule="evenodd" clip-rule="evenodd" d="M44.851,103.67c0,10.588,4.951,16.174,8.228,19.871
	c1.15,1.295,2.062,2.326,2.558,3.322c1.602,3.199,2.103,13.192-0.151,15.449c-1.099,1.101-0.341,4.791,0.197,6.403l0.042,0.127
	v0.133c0,0.037,0.033,3.705,1.821,6.587l2.099,2.24c1.192,0.812,2.642,1.227,4.32,1.227c1.676,0,3.128-0.415,4.317-1.227l2.099-2.24
	c1.788-2.882,1.82-6.55,1.82-6.587v-0.133l0.04-0.127c0.636-1.914,1.258-5.35,0.198-6.403c-2.251-2.257-1.753-12.25-0.152-15.449
	c0.498-0.996,1.411-2.027,2.56-3.322c3.276-3.697,8.229-9.283,8.229-19.871c0-1.34-4.92-8.204-7.008-10.292
	c-1.082-1.084-7.728-1.57-12.103-1.57s-11.021,0.486-12.105,1.57C49.771,95.466,44.851,102.33,44.851,103.67z"/>
<path display="none" fill-rule="evenodd" clip-rule="evenodd" d="M13.386,152.028c-3.255-3.213-7.561-5.571-12.897-7.057
	c-0.393,2.35-1.007,7.759,0.327,13.566c2.127,9.273,8.098,15.562,17.764,18.731c-2.666-3.526-4.114-7.324-4.873-10.685
	C12.271,160.26,12.951,154.521,13.386,152.028z"/>
<path display="none" fill-rule="evenodd" clip-rule="evenodd" d="M17.103,139.507c-0.33,1.973-0.809,6.098-0.172,10.8
	c0.238,0.069,0.458,0.148,0.691,0.221c0.525,0.164,1.045,0.33,1.544,0.508c0.252,0.09,0.493,0.187,0.739,0.28
	c0.408,0.155,0.812,0.312,1.203,0.476c3.502,1.479,6.316,3.331,8.562,5.388c-0.504-4.687-0.01-8.654,0.328-10.615
	C26.745,143.351,22.439,140.992,17.103,139.507z"/>
<path display="none" fill-rule="evenodd" clip-rule="evenodd" d="M18.4,126.461c-0.331,1.973-0.813,6.096-0.173,10.8
	c5.531,1.612,9.658,4.06,12.736,6.876c-0.502-4.688-0.01-8.658,0.329-10.618C28.039,130.305,23.733,127.947,18.4,126.461z"/>
<path display="none" fill-rule="evenodd" clip-rule="evenodd" d="M14.392,149.642l0.112,0.022
	c-0.519-4.598-0.068-8.527,0.275-10.577c-3.265-3.266-7.603-5.661-12.995-7.161c-0.33,1.973-0.809,6.096-0.171,10.8
	C7.168,144.344,11.31,146.803,14.392,149.642z"/>
<path display="none" fill-rule="evenodd" clip-rule="evenodd" d="M39.34,146.73c1.34-1.339,2.472-4.938,3.337-8.772
	c-2.564-1.658-5.551-2.966-8.961-3.916c-0.087,0.52-0.183,1.194-0.268,1.983c-0.032,0.301-0.062,0.621-0.089,0.955
	c-0.01,0.121-0.018,0.245-0.027,0.37c-0.021,0.292-0.039,0.593-0.054,0.905c-0.005,0.11-0.011,0.217-0.015,0.329
	c-0.036,0.887-0.041,1.847-0.004,2.862c0.003,0.066,0.006,0.134,0.009,0.201c0.021,0.487,0.051,0.986,0.094,1.496
	c0.003,0.034,0.005,0.067,0.008,0.102c0.045,0.523,0.1,1.054,0.173,1.596c0.002,0.001,0.005,0.002,0.007,0.002
	c0.006,0.043,0.008,0.083,0.014,0.125c2.014,0.584,3.844,1.281,5.503,2.064C39.165,146.915,39.255,146.814,39.34,146.73z"/>
<path display="none" fill-rule="evenodd" clip-rule="evenodd" d="M32.979,161.587c0.076-0.302,0.154-0.602,0.23-0.89
	c1.309-4.895,3.122-9.109,4.559-11.672c-1.65-0.754-3.431-1.405-5.347-1.938c-0.392,2.353-1.005,7.762,0.327,13.566
	C32.82,160.971,32.898,161.282,32.979,161.587z"/>
<path display="none" fill-rule="evenodd" clip-rule="evenodd" d="M32.368,164.316c-2.385-4.052-5.904-7.201-10.493-9.458
	c-0.001-0.008-0.001-0.015-0.002-0.022c-0.102-0.05-0.213-0.092-0.316-0.142c-0.353-0.168-0.718-0.327-1.084-0.485
	c-0.438-0.189-0.883-0.372-1.338-0.547c-0.344-0.132-0.691-0.26-1.045-0.383c-0.193-0.067-0.375-0.145-0.571-0.209
	c0.009,0.012,0.017,0.023,0.025,0.035c-0.573-0.188-1.136-0.386-1.735-0.553c-0.085,0.509-0.179,1.169-0.263,1.938
	c0,0,0-0.001,0-0.001c-0.002,0.016-0.003,0.035-0.005,0.052c-0.07,0.65-0.13,1.381-0.17,2.179c-0.003,0.069-0.007,0.136-0.01,0.206
	c-0.018,0.396-0.03,0.805-0.035,1.229c0,0.039,0,0.08,0,0.12c-0.004,0.404,0,0.82,0.01,1.246c0.001,0.061,0.002,0.119,0.004,0.181
	c0.013,0.454,0.036,0.92,0.068,1.396c0.004,0.065,0.01,0.131,0.015,0.196c0.034,0.462,0.077,0.931,0.132,1.408
	c0.004,0.032,0.006,0.064,0.01,0.097c0.058,0.491,0.131,0.99,0.214,1.494c0.016,0.096,0.033,0.19,0.05,0.286
	c0.089,0.51,0.187,1.021,0.306,1.539c0.122,0.533,0.261,1.054,0.409,1.566c0.047,0.165,0.1,0.326,0.15,0.488
	c0.107,0.348,0.218,0.691,0.337,1.029c0.064,0.184,0.131,0.366,0.199,0.547c0.12,0.318,0.246,0.631,0.376,0.939
	c0.073,0.173,0.143,0.348,0.219,0.518c0.173,0.385,0.355,0.763,0.544,1.134c0.087,0.172,0.178,0.34,0.27,0.508
	c0.177,0.327,0.358,0.651,0.549,0.968c0.11,0.183,0.227,0.36,0.342,0.54c0.153,0.239,0.31,0.477,0.471,0.709
	c0.125,0.18,0.251,0.358,0.381,0.534c0.062,0.083,0.119,0.171,0.182,0.254c0-0.005,0.001-0.012,0.001-0.017
	c3.148,4.152,7.675,7.197,13.568,9.092c-0.248-0.495-0.485-1.002-0.701-1.523C30.845,177.166,31.239,170.061,32.368,164.316z"/>
</svg>
