<?xml version="1.0" encoding="utf-8"?>
<!-- Generator: Adobe Illustrator 16.0.0, SVG Export Plug-In . SVG Version: 6.00 Build 0)  -->
<!DOCTYPE svg PUBLIC "-//W3C//DTD SVG 1.1//EN" "http://www.w3.org/Graphics/SVG/1.1/DTD/svg11.dtd">
<svg version="1.1" xmlns="http://www.w3.org/2000/svg" xmlns:xlink="http://www.w3.org/1999/xlink" x="0px" y="0px" width="200px"
	 height="200px" viewBox="0 0 200 200" enable-background="new 0 0 200 200" xml:space="preserve">
<g id="Layer_1">
	<g>
		<g>
			<path d="M86.339,30.899l-5.541,5.541L58.914,14.556c-6.12-6.12-16.042-6.12-22.163,0c-6.12,6.12-6.12,16.043,0,22.163
				l21.884,21.884l-5.541,5.541l9.177,9.177l5.848-5.849l67.44,67.442c3.569,3.568,8.639,5.109,13.541,4.201l7.623,7.623
				l12.209-12.21l-7.625-7.623c0.91-4.903-0.631-9.972-4.2-13.539l-67.44-67.441l5.849-5.849L86.339,30.899z M91.953,55.598
				l-7.08,7.08l3.694,3.694l7.08-7.08l8.619,8.619l-7.079,7.08l3.693,3.694l7.079-7.08l8.62,8.619l-7.081,7.08l3.695,3.693
				l7.079-7.08l8.619,8.619l-7.08,7.081l3.693,3.693l7.08-7.081l8.62,8.619l-7.081,7.081l3.693,3.693l7.081-7.08l8.516,8.517
				c2.594,2.594,3.556,6.394,2.512,9.919l-0.44,1.489l6.061,6.061l-4.822,4.823l-6.061-6.061l-1.489,0.44
				c-3.525,1.044-7.328,0.081-9.919-2.512L71.813,63.777l14.16-14.159L91.953,55.598z"/>
		</g>
		<path d="M165.369,162.908c0,4.488-3.639,8.126-8.126,8.126c-4.488,0-8.127-3.638-8.127-8.126c0-5.417,5.418-8.126,8.127-16.252
			C159.951,154.782,165.369,157.491,165.369,162.908z"/>
	</g>
</g>
<g id="Layer_2" display="none">
	<path display="inline" d="M165.369,182.908c0,4.488-3.639,8.126-8.126,8.126c-4.488,0-8.127-3.638-8.127-8.126
		c0-5.417,5.418-8.126,8.127-16.252C159.951,174.782,165.369,177.491,165.369,182.908z"/>
</g>
</svg>
