<?xml version="1.0" encoding="utf-8"?>
<!-- Generator: Adobe Illustrator 15.1.0, SVG Export Plug-In  -->
<!DOCTYPE svg PUBLIC "-//W3C//DTD SVG 1.1//EN" "http://www.w3.org/Graphics/SVG/1.1/DTD/svg11.dtd" [
	<!ENTITY ns_flows "http://ns.adobe.com/Flows/1.0/">
]>
<svg version="1.1"
	 xmlns="http://www.w3.org/2000/svg" xmlns:xlink="http://www.w3.org/1999/xlink" xmlns:a="http://ns.adobe.com/AdobeSVGViewerExtensions/3.0/"
	 x="0px" y="0px" width="189px" height="121px" viewBox="-0.953 -0.916 189 121"
	 overflow="visible" enable-background="new -0.953 -0.916 189 121" xml:space="preserve">
<defs>
</defs>
<path d="M57.886,13.229c0-1.811-1.47-3.281-3.277-3.281c-0.506,0-0.98,0.124-1.408,0.329l-3.154-3.182H11.141v2.157h37.968
	l2.555,2.557c-0.208,0.431-0.335,0.909-0.335,1.42c0,1.429,0.922,2.633,2.2,3.082v25.203h2.158V16.31
	C56.963,15.861,57.886,14.658,57.886,13.229z"/>
<rect x="11.141" width="31.222" height="3.279"/>
<path d="M136.992,117.802H99.025l-2.557-2.556c0.208-0.432,0.335-0.909,0.335-1.42c0-1.429-0.921-2.634-2.198-3.082V62.372h-2.159
	v48.372c-1.277,0.448-2.198,1.653-2.198,3.082c0,1.812,1.467,3.28,3.278,3.28c0.511,0,0.988-0.127,1.419-0.335l3.191,3.192
	l0.003-0.004h38.853V117.802z"/>
<rect x="105.772" y="110.775" width="31.22" height="3.279"/>
<path d="M154.913,49.939c0-1.808-1.467-3.277-3.279-3.277c-0.505,0-0.977,0.124-1.403,0.327l-3.152-3.181h-38.91v2.158h37.97
	l2.554,2.555c-0.209,0.431-0.336,0.908-0.336,1.418c0,1.429,0.922,2.633,2.199,3.082v24.405h2.159V53.021
	C153.992,52.573,154.913,51.369,154.913,49.939z"/>
<rect x="108.168" y="36.714" width="31.223" height="3.279"/>
<path fill="none" stroke="#E11C44" stroke-width="12" stroke-miterlimit="10" d="M182.187,38.993
	c-22.684,45.463-52.443,56.876-92.469,22.035c-46.378-40.372-72.937-14.272-85.011,1"/>
<path display="none" fill="none" stroke="#E11C44" stroke-width="12" stroke-miterlimit="10" d="M182.187,81.418
	c-22.684-45.464-52.443-56.877-92.469-22.035c-46.378,40.372-72.937,14.272-85.011-1"/>
<path display="none" d="M57.886,51.229c0-1.811-1.47-3.281-3.277-3.281c-0.506,0-0.98,0.124-1.408,0.329l-3.154-3.182H11.141v2.157
	h37.968l2.556,2.557c-0.208,0.432-0.335,0.909-0.335,1.42c0,1.429,0.922,2.633,2.2,3.081v25.204h2.158V54.31
	C56.963,53.861,57.886,52.657,57.886,51.229z"/>
<rect x="11.141" y="38" display="none" width="31.222" height="3.279"/>
<path display="none" d="M136.992,117.802H99.025l-2.557-2.556c0.208-0.432,0.335-0.909,0.335-1.42c0-1.429-0.921-2.634-2.198-3.082
	V62.372h-2.159v48.372c-1.277,0.448-2.198,1.653-2.198,3.082c0,1.812,1.467,3.28,3.278,3.28c0.511,0,0.988-0.127,1.419-0.335
	l3.191,3.192l0.003-0.004h38.853V117.802z"/>
<rect x="105.772" y="110.775" display="none" width="31.22" height="3.279"/>
<path display="none" d="M154.913,16.939c0-1.808-1.467-3.277-3.279-3.277c-0.505,0-0.977,0.124-1.403,0.327l-3.152-3.181h-38.91
	v2.158h37.97l2.554,2.555c-0.209,0.431-0.336,0.908-0.336,1.418c0,1.429,0.922,2.633,2.199,3.082v24.405h2.159V20.021
	C153.992,19.573,154.913,18.369,154.913,16.939z"/>
<rect x="108.168" y="3.714" display="none" width="31.223" height="3.279"/>
</svg>
