<?xml version="1.0" encoding="utf-8"?>
<!-- Generator: Adobe Illustrator 15.1.0, SVG Export Plug-In  -->
<!DOCTYPE svg PUBLIC "-//W3C//DTD SVG 1.1//EN" "http://www.w3.org/Graphics/SVG/1.1/DTD/svg11.dtd" [
	<!ENTITY ns_flows "http://ns.adobe.com/Flows/1.0/">
]>
<svg version="1.1"
	 xmlns="http://www.w3.org/2000/svg" xmlns:xlink="http://www.w3.org/1999/xlink" xmlns:a="http://ns.adobe.com/AdobeSVGViewerExtensions/3.0/"
	 x="0px" y="0px" width="194px" height="171px" viewBox="-0.468 -0.154 194 171"
	 overflow="visible" enable-background="new -0.468 -0.154 194 171" xml:space="preserve">
<defs>
</defs>
<path fill="#010101" d="M180.475,45.208c-15.573-17.406-26.902-14.23-47.18-6.413c-20.277,7.817-14.199-31.606-12.825-35.729
	s-12.471-4.056-13.284,0c-2.209,11.01-7.787,36.645,16.948,54.509c2.748,20.613,5.496,27.483,2.748,30.69
	c-2.748,3.206-10.188,17.864-10.362,21.987c-0.173,4.122-22.835,15.983-26.282,14.657c-3.968-1.526-17.711-10.993-38.019-5.497
	c-5.955-11.909-19.239-14.657-25.193-10.535C21.071,113.001,1.374,136.362,0,155.601c3.665,6.184,15.116,5.954,16.948,0
	c1.832-5.955,9.619-29.545,21.529-26.567c0.647,2.52,5.955,8.703,16.032,6.87c5.039,5.039,34.812,38.936,62.296,33.438
	c27.483-5.496,57.716-17.864,68.709-47.18C196.507,92.846,196.049,62.614,180.475,45.208z M28.16,111.212
	c-9.514,8.694-18.239,25.551-26.174,40.571C7.623,130.949,22.505,116.216,28.16,111.212c0.612-0.56,1.228-1.084,1.847-1.573
	c0.246-0.2,0.378-0.302,0.378-0.302c-0.126,0.097-0.252,0.202-0.378,0.302C29.634,109.941,28.997,110.471,28.16,111.212z
	 M92.069,131.171c-7.481-4.275-20.481-9.036-35.575-7.94c16.49-4.58,29.315,3.359,34.507,5.191
	c5.191,1.833,26.262-9.161,27.789-15.573c1.527-6.413,8.855-18.018,8.855-18.018s-4.428,12.215-7.023,19.85
	C118.579,120.691,99.552,135.445,92.069,131.171z M141.082,40.627c0,0,16.013-7.427,27.025,0
	c13.132,8.856,20.612,20.155,21.07,32.064C189.636,84.602,185.972,41.085,141.082,40.627z"/>
<path display="none" fill="#010101" d="M180.22,42.403c-15.574-17.406-25.882-12.7-46.159-4.882
	c-20.278,7.817-13.945-30.331-12.571-34.454s-12.47-4.056-13.283,0c-2.209,11.01-7.787,36.645,16.948,54.509
	c2.748,20.613,0.141,24.423-2.607,27.629c-2.748,3.207-10.189,17.864-10.362,21.987c-0.173,4.122-15.95,22.614-19.396,21.288
	c-3.968-1.526-17.967-17.369-38.274-11.872c-5.955-11.91-20.513-11.853-26.468-7.73c-5.955,4.123-25.651,27.484-27.025,46.723
	c3.665,6.184,15.116,5.954,16.948,0c1.832-5.955,11.404-31.841,23.314-28.863c0.647,2.52,5.955,8.703,16.032,6.871
	c5.039,5.039,33.028,41.23,60.511,35.733c27.483-5.496,54.654-16.844,65.648-46.159C194.467,93.866,195.794,59.809,180.22,42.403z
	 M29.18,111.212c-9.514,8.694-18.239,25.551-26.174,40.571C8.643,130.949,23.525,116.216,29.18,111.212
	c0.612-0.56,1.228-1.084,1.847-1.573c0.246-0.2,0.378-0.302,0.378-0.302c-0.126,0.097-0.252,0.202-0.378,0.302
	C30.654,109.941,30.017,110.471,29.18,111.212z M94.62,134.741c-7.481-4.275-20.737-15.411-35.831-14.315
	c16.49-4.581,29.571,9.734,34.763,11.566c5.191,1.833,19.376-15.791,20.902-22.204c1.527-6.413,8.856-18.017,8.856-18.017
	s-4.428,12.214-7.023,19.849C114.243,117.631,102.102,139.016,94.62,134.741z M140.827,37.822c0,0,16.012-7.427,27.025,0
	c13.131,8.856,20.612,20.155,21.07,32.064C189.381,81.796,185.717,38.28,140.827,37.822z"/>
</svg>
