<?xml version="1.0" encoding="utf-8"?>
<!-- Generator: Adobe Illustrator 15.1.0, SVG Export Plug-In  -->
<!DOCTYPE svg PUBLIC "-//W3C//DTD SVG 1.1//EN" "http://www.w3.org/Graphics/SVG/1.1/DTD/svg11.dtd" [
	<!ENTITY ns_flows "http://ns.adobe.com/Flows/1.0/">
]>
<svg version="1.1"
	 xmlns="http://www.w3.org/2000/svg" xmlns:xlink="http://www.w3.org/1999/xlink" xmlns:a="http://ns.adobe.com/AdobeSVGViewerExtensions/3.0/"
	 x="0px" y="0px" width="188px" height="160px" viewBox="-0.5 -0.66 188 160"
	 overflow="visible" enable-background="new -0.5 -0.66 188 160" xml:space="preserve">
<defs>
</defs>
<path fill="#231F20" d="M165.753,76.004h0.23C165.984,29.123,138.119,0,93.26,0C48.402,0,20.535,29.123,20.535,76.004h0.231
	c-22.878,0-20.711,18.546-20.711,41.425c0,22.877-2.167,41.424,20.711,41.424v0.002h20.713V76.004h0.12
	c0-35.428,18.346-54.94,51.66-54.94c33.313,0,51.661,19.512,51.661,54.94h0.12v82.849h20.713v0.002
	c22.879,0,20.711-18.549,20.711-41.426C186.464,94.551,188.632,76.004,165.753,76.004z"/>
<path fill="none" stroke="#231F20" stroke-width="12" stroke-miterlimit="10" d="M168.259,117.392
	c0-8.284-0.377-14.999-0.843-14.999c-0.465,0-0.843,6.715-0.843,14.999s-0.377,14.999-0.842,14.999
	c-0.466,0-0.843-6.715-0.843-14.999s-0.378-14.999-0.843-14.999c-0.466,0-0.843,6.715-0.843,14.999s-0.377,14.999-0.843,14.999
	c-0.465,0-0.842-6.715-0.842-14.999s-0.378-14.999-0.843-14.999c-0.466,0-0.843,6.715-0.843,14.999"/>
<path display="none" fill="none" stroke="#231F20" stroke-width="12" stroke-miterlimit="10" d="M27.833,117.392
	c0-8.284-0.429-14.999-0.958-14.999c-0.528,0-0.957,6.715-0.957,14.999s-0.429,14.999-0.958,14.999s-0.958-6.715-0.957-14.999
	c0-8.284-0.429-14.999-0.958-14.999s-0.958,6.715-0.958,14.999s-0.428,14.999-0.957,14.999s-0.958-6.715-0.958-14.999
	s-0.429-14.999-0.957-14.999c-0.529,0-0.958,6.715-0.958,14.999"/>
<path display="none" fill="none" stroke="#231F20" stroke-width="12" stroke-miterlimit="10" d="M168.259,117.392
	c0-8.284-6.716-14.999-15-14.999s-15.001,6.715-15.001,14.999s-6.715,14.999-14.999,14.999s-15.001-6.715-15-14.999
	c0-8.284-6.716-14.999-15-14.999s-15.001,6.715-15.001,14.999s-6.715,14.999-14.999,14.999c-8.285,0-15-6.715-15-14.999
	c0-8.284-6.715-14.999-15-14.999s-15,6.715-15,14.999"/>
</svg>
