<?xml version="1.0" encoding="utf-8"?>
<!-- Generator: Adobe Illustrator 15.1.0, SVG Export Plug-In  -->
<!DOCTYPE svg PUBLIC "-//W3C//DTD SVG 1.1//EN" "http://www.w3.org/Graphics/SVG/1.1/DTD/svg11.dtd" [
	<!ENTITY ns_flows "http://ns.adobe.com/Flows/1.0/">
]>
<svg version="1.1"
	 xmlns="http://www.w3.org/2000/svg" xmlns:xlink="http://www.w3.org/1999/xlink" xmlns:a="http://ns.adobe.com/AdobeSVGViewerExtensions/3.0/"
	 x="0px" y="0px" width="174px" height="180px" viewBox="-0.25 -0.269 174 180"
	 overflow="visible" enable-background="new -0.25 -0.269 174 180" xml:space="preserve">
<defs>
</defs>
<path d="M105.667,141.296H67.586c-2.337,0-4.231-1.897-4.231-4.234c0-5.522-3.513-8.486-4.591-9.263
	c-13.018-9.378-20.798-28.477-20.798-41.511c0-26.832,21.83-48.661,48.661-48.661c26.833,0,48.66,21.83,48.66,48.661
	c0,13.035-7.775,32.133-20.797,41.511c-1.078,0.776-4.59,3.74-4.59,9.263C109.9,139.399,108.004,141.296,105.667,141.296z
	 M71.388,132.834h30.479c1.439-6.879,6.077-10.745,7.676-11.896c10.339-7.45,17.283-23.935,17.283-34.651
	c0-22.167-18.033-40.199-40.198-40.199c-22.166,0-40.198,18.033-40.198,40.199c0,10.716,6.944,27.195,17.284,34.651
	C65.312,122.089,69.951,125.956,71.388,132.834z"/>
<path d="M54.891,91.427c-2.337,0-4.231-1.897-4.231-4.232c0-19.833,16.135-35.968,35.967-35.968c2.337,0,4.229,1.894,4.229,4.231
	s-1.893,4.231-4.229,4.231c-15.166,0-27.503,12.341-27.503,27.506C59.124,89.53,57.229,91.427,54.891,91.427z"/>
<path d="M105.667,153.993H67.586c-2.337,0-4.231-1.897-4.231-4.234s1.894-4.229,4.231-4.229h38.081c2.337,0,4.233,1.892,4.233,4.229
	S108.004,153.993,105.667,153.993z"/>
<path d="M105.667,166.682H67.586c-2.337,0-4.231-1.891-4.231-4.228s1.894-4.234,4.231-4.234h38.081c2.337,0,4.233,1.897,4.233,4.234
	S108.004,166.682,105.667,166.682z"/>
<path d="M99.321,179.378H73.933c-2.337,0-4.231-1.897-4.231-4.228c0-2.337,1.895-4.234,4.231-4.234h25.389
	c2.337,0,4.231,1.897,4.231,4.234C103.553,177.481,101.658,179.378,99.321,179.378z"/>
<path fill="#F15A29" d="M62.722,54.892c3.021-2.422,6.412-4.4,10.08-5.829l-3.899-10.712c-4.927,1.891-9.472,4.548-13.502,7.816
	L62.722,54.892z"/>
<path fill="#F15A29" d="M49.064,77.347c0.776-3.89,2.139-7.567,3.992-10.938l-9.871-5.699c-2.505,4.504-4.331,9.436-5.342,14.659
	L49.064,77.347z"/>
<path fill="#F15A29" d="M53.048,103.331c-1.852-3.373-3.213-7.052-3.985-10.944l-11.219,1.978
	c1.009,5.225,2.841,10.154,5.344,14.659L53.048,103.331z"/>
<path fill="#F15A29" d="M54.079,122.464l7.322-8.728c-2.923-2.569-5.455-5.574-7.489-8.915l-9.866,5.695
	C46.75,115.01,50.144,119.041,54.079,122.464z"/>
<path fill="#F15A29" d="M69.734,119.321c-2.504-1.24-4.857-2.74-7.016-4.474l-7.322,8.727c2.918,2.367,6.115,4.402,9.524,6.068
	L69.734,119.321z"/>
<path fill="#F15A29" d="M110.777,54.892c-3.021-2.422-6.412-4.4-10.08-5.829l3.9-10.712c4.927,1.891,9.471,4.548,13.501,7.816
	L110.777,54.892z"/>
<path fill="#F15A29" d="M124.436,77.347c-0.775-3.89-2.139-7.567-3.993-10.938l9.872-5.699c2.505,4.504,4.332,9.436,5.343,14.659
	L124.436,77.347z"/>
<path fill="#F15A29" d="M120.453,103.331c1.851-3.373,3.212-7.052,3.984-10.944l11.22,1.978c-1.01,5.225-2.843,10.154-5.345,14.659
	L120.453,103.331z"/>
<path fill="#F15A29" d="M119.421,122.464l-7.322-8.728c2.923-2.569,5.456-5.574,7.49-8.915l9.865,5.695
	C126.75,115.01,123.356,119.041,119.421,122.464z"/>
<path fill="#F15A29" d="M103.767,119.321c2.504-1.24,4.856-2.74,7.016-4.474l7.32,8.727c-2.917,2.367-6.114,4.402-9.523,6.068
	L103.767,119.321z"/>
<path fill="#F15A29" d="M124.739,90.69c0.288-1.899,0.438-3.844,0.438-5.824c0-1.98-0.153-3.924-0.444-5.823l11.219-1.978
	c0.401,2.542,0.612,5.146,0.612,7.801s-0.21,5.259-0.609,7.801L124.739,90.69z"/>
<path fill="#F15A29" d="M119.582,64.917c-2.035-3.339-4.562-6.348-7.487-8.916l7.323-8.727c3.937,3.423,7.33,7.452,10.036,11.943
	L119.582,64.917z"/>
<path fill="#F15A29" d="M99.078,48.477c-3.612-1.222-7.463-1.928-11.467-2.017V35.063c5.374,0.091,10.533,1.045,15.363,2.708
	L99.078,48.477z"/>
<path fill="#F15A29" d="M48.761,90.69c-0.289-1.899-0.439-3.844-0.439-5.824c0-1.98,0.155-3.924,0.445-5.823l-11.22-1.978
	c-0.401,2.542-0.612,5.146-0.612,7.801s0.21,5.259,0.61,7.801L48.761,90.69z"/>
<path fill="#F15A29" d="M53.917,64.917c2.037-3.339,4.563-6.348,7.488-8.916l-7.323-8.727c-3.937,3.423-7.331,7.452-10.036,11.943
	L53.917,64.917z"/>
<path fill="#F15A29" d="M74.422,48.477c3.612-1.222,7.463-1.928,11.467-2.017V35.063c-5.373,0.091-10.533,1.045-15.363,2.708
	L74.422,48.477z"/>
<path fill="#BE1E2D" d="M74.044,47.708c3.66-1.217,7.552-1.925,11.594-2.035v-7.759c-4.974,0.114-9.758,0.989-14.247,2.504
	L74.044,47.708z"/>
<path fill="#BE1E2D" d="M52.5,64.809c2.076-3.363,4.623-6.404,7.566-9.015l-4.987-5.944c-3.631,3.193-6.769,6.93-9.302,11.077
	L52.5,64.809z"/>
<path fill="#BE1E2D" d="M47.357,77.792c0.805-3.924,2.171-7.643,4.027-11.061l-6.718-3.879c-2.3,4.189-3.993,8.759-4.96,13.59
	L47.357,77.792z"/>
<path fill="#BE1E2D" d="M46.962,91.753c-0.282-1.922-0.433-3.887-0.433-5.887c0-2.002,0.163-3.963,0.447-5.885l-7.655-1.35
	c-0.359,2.359-0.55,4.774-0.55,7.235c0,2.459,0.187,4.875,0.543,7.235L46.962,91.753z"/>
<path fill="#BE1E2D" d="M51.373,105.007c-1.854-3.42-3.231-7.136-4.032-11.064l-7.64,1.347c0.963,4.834,2.654,9.406,4.95,13.598
	L51.373,105.007z"/>
<path fill="#BE1E2D" d="M55.074,121.888l4.987-5.943c-2.941-2.612-5.5-5.646-7.574-9.013l-6.719,3.88
	C48.298,114.961,51.445,118.693,55.074,121.888z"/>
<path fill="#BE1E2D" d="M68.75,121.838c-2.488-1.248-4.829-2.745-6.989-4.462l-4.988,5.944c2.678,2.148,5.595,4.008,8.699,5.548
	L68.75,121.838z"/>
<path fill="#BE1E2D" d="M61.765,54.361c3.066-2.432,6.494-4.428,10.192-5.891l-2.655-7.293c-4.555,1.778-8.769,4.235-12.523,7.242
	L61.765,54.361z"/>
<path fill="#BE1E2D" d="M99.455,47.708c-3.66-1.217-7.552-1.925-11.594-2.035v-7.759c4.974,0.114,9.758,0.989,14.247,2.504
	L99.455,47.708z"/>
<path fill="#BE1E2D" d="M121,64.809c-2.075-3.363-4.623-6.404-7.565-9.015l4.987-5.944c3.631,3.193,6.769,6.93,9.302,11.077
	L121,64.809z"/>
<path fill="#BE1E2D" d="M126.144,77.792c-0.805-3.924-2.171-7.643-4.027-11.061l6.719-3.879c2.3,4.189,3.992,8.759,4.96,13.59
	L126.144,77.792z"/>
<path fill="#BE1E2D" d="M126.538,91.753c0.281-1.922,0.433-3.887,0.433-5.887c0-2.002-0.163-3.963-0.447-5.885l7.656-1.35
	c0.359,2.359,0.55,4.774,0.55,7.235c0,2.459-0.187,4.875-0.544,7.235L126.538,91.753z"/>
<path fill="#BE1E2D" d="M122.127,105.007c1.854-3.42,3.231-7.136,4.032-11.064l7.64,1.347c-0.964,4.834-2.654,9.406-4.951,13.598
	L122.127,105.007z"/>
<path fill="#BE1E2D" d="M118.427,121.888l-4.987-5.943c2.941-2.612,5.5-5.646,7.574-9.013l6.719,3.88
	C125.201,114.961,122.056,118.693,118.427,121.888z"/>
<path fill="#BE1E2D" d="M104.75,121.838c2.488-1.248,4.829-2.745,6.989-4.462l4.988,5.944c-2.679,2.148-5.596,4.008-8.699,5.548
	L104.75,121.838z"/>
<path fill="#BE1E2D" d="M111.735,54.361c-3.065-2.432-6.493-4.428-10.191-5.891l2.654-7.293c4.555,1.778,8.769,4.235,12.523,7.242
	L111.735,54.361z"/>
<path fill="#662D91" d="M44.907,34.532c5.26-4.218,11.166-7.663,17.553-10.151L55.67,5.726c-8.58,3.293-16.495,7.921-23.513,13.611
	L44.907,34.532z"/>
<path fill="#662D91" d="M21.122,73.636c1.352-6.774,3.726-13.178,6.953-19.048l-17.19-9.925c-4.362,7.843-7.543,16.432-9.303,25.528
	L21.122,73.636z"/>
<path fill="#662D91" d="M28.059,118.885c-3.224-5.874-5.595-12.281-6.94-19.06l-19.537,3.445c1.757,9.099,4.948,17.682,9.307,25.527
	L28.059,118.885z"/>
<path fill="#662D91" d="M29.854,152.205l12.752-15.197c-5.09-4.476-9.5-9.707-13.043-15.526l-17.18,9.919
	C17.092,139.224,23.002,146.243,29.854,152.205z"/>
<path fill="#662D91" d="M57.117,146.731c-4.361-2.159-8.458-4.771-12.217-7.79l-12.75,15.195
	c5.082,4.123,10.648,7.667,16.586,10.568L57.117,146.731z"/>
<path fill="#662D91" d="M128.593,34.532c-5.26-4.218-11.166-7.663-17.554-10.151l6.791-18.655
	c8.58,3.293,16.494,7.921,23.512,13.611L128.593,34.532z"/>
<path fill="#662D91" d="M152.378,73.636c-1.352-6.774-3.726-13.178-6.953-19.048l17.19-9.925c4.362,7.843,7.543,16.432,9.303,25.528
	L152.378,73.636z"/>
<path fill="#662D91" d="M145.441,118.885c3.224-5.874,5.595-12.281,6.939-19.06l19.537,3.445
	c-1.757,9.099-4.948,17.682-9.307,25.527L145.441,118.885z"/>
<path fill="#662D91" d="M143.646,152.205l-12.752-15.197c5.09-4.476,9.5-9.707,13.043-15.526l17.181,9.919
	C156.408,139.224,150.498,146.243,143.646,152.205z"/>
<path fill="#662D91" d="M116.383,146.731c4.361-2.159,8.458-4.771,12.217-7.79l12.75,15.195
	c-5.082,4.123-10.648,7.667-16.586,10.568L116.383,146.731z"/>
<path fill="#662D91" d="M152.906,96.873c0.503-3.308,0.765-6.694,0.765-10.142c0-3.449-0.269-6.834-0.774-10.14l19.537-3.445
	c0.698,4.426,1.066,8.962,1.066,13.585s-0.365,9.159-1.062,13.586L152.906,96.873z"/>
<path fill="#662D91" d="M143.927,51.989c-3.546-5.815-7.945-11.054-13.039-15.525l12.752-15.198
	c6.854,5.96,12.766,12.977,17.478,20.798L143.927,51.989z"/>
<path fill="#662D91" d="M108.219,23.36c-6.291-2.129-12.996-3.358-19.969-3.512V0c9.357,0.159,18.344,1.82,26.754,4.716
	L108.219,23.36z"/>
<path fill="#662D91" d="M20.594,96.873c-0.503-3.308-0.765-6.694-0.765-10.142c0-3.449,0.269-6.834,0.775-10.14L1.066,73.146
	C0.368,77.572,0,82.108,0,86.731s0.365,9.159,1.062,13.586L20.594,96.873z"/>
<path fill="#662D91" d="M29.573,51.989c3.546-5.815,7.945-11.054,13.039-15.525L29.86,21.266
	c-6.855,5.96-12.766,12.977-17.478,20.798L29.573,51.989z"/>
<path fill="#662D91" d="M65.281,23.36c6.291-2.129,12.996-3.358,19.969-3.512V0c-9.357,0.159-18.343,1.82-26.754,4.716L65.281,23.36
	z"/>
<path fill="#FFF200" d="M69.604,35.235c4.939-1.643,10.192-2.597,15.646-2.746V22.019c-6.712,0.153-13.168,1.334-19.227,3.379
	L69.604,35.235z"/>
<path fill="#FFF200" d="M40.528,58.313c2.801-4.539,6.239-8.643,10.21-12.166l-6.73-8.021c-4.9,4.309-9.134,9.353-12.553,14.949
	L40.528,58.313z"/>
<path fill="#FFF200" d="M33.588,75.834c1.086-5.296,2.93-10.314,5.435-14.926l-9.067-5.235c-3.104,5.654-5.388,11.82-6.694,18.34
	L33.588,75.834z"/>
<path fill="#FFF200" d="M33.055,94.675c-0.38-2.594-0.584-5.245-0.584-7.944c0-2.701,0.221-5.348,0.604-7.941l-10.332-1.822
	C22.258,80.152,22,83.411,22,86.731c0,3.319,0.252,6.58,0.734,9.765L33.055,94.675z"/>
<path fill="#FFF200" d="M39.008,112.563c-2.502-4.615-4.361-9.631-5.441-14.932l-10.31,1.818c1.3,6.523,3.581,12.693,6.681,18.351
	L39.008,112.563z"/>
<path fill="#FFF200" d="M44.002,135.344l6.73-8.021c-3.969-3.526-7.422-7.621-10.221-12.163l-9.067,5.235
	C34.858,125.996,39.104,131.032,44.002,135.344z"/>
<path fill="#FFF200" d="M62.458,135.277c-3.357-1.685-6.517-3.705-9.432-6.021l-6.731,8.022c3.614,2.898,7.551,5.408,11.739,7.486
	L62.458,135.277z"/>
<path fill="#FFF200" d="M53.032,44.214c4.137-3.282,8.764-5.976,13.754-7.95l-3.583-9.843c-6.147,2.4-11.833,5.716-16.901,9.773
	L53.032,44.214z"/>
<path fill="#FFF200" d="M103.896,35.235c-4.939-1.643-10.191-2.597-15.646-2.746V22.019c6.712,0.153,13.168,1.334,19.227,3.379
	L103.896,35.235z"/>
<path fill="#FFF200" d="M132.972,58.313c-2.801-4.539-6.239-8.643-10.21-12.166l6.73-8.021c4.9,4.309,9.135,9.353,12.553,14.949
	L132.972,58.313z"/>
<path fill="#FFF200" d="M139.912,75.834c-1.086-5.296-2.93-10.314-5.435-14.926l9.067-5.235c3.104,5.654,5.388,11.82,6.693,18.34
	L139.912,75.834z"/>
<path fill="#FFF200" d="M140.445,94.675c0.38-2.594,0.584-5.245,0.584-7.944c0-2.701-0.221-5.348-0.604-7.941l10.332-1.822
	c0.484,3.184,0.742,6.443,0.742,9.763c0,3.319-0.252,6.58-0.734,9.765L140.445,94.675z"/>
<path fill="#FFF200" d="M134.492,112.563c2.502-4.615,4.361-9.631,5.441-14.932l10.311,1.818
	c-1.301,6.523-3.582,12.693-6.682,18.351L134.492,112.563z"/>
<path fill="#FFF200" d="M129.498,135.344l-6.73-8.021c3.97-3.526,7.423-7.621,10.222-12.163l9.067,5.235
	C138.642,125.996,134.396,131.032,129.498,135.344z"/>
<path fill="#FFF200" d="M111.042,135.277c3.357-1.685,6.517-3.705,9.432-6.021l6.731,8.022c-3.614,2.898-7.551,5.408-11.739,7.486
	L111.042,135.277z"/>
<path fill="#FFF200" d="M120.469,44.214c-4.138-3.282-8.764-5.976-13.754-7.95l3.582-9.843c6.146,2.4,11.834,5.716,16.9,9.773
	L120.469,44.214z"/>
</svg>
