<?xml version="1.0" encoding="utf-8"?>
<!-- Generator: Adobe Illustrator 15.1.0, SVG Export Plug-In  -->
<!DOCTYPE svg PUBLIC "-//W3C//DTD SVG 1.1//EN" "http://www.w3.org/Graphics/SVG/1.1/DTD/svg11.dtd" [
	<!ENTITY ns_flows "http://ns.adobe.com/Flows/1.0/">
]>
<svg version="1.1"
	 xmlns="http://www.w3.org/2000/svg" xmlns:xlink="http://www.w3.org/1999/xlink" xmlns:a="http://ns.adobe.com/AdobeSVGViewerExtensions/3.0/"
	 x="0px" y="0px" width="196px" height="197px" viewBox="-0.183 -0.683 196 197"
	 overflow="visible" enable-background="new -0.183 -0.683 196 197" xml:space="preserve">
<defs>
</defs>
<path fill="#231F20" d="M94.09,90.875c4.938,0.173,8.801,4.316,8.627,9.254s-4.316,8.802-9.255,8.627
	c-4.938-0.172-13.067-0.457-39.576-10.34C81.023,90.417,89.152,90.702,94.09,90.875z"/>
<path fill="#231F20" d="M42.71,101.213H29.102c-2.251,0-4.076-1.825-4.076-4.076c0-2.251,1.824-4.076,4.076-4.076H42.71
	c2.25,0,4.076,1.825,4.076,4.076C46.786,99.388,44.96,101.213,42.71,101.213z"/>
<path fill="#231F20" d="M165.173,101.213h-13.608c-2.25,0-4.075-1.825-4.075-4.076c0-2.251,1.825-4.076,4.075-4.076h13.608
	c2.252,0,4.076,1.825,4.076,4.076C169.25,99.388,167.425,101.213,165.173,101.213z"/>
<path fill="#231F20" d="M97.138,46.784c-2.25,0-4.076-1.825-4.076-4.076V29.102c0-2.25,1.826-4.076,4.076-4.076
	c2.25,0,4.076,1.825,4.076,4.076v13.607C101.213,44.959,99.388,46.784,97.138,46.784z"/>
<path fill="#231F20" d="M49.029,149.322c-1.043,0-2.087-0.398-2.882-1.194c-1.592-1.591-1.592-4.172,0-5.763l9.622-9.622
	c1.591-1.592,4.172-1.592,5.763,0c1.592,1.591,1.592,4.173,0,5.764l-9.622,9.621C51.116,148.923,50.072,149.322,49.029,149.322z"/>
<path fill="#231F20" d="M58.65,62.726c-1.042,0-2.087-0.398-2.881-1.194l-9.622-9.622c-1.592-1.591-1.592-4.172,0-5.763
	c1.591-1.592,4.173-1.592,5.763,0l9.622,9.622c1.592,1.591,1.592,4.172,0,5.763C60.737,62.328,59.693,62.726,58.65,62.726z"/>
<path fill="#231F20" d="M145.246,149.322c-1.042,0-2.087-0.398-2.881-1.194l-9.622-9.621c-1.592-1.591-1.592-4.173,0-5.764
	c1.591-1.592,4.173-1.592,5.764,0l9.621,9.622c1.593,1.591,1.593,4.172,0,5.763C147.333,148.923,146.289,149.322,145.246,149.322z"
	/>
<path fill="#231F20" d="M135.625,62.726c-1.043,0-2.087-0.398-2.882-1.194c-1.592-1.591-1.592-4.172,0-5.763l9.622-9.622
	c1.591-1.592,4.172-1.592,5.763,0c1.593,1.591,1.593,4.172,0,5.763l-9.621,9.622C137.711,62.328,136.667,62.726,135.625,62.726z"/>
<path fill="#231F20" d="M46.778,80.563c-0.515,0-1.04-0.099-1.546-0.307l-12.589-5.164c-2.083-0.854-3.078-3.234-2.223-5.317
	c0.854-2.083,3.234-3.077,5.317-2.224l12.589,5.164c2.082,0.854,3.078,3.235,2.224,5.317C49.903,79.609,48.382,80.563,46.778,80.563
	z"/>
<path fill="#231F20" d="M160.084,127.03c-0.517,0-1.039-0.1-1.546-0.307l-12.59-5.163c-2.081-0.854-3.077-3.234-2.223-5.317
	c0.853-2.083,3.232-3.077,5.317-2.224l12.589,5.163c2.083,0.854,3.078,3.235,2.224,5.318
	C163.209,126.077,161.688,127.03,160.084,127.03z"/>
<path fill="#231F20" d="M117.787,50.856c-0.515,0-1.039-0.099-1.544-0.306c-2.083-0.854-3.078-3.235-2.224-5.318l5.163-12.589
	c0.854-2.083,3.235-3.077,5.318-2.223c2.082,0.854,3.077,3.234,2.223,5.317l-5.163,12.589
	C120.913,49.902,119.392,50.856,117.787,50.856z"/>
<path fill="#231F20" d="M34.375,127.47c-1.595,0-3.11-0.94-3.763-2.503c-0.868-2.078,0.111-4.466,2.187-5.334l12.554-5.25
	c2.08-0.866,4.464,0.11,5.333,2.188c0.868,2.076-0.111,4.463-2.188,5.332l-12.552,5.25C35.432,127.369,34.898,127.47,34.375,127.47z
	"/>
<path fill="#231F20" d="M76.133,51.003c-1.595,0-3.107-0.941-3.761-2.504l-5.25-12.553c-0.87-2.077,0.11-4.464,2.187-5.333
	c2.081-0.869,4.464,0.11,5.333,2.187l5.25,12.553c0.869,2.077-0.11,4.464-2.188,5.333C77.19,50.9,76.658,51.003,76.133,51.003z"/>
<path fill="#231F20" d="M147.351,80.208c-1.595,0-3.108-0.941-3.762-2.504c-0.868-2.077,0.111-4.465,2.188-5.333l12.552-5.25
	c2.081-0.868,4.466,0.111,5.334,2.188c0.867,2.077-0.111,4.464-2.187,5.333l-12.554,5.25
	C148.408,80.106,147.875,80.208,147.351,80.208z"/>
<path fill="#231F20" d="M97.817,195.633C43.88,195.633,0,151.753,0,97.817S43.88,0,97.817,0s97.816,43.88,97.816,97.817
	S151.753,195.633,97.817,195.633z M97.817,16.303c-44.947,0-81.514,36.567-81.514,81.514c0,44.947,36.567,81.514,81.514,81.514
	c44.947,0,81.514-36.566,81.514-81.514C179.331,52.87,142.764,16.303,97.817,16.303z"/>
<path display="none" fill="#231F20" d="M101.077,106.375c-3.613,3.369-9.275,3.171-12.644-0.443
	c-3.369-3.614-3.172-9.276,0.444-12.645c3.613-3.37,9.562-8.917,35.296-20.674C110.641,97.459,104.692,103.006,101.077,106.375z"/>
</svg>
