<?xml version="1.0" encoding="utf-8"?>
<!-- Generator: Adobe Illustrator 15.1.0, SVG Export Plug-In  -->
<!DOCTYPE svg PUBLIC "-//W3C//DTD SVG 1.1//EN" "http://www.w3.org/Graphics/SVG/1.1/DTD/svg11.dtd" [
	<!ENTITY ns_flows "http://ns.adobe.com/Flows/1.0/">
]>
<svg version="1.1"
	 xmlns="http://www.w3.org/2000/svg" xmlns:xlink="http://www.w3.org/1999/xlink" xmlns:a="http://ns.adobe.com/AdobeSVGViewerExtensions/3.0/"
	 x="0px" y="0px" width="173px" height="193px" viewBox="13.757 -1 173 193"
	 overflow="visible" enable-background="new 13.757 -1 173 193" xml:space="preserve">
<defs>
</defs>
<path display="none" d="M160.495,83.083c-5.896-13.385-9.525-14.291-10.206-14.746c-5.896-3.932,4.536-10.208-11.569-3.855
	c-16.105,6.35-36.522,21.55-49,41.059c-11.764,18.395-16.362,38.193-15.143,55.067c0,0-4.969,9.997-26.748,12.269
	c-21.778,2.268-57.054,14.264-45.596,11.796c32.666-7.033,38.791-5.676,52.628-6.804c14.669-1.204,23.738-3.586,23.738-3.586
	c1.852,1.061,4.587,2.302,8.625,3.623c3.784,1.238,10.115,2.231,13.348,4.952c2.482,2.091,19.774,10.586,22.664,7.521
	c7.656-6.804-13.157-8.165-14.291-10.206c-0.275-0.496-0.281-1.051-0.138-1.643c7.444,0.625,19.449,1.82,12.915-1.309
	c-1.443-0.781-6.313-1.263-11.634-1.532c0.539-1.036,1.018-2.068,0.953-3c-2.345-35.123,17.469-53.995,17.469-53.995
	s6.884-1.171,15.992,0.569c5.465,1.049,15.161-5.822,12.934-7.144c-0.738-0.438-12.59-4.539-13.728-4.766
	c-2.268-0.454-5.219-0.907-4.766-2.948c0.457-2.041,6.58-8.618,8.849-7.711c2.271,0.904,12.249,4.082,14.971,4.082
	C165.487,100.777,166.395,96.469,160.495,83.083z"/>
<path display="none" d="M140.044,46.332c0-2.698,3.077-5.712,6.653-5.712c2.891,0,4.021,1.38,4.021,3.515
	c0,4.395-1.569,7.723-4.334,7.723C143.372,51.857,140.044,49.66,140.044,46.332z M152.475,34.215c0,0.628,0.064,1.319,0.187,2.072
	c-0.438,0.691-1.317,1.256-3.073,1.256c-2.64,0-4.772-2.386-4.772-5.337c0-2.009,1.006-3.515,5.336-6.339
	c6.151-4.081,7.095-5.211,7.095-7.158c0-1.004-0.628-2.26-4.018-2.26c-1.131,0-3.077,0.125-4.771,0.377
	c-1.257-0.628-1.821-2.072-1.821-3.453c0-3.955,3.203-7.472,8.729-7.472c6.277,0,11.361,4.897,11.361,10.673
	c0,4.144-1.756,5.838-13.812,14.314C152.601,31.894,152.475,32.96,152.475,34.215z"/>
<path d="M150.808,39.668c0-2.698,3.077-5.712,6.653-5.712c2.891,0,4.021,1.38,4.021,3.515c0,4.395-1.569,7.723-4.334,7.723
	C154.136,45.194,150.808,42.997,150.808,39.668z M164.238,27.552c-0.196,0.521-0.503,1.61-0.813,2.072
	c-0.463,0.689-1.317,1.256-3.073,1.256c-2.64,0-4.772-2.386-4.772-5.337c0-2.009,3.801-4.949,5.336-6.339
	c1.867-1.691,5.312-5.378,7.095-7.158c0.997-0.995,3.067-2.912,4.011-3.959c1.34-1.486,3.244-5.291,5-6.25
	c2.118-1.157,8.094-2.886,9.6-1c0.535,0.67-0.646,2.522-1.1,3.25c-3.055,4.89-11.971,12.517-16.378,16.234
	c-1.283,1.083-3.56,4.149-4.372,5.766C164.596,26.435,164.376,27.188,164.238,27.552z"/>
<path d="M160.495,76.083c-5.896-13.385-9.525-14.291-10.206-14.746c-5.896-3.932,4.536-10.208-11.569-3.855
	c-16.105,6.35-36.522,28.55-49,48.059c-11.764,18.395-16.362,38.193-15.143,55.067c0,0-1.637,7.245-23.415,9.517
	c-21.778,2.268-42.157,26.471-34.967,20.914c26.438-20.434,27.012-13.903,40.85-15.031c14.669-1.204,21.555-1.725,21.555-1.725
	c1.852,1.061,4.587,2.302,8.625,3.623c3.784,1.238,10.115,2.231,13.348,4.952c2.482,2.091,19.774,10.586,22.664,7.521
	c7.656-6.804-13.157-8.165-14.291-10.206c-0.275-0.496-0.281-1.051-0.138-1.643c7.444,0.625,19.449,1.82,12.915-1.309
	c-1.443-0.781-6.313-1.263-11.634-1.532c0.539-1.036,1.018-2.068,0.953-3c-2.345-35.123,17.469-60.995,17.469-60.995
	s6.884-1.171,15.992,0.569c5.465,1.049,15.161-5.822,12.934-7.144c-0.738-0.438-12.59-4.539-13.728-4.766
	c-2.268-0.454-5.219-0.907-4.766-2.948c0.457-2.041,6.58-8.618,8.849-7.711c2.271,0.904,12.249,4.082,14.971,4.082
	C165.487,93.777,166.395,89.469,160.495,76.083z"/>
</svg>
