<?xml version="1.0" encoding="utf-8"?>
<!-- Generator: Adobe Illustrator 16.0.0, SVG Export Plug-In . SVG Version: 6.00 Build 0)  -->
<!DOCTYPE svg PUBLIC "-//W3C//DTD SVG 1.1//EN" "http://www.w3.org/Graphics/SVG/1.1/DTD/svg11.dtd">
<svg version="1.1" xmlns="http://www.w3.org/2000/svg" xmlns:xlink="http://www.w3.org/1999/xlink" x="0px" y="0px" width="200px"
	 height="200px" viewBox="0 0 200 200" enable-background="new 0 0 200 200" xml:space="preserve">
<g id="Layer_1">
	<g>
		<path fill="#231F20" d="M38.069,107.603c-9.99,0-20.702-3.71-31.417-14.427c-2.883-2.882-2.883-7.555,0-10.437
			c2.881-2.883,7.556-2.883,10.437,0c16.772,16.769,31.315,10.12,50.03-1.11c20.866-12.52,45.778-12.519,66.64,0
			c18.714,11.228,33.256,17.88,50.029,1.11c2.881-2.883,7.556-2.883,10.437,0c2.884,2.882,2.884,7.555,0,10.437
			c-26.217,26.219-52.412,10.501-68.061,1.11c-16.11-9.666-35.343-9.666-51.451,0C65.459,99.838,52.52,107.602,38.069,107.603z"/>
		<path fill="#231F20" d="M100.438,129.818c-11.445,0-22.888-3.13-33.32-9.39c-18.714-11.227-33.255-17.882-50.03-1.109
			c-2.881,2.883-7.556,2.883-10.437,0c-2.883-2.882-2.883-7.556,0-10.438c26.216-26.218,52.411-10.5,68.06-1.11
			c16.109,9.665,35.343,9.664,51.452,0.001c15.65-9.392,41.844-25.109,68.061,1.109c2.884,2.882,2.884,7.556,0,10.438
			c-2.881,2.883-7.556,2.883-10.437,0c-16.771-16.77-31.313-10.117-50.029,1.109C123.326,126.688,111.883,129.818,100.438,129.818z"
			/>
		<circle fill="#231F20" cx="100.438" cy="100.262" r="11.071"/>
	</g>
</g>
<g id="Layer_2" display="none">
	<g display="inline">
		<path fill="#231F20" d="M38.069,107.603c-9.99,0-20.702-3.71-31.417-14.427c-2.883-2.882-2.883-7.555,0-10.437
			c2.881-2.883,7.556-2.883,10.437,0c16.772,16.769,31.315,10.12,50.03-1.11c20.866-12.52,45.778-12.519,66.64,0
			c18.714,11.228,33.256,17.88,50.029,1.11c2.881-2.883,7.556-2.883,10.437,0c2.884,2.882,2.884,7.555,0,10.437
			c-26.217,26.219-52.412,10.501-68.061,1.11c-16.11-9.666-35.343-9.666-51.451,0C65.459,99.838,52.52,107.602,38.069,107.603z"/>
		<path fill="#231F20" d="M100.438,129.818c-11.445,0-22.888-3.13-33.32-9.39c-18.714-11.227-33.255-17.882-50.03-1.109
			c-2.881,2.883-7.556,2.883-10.437,0c-2.883-2.882-2.883-7.556,0-10.438c26.216-26.218,52.411-10.5,68.06-1.11
			c16.109,9.665,35.343,9.664,51.452,0.001c15.65-9.392,41.844-25.109,68.061,1.109c2.884,2.882,2.884,7.556,0,10.438
			c-2.881,2.883-7.556,2.883-10.437,0c-16.771-16.77-31.313-10.117-50.029,1.109C123.326,126.688,111.883,129.818,100.438,129.818z"
			/>
		<circle fill="#231F20" cx="100.438" cy="106.412" r="11.071"/>
	</g>
</g>
</svg>
