<?xml version="1.0" encoding="utf-8"?>
<!-- Generator: Adobe Illustrator 16.0.0, SVG Export Plug-In . SVG Version: 6.00 Build 0)  -->
<!DOCTYPE svg PUBLIC "-//W3C//DTD SVG 1.1//EN" "http://www.w3.org/Graphics/SVG/1.1/DTD/svg11.dtd">
<svg version="1.1" xmlns="http://www.w3.org/2000/svg" xmlns:xlink="http://www.w3.org/1999/xlink" x="0px" y="0px" width="200px"
	 height="200px" viewBox="0 0 200 200" enable-background="new 0 0 200 200" xml:space="preserve">
<g id="Layer_1">
	<path fill="#2D2D2D" d="M152.823,106.398c0.283-2.59,0.367-4.785,0.367-4.785s0.313-0.288,0.863-0.82
		c0.61-1.207,1.315-4.067,1.315-10.7c0-11.688-4.644-35.375-18.156-52.786c-0.04,0-0.084,0.001-0.125,0.001
		c-0.898-1.349-1.858-2.665-2.879-3.94c5.265-0.878-2.163-6.748-13.317-11.633c-10.229-6.01-23.814-8.724-41.621-5.486
		c-1.131,0.188-2.221,0.39-3.284,0.6c-0.347,0.068-0.676,0.142-1.015,0.212c-0.707,0.146-1.405,0.295-2.082,0.451
		c-0.377,0.086-0.744,0.176-1.112,0.265c-0.617,0.15-1.225,0.303-1.817,0.459c-0.358,0.095-0.712,0.19-1.061,0.288
		c-0.588,0.164-1.159,0.332-1.722,0.502c-0.314,0.095-0.632,0.189-0.938,0.287c-0.625,0.199-1.227,0.402-1.819,0.609
		c-0.213,0.074-0.435,0.145-0.644,0.22c-0.795,0.286-1.564,0.578-2.303,0.877c-0.111,0.044-0.214,0.092-0.324,0.137
		c-0.621,0.255-1.225,0.514-1.806,0.778c-0.214,0.097-0.417,0.196-0.625,0.294c-0.465,0.218-0.921,0.438-1.361,0.661
		c-0.214,0.108-0.422,0.218-0.63,0.327c-0.422,0.222-0.833,0.446-1.231,0.672c-0.186,0.105-0.372,0.21-0.553,0.316
		c-0.424,0.249-0.832,0.499-1.229,0.752c-0.13,0.082-0.265,0.164-0.392,0.247c-1.067,0.696-2.04,1.403-2.92,2.116
		c-0.003,0.003-0.007,0.006-0.011,0.01c-0.432,0.35-0.84,0.701-1.231,1.053c-0.058,0.052-0.112,0.104-0.169,0.156
		c-0.339,0.31-0.663,0.62-0.972,0.93c-0.055,0.055-0.108,0.11-0.161,0.164c-0.315,0.322-0.615,0.643-0.9,0.964
		c-0.028,0.032-0.057,0.063-0.085,0.095c-0.312,0.354-0.575,0.704-0.851,1.055c-0.013,0.004-0.027,0.007-0.039,0.01
		c-0.099,0.126-0.177,0.249-0.272,0.375c-0.153,0.204-0.297,0.405-0.44,0.607c-0.233,0.33-0.457,0.656-0.662,0.98
		c-0.129,0.203-0.251,0.402-0.37,0.603c-0.188,0.318-0.364,0.629-0.527,0.939c-0.103,0.194-0.204,0.386-0.298,0.577
		c-0.15,0.306-0.287,0.603-0.416,0.897c-0.08,0.182-0.161,0.362-0.233,0.54c-0.119,0.293-0.224,0.575-0.324,0.855
		c-0.059,0.163-0.122,0.328-0.174,0.486c-0.094,0.283-0.174,0.55-0.251,0.816c-0.04,0.137-0.085,0.279-0.122,0.412
		c-0.076,0.281-0.139,0.542-0.199,0.798c-0.023,0.099-0.052,0.205-0.073,0.3c-0.076,0.339-0.141,0.657-0.196,0.945
		c-0.042,0.219-0.066,0.453-0.081,0.695c-0.011,0.166-0.01,0.341-0.009,0.517c0,0.05,0,0.099,0.001,0.149
		c0.011,0.459,0.054,0.945,0.139,1.464c-1.728,0.136-3.568,0.752-5.507,1.987C13.436,61.042,13.041,74.443,16.194,94.18
		c3.095-6.43,6.551-11.452,10.106-15.322c12.47-4.757,20.852-10.705,25.989-10.762c0.417,0.761,0.836,1.523,1.252,2.286
		c-5.592,1.813-12.222,4.534-19.95,11.08c-1.091,0.924-4.174,0.418-6.207,0.203c2.537,5.733,4.512,6.352,6.715,6.816
		c7.953,1.68,19.584-6.232,23.973-9.475c1.547,3.125,2.895,6.129,3.855,8.875c0.001-0.001,0.003-0.002,0.004-0.003
		c1.566,4.471,2.116,8.261,0.857,10.778c-4.023,8.046-6.512,48.786,6.729,91.444c6.65,1.274,11.987,1.668,19.01,1.668
		c39.571,0,74.185-21.201,93.116-52.86C172.064,124.556,161.43,113.766,152.823,106.398z M73.895,50.691
		c-3.177,0-5.751-2.575-5.751-5.751c0-3.175,2.574-5.75,5.751-5.75c3.175,0,5.75,2.575,5.75,5.75
		C79.645,48.116,77.07,50.691,73.895,50.691z"/>
</g>
<g id="Layer_2" display="none">
	<path display="inline" fill="#2D2D2D" d="M152.823,106.398c0.283-2.59,0.367-4.785,0.367-4.785s0.313-0.288,0.863-0.82
		c0.61-1.207,1.315-4.067,1.315-10.7c0-11.688-4.644-35.375-18.156-52.786c-0.04,0-0.084,0.001-0.125,0.001
		c-0.898-1.349-1.858-2.665-2.879-3.94c5.265-0.878-2.163-6.748-13.317-11.633c-10.229-6.01-23.814-8.724-41.621-5.486
		c-1.131,0.188-2.221,0.39-3.284,0.6c-0.347,0.068-0.676,0.142-1.015,0.212c-0.707,0.146-1.405,0.295-2.082,0.451
		c-0.377,0.086-0.744,0.176-1.112,0.265c-0.617,0.15-1.225,0.303-1.817,0.459c-0.358,0.095-0.712,0.19-1.061,0.288
		c-0.588,0.164-1.159,0.332-1.722,0.502c-0.314,0.095-0.632,0.189-0.938,0.287c-0.625,0.199-1.227,0.402-1.819,0.609
		c-0.213,0.074-0.435,0.145-0.644,0.22c-0.795,0.286-1.564,0.578-2.303,0.877c-0.111,0.044-0.214,0.092-0.324,0.137
		c-0.621,0.255-1.225,0.514-1.806,0.778c-0.214,0.097-0.417,0.196-0.625,0.294c-0.465,0.218-0.921,0.438-1.361,0.661
		c-0.214,0.108-0.422,0.218-0.63,0.327c-0.422,0.222-0.833,0.446-1.231,0.672c-0.186,0.105-0.372,0.21-0.553,0.316
		c-0.424,0.249-0.832,0.499-1.229,0.752c-0.13,0.082-0.265,0.164-0.392,0.247c-1.067,0.696-2.04,1.403-2.92,2.116
		c-0.003,0.003-0.007,0.006-0.011,0.01c-0.432,0.35-0.84,0.701-1.231,1.053c-0.058,0.052-0.112,0.104-0.169,0.156
		c-0.339,0.31-0.663,0.62-0.972,0.93c-0.055,0.055-0.108,0.11-0.161,0.164c-0.315,0.322-0.615,0.643-0.9,0.964
		c-0.028,0.032-0.057,0.063-0.085,0.095c-0.312,0.354-0.575,0.704-0.851,1.055c-0.013,0.004-0.027,0.007-0.039,0.01
		c-0.099,0.126-0.177,0.249-0.272,0.375c-0.153,0.204-0.297,0.405-0.44,0.607c-0.233,0.33-0.457,0.656-0.662,0.98
		c-0.129,0.203-0.251,0.402-0.37,0.603c-0.188,0.318-0.364,0.629-0.527,0.939c-0.103,0.194-0.204,0.386-0.298,0.577
		c-0.15,0.306-0.287,0.603-0.416,0.897c-0.08,0.182-0.161,0.362-0.233,0.54c-0.119,0.293-0.224,0.575-0.324,0.855
		c-0.059,0.163-0.122,0.328-0.174,0.486c-0.094,0.283-0.174,0.55-0.251,0.816c-0.04,0.137-0.085,0.279-0.122,0.412
		c-0.076,0.281-0.139,0.542-0.199,0.798c-0.023,0.099-0.052,0.205-0.073,0.3c-0.076,0.339-0.141,0.657-0.196,0.945
		c-0.042,0.219-0.066,0.453-0.081,0.695c-0.011,0.166-0.01,0.341-0.009,0.517c0,0.05,0,0.099,0.001,0.149
		c0.011,0.459,0.054,0.945,0.139,1.464c-1.728,0.136-3.317,1.289-5.507,1.987C13.074,54,11.041,64.443,14.194,84.18
		c3.095-6.43,6.551-11.452,10.106-15.322c12.47-4.757,22.852-0.705,27.989-0.762c0.417,0.761,0.836,1.523,1.252,2.286
		c-11.292,6.117-6.222,7.534-13.95,14.08c-1.091,0.924-4.174,0.418-6.207,0.203c2.537,5.733,4.512,6.352,6.715,6.816
		c7.953,1.68,13.584-9.232,17.973-12.475c1.547,3.125,2.895,6.129,3.855,8.875c0.001-0.001,0.003-0.002,0.004-0.003
		c1.566,4.471,2.116,8.261,0.857,10.778c-4.023,8.046-6.512,48.786,6.729,91.444c6.65,1.274,11.987,1.668,19.01,1.668
		c39.571,0,74.185-21.201,93.116-52.86C172.064,124.556,161.43,113.766,152.823,106.398z M73.895,50.691
		c-3.177,0-5.751-2.575-5.751-5.751c0-3.175,2.574-5.75,5.751-5.75c3.175,0,5.75,2.575,5.75,5.75
		C79.645,48.116,77.07,50.691,73.895,50.691z"/>
</g>
</svg>
