<?xml version="1.0" encoding="utf-8"?>
<!-- Generator: Adobe Illustrator 15.1.0, SVG Export Plug-In . SVG Version: 6.00 Build 0)  -->
<!DOCTYPE svg PUBLIC "-//W3C//DTD SVG 1.1//EN" "http://www.w3.org/Graphics/SVG/1.1/DTD/svg11.dtd">
<svg version="1.1" xmlns="http://www.w3.org/2000/svg" xmlns:xlink="http://www.w3.org/1999/xlink" x="0px" y="0px" width="200px"
	 height="200px" viewBox="0 0 200 200" enable-background="new 0 0 200 200" xml:space="preserve">
<g id="Layer_1">
	<path d="M30.06,6.745v186.509H169.94V6.745H30.06z M89.578,61.035c0-1.171,1.055-2.225,2.226-2.225h16.39
		c1.169,0,2.224,1.054,2.224,2.225v13.111l-5.737,32.894c-0.116,0.938-1.169,1.875-2.224,1.875h-4.917
		c-1.052,0-2.104-0.937-2.224-1.875l-5.737-32.662V61.035z M99.881,141.928c-5.97,0-11.004-5.034-11.004-11.005
		c0-6.086,5.034-11.239,11.004-11.239c6.087,0,11.239,5.153,11.239,11.239C111.12,136.894,105.968,141.928,99.881,141.928z"/>
</g>
<g id="Layer_2" display="none">
	<path display="inline" d="M30.06,6.745v186.509H169.94V6.745H30.06z M82.858,35.671c0-1.926,1.736-3.66,3.662-3.66h26.958
		c1.923,0,3.657,1.733,3.657,3.66v21.566l-9.437,54.104c-0.191,1.544-1.923,3.084-3.657,3.084h-8.089
		c-1.73,0-3.461-1.54-3.657-3.084L82.858,57.62V35.671z M99.805,168.726c-9.819,0-18.1-8.28-18.1-18.101
		c0-10.011,8.28-18.487,18.1-18.487c10.011,0,18.486,8.477,18.486,18.487C118.291,160.445,109.816,168.726,99.805,168.726z"/>
</g>
</svg>
