<?xml version="1.0" encoding="utf-8"?>
<!-- Generator: Adobe Illustrator 15.1.0, SVG Export Plug-In  -->
<!DOCTYPE svg PUBLIC "-//W3C//DTD SVG 1.1//EN" "http://www.w3.org/Graphics/SVG/1.1/DTD/svg11.dtd" [
	<!ENTITY ns_flows "http://ns.adobe.com/Flows/1.0/">
]>
<svg version="1.1"
	 xmlns="http://www.w3.org/2000/svg" xmlns:xlink="http://www.w3.org/1999/xlink" xmlns:a="http://ns.adobe.com/AdobeSVGViewerExtensions/3.0/"
	 x="0px" y="0px" width="167px" height="194px" viewBox="2.485 -0.173 167 194"
	 overflow="visible" enable-background="new 2.485 -0.173 167 194" xml:space="preserve">
<defs>
</defs>
<path fill-rule="evenodd" clip-rule="evenodd" d="M128.549,0c0.029,0,0.06,0,0.089,0c4.597,1.638,9.22,3.244,13.93,4.764
	c0.135,0.478-0.447,0.705-0.718,1.079c-1.849,2.562-2.893,9.375,2.067,9.256c0.438-1.267-0.979-0.747-1.439-1.348
	c0.451-1.103,1.699-1.531,2.606-2.158c0.93-0.641,1.821-1.343,2.786-1.887c1.217,1.3,2.082,2.951,2.427,5.124
	c1.909-1.995,1.602-6.202-0.179-8.09c4.424-2.047,9.104-3.836,13.569-5.84c2.96,2.913,4.553,7.191,4.854,12.761
	c0,1.708,0,3.416,0,5.123c-1.425,11.485-8.734,17.09-16.627,22.11c-0.029,0-0.061,0-0.089,0c-0.517-6.164-1.032-12.331-2.606-17.436
	c-0.422-0.12-0.817-0.261-1.169-0.45c-0.367,0.261-0.401,0.859-0.719,1.169c-0.322,5.566,0.49,9.993,1.888,13.841
	c-15.424-0.605-24.309-7.749-25.614-22.469c0-0.87,0-1.738,0-2.607C124.149,7.525,126.176,3.59,128.549,0z"/>
<path fill="#191919" d="M4.089,63.742c2.123-9.687,7.012-28.888,8.695-32.815c1.683-3.928,2.805-10.659,9.817-16.549
	c7.012-5.89,24.962-13.463,31.974-13.182s23.56-2.819,25.804-0.007C82.623,4,85.708,4.842,89.075,7.367
	c3.364,2.524,16.547,14.23,23.278,24.504s15.988,33.272,15.707,34.675c-4.288-11.82-28.627-46.792-33.938-48.803
	c-10.181-3.854-20.194-7.854-43.474,2.524C27.369,30.646,25.687,48.596,32.137,58.132c6.451,9.536-3.085,9.536-3.085,19.633
	c0,10.098,0.28,12.061,0.28,12.061s-13.462-3.366-16.268,0c-2.805,3.365-2.524,1.403-4.769,3.365
	C6.053,95.155,0.724,79.104,4.089,63.742z"/>
<path fill="#191919" d="M135.913,128.251c0.928,15.524-4.683,13.913-5.327,13.872c-0.913-0.892-2.161-1.631-3.927-2.092
	c-6.453-1.684-7.013-4.488-9.818-7.199c-2.805-2.712-4.207-2.056-5.889,0c-1.683,2.056-3.087,5.235-7.013,2.431
	c-3.927-2.805-3.365-0.841-6.731,5.048c-3.365,5.891-17.109,4.207-16.548,12.062c0.562,7.853-2.524,14.585-4.487,19.072
	c-1.963,4.487-19.914-9.817-22.999-12.902c-3.085-3.084-2.805-9.816,1.683-8.975c4.488,0.841,9.255,16.548,10.679,9.255
	c1.423-7.292-16.008-23.279-23.862-30.852c-7.853-7.573-10.661-26.084-12.06-34.614c-0.325-1.979-12.061-1.567-13.183-1.287
	c-1.122,0.28,0.841,1.122,3.365,2.805c2.524,1.682,5.049,3.926,6.452,7.573c1.402,3.646-6.171-1.401-4.769,1.683
	c1.402,3.085,4.207,14.865,6.731,21.878c2.524,7.012,5.048,12.621,11.219,17.232c6.17,4.611,6.451,6.888,4.207,16.704
	c-2.244,9.816,45.156,30.291,53.009,32.255c7.854,1.965,22.158,0.561,26.365-1.964c4.207-2.523,9.815-14.304,10.377-17.928
	c0.281-1.813,0.422-6.448,0.422-11.052c0.021-2.903,1.544-13.375,3.226-19.441C138.718,135.746,135.695,124.602,135.913,128.251z
	 M129.462,156.579c-2.804,10.097-4.767,19.071-11.22,20.194c-6.451,1.121-24.402-1.121-29.168-8.134c-4.77-7.013,0-14.024,0-14.024
	c3.646-2.804,8.976-9.255,13.742-10.098c4.768-0.841,9.536-4.08,15.426-2.04C124.134,144.518,132.267,146.481,129.462,156.579z
	 M130.932,142.473c0.002,0.002,0.004,0.004,0.007,0.005c0.153,0.112,0.297,0.305,0.435,0.558
	C131.236,142.844,131.092,142.654,130.932,142.473z"/>
<path fill="#191919" d="M44.198,89.265c4.068-4.185,7.853-6.452,12.902-8.134c5.048-1.683,31.694-2.805,35.621-2.244
	c3.925,0.561,8.694,0.281,15.986-3.927c7.291-4.207,26.546-11.5,28.84-7.292c2.292,4.207,5.659,15.426,3.134,21.597
	c-2.524,6.17-5.889,15.145-16.547,17.109c-10.658,1.963-8.136,1.683-11.501-1.963c-3.364-3.647-4.769-14.305-10.097-14.024
	c-5.329,0.281-7.573,12.792-11.218,17.194c-3.647,4.402-10.378,10.572-21.598,9.452c-11.219-1.123-21.036-0.843-23.84-7.854
	S40.374,93.198,44.198,89.265z"/>
<path fill="#191919" d="M16.107,100.203c0,0-4.164-5.89-6.688-2.243c-2.524,3.646,1.403,10.377,1.683,11.778
	c0.28,1.404-2.525-10.657,1.24-10.097C16.107,100.203,16.107,100.203,16.107,100.203z"/>
<path fill="#191919" d="M19.236,106.094c-3.085,1.401-9.342,10.657-3.128,14.023c6.213,3.365-0.518-4.486,2.006-7.012
	C20.638,110.581,19.236,106.094,19.236,106.094z"/>
<path fill="#191919" d="M26.248,126.008c0,0,1.682,6.73-4.769,4.486c3.325,4.207,7.944-0.964,6.451-2.014
	C26.438,127.429,26.248,126.008,26.248,126.008z"/>
<path fill="#191919" d="M16.541,123.202c1.573,0,3.083,0,3.083,0s1.51,1.684,0,2.806C18.114,127.128,16.541,123.202,16.541,123.202z
	"/>
<path fill="#191919" d="M21.479,126.208c0,0,1.122-0.2,1.122-3.006c0-2.804,2.813,0.201,2.248,1.503
	C24.284,126.008,21.479,126.208,21.479,126.208z"/>
<path fill="#191919" d="M99.452,130.495c0,0-7.854,0.782-4.769-1.432c3.086-2.215,5.329-4.739,8.415-3.056
	c3.085,1.682,3.927,0.427,1.402,2.036C101.976,129.654,99.452,130.495,99.452,130.495z"/>
<path fill="#191919" d="M113.195,126.008c0,0,3.367-4.208,4.769-2.806c1.402,1.403,1.683,0.841,0,2.806
	C116.282,127.971,113.195,126.008,113.195,126.008z"/>
<path fill="#191919" d="M92.58,117.733c0.613,0.767-1.261,4.793-4.487,7.164c-3.227,2.372-0.28,7.28,2.243,6.72
	c2.524-0.562,8.135,0.303,8.976,0.502c0.842,0.199-5.188,0.2-8.695,0.9c-3.506,0.701-6.451,1.022-5.75-4.137
	c0.702-5.16,5.43-7.629,5.961-8.766C91.319,119.065,91.458,116.331,92.58,117.733z"/>
<path fill="#191919" d="M105.985,131.477c-2.569,0.27,3.984-2.413,3.984-2.413S109.997,131.056,105.985,131.477z"/>
<path fill="#191919" d="M122.45,125.458c0,0-3.785,5.166-5.468,4.821c-1.685-0.346,3.224-2.528,4.066-5.574
	C121.89,121.66,122.45,125.458,122.45,125.458z"/>
<path fill="#191919" d="M94.629,156.323c3.458-1.671,8.511-7.333,12.173-6.348c3.66,0.986,8.39-0.643,9.148-1.755
	s8.635,2.574,8.635,2.574s-8.487,3.818-12.089,4.53C108.895,156.035,94.629,156.323,94.629,156.323z"/>
<path display="none" fill-rule="evenodd" clip-rule="evenodd" d="M128.549,0c0.029,0,0.06,0,0.089,0
	c4.597,1.638,9.22,3.244,13.93,4.764c0.135,0.478-0.447,0.705-0.718,1.079c-1.849,2.562-2.893,9.375,2.067,9.256
	c0.438-1.267-0.979-0.747-1.439-1.348c0.451-1.103,1.699-1.531,2.606-2.158c0.93-0.641,1.821-1.343,2.786-1.887
	c1.217,1.3,2.082,2.951,2.427,5.124c1.909-1.995,1.602-6.202-0.179-8.09c4.424-2.047,9.104-3.836,13.569-5.84
	c2.96,2.913,4.553,7.191,4.854,12.761c0,1.708,0,3.416,0,5.123c-1.425,11.485-8.734,17.09-16.627,22.11c-0.029,0-0.061,0-0.089,0
	c-0.517-6.164-1.032-12.331-2.606-17.436c-0.422-0.12-0.817-0.261-1.169-0.45c-0.367,0.261-0.401,0.859-0.719,1.169
	c-0.322,5.566,0.49,9.993,1.888,13.841c-15.424-0.605-24.309-7.749-25.614-22.469c0-0.87,0-1.738,0-2.607
	C124.149,7.525,126.176,3.59,128.549,0z"/>
<path display="none" fill="#191919" d="M0.104,74.009c0.683-9.892,2.712-29.603,3.802-33.733c1.091-4.132,1.216-10.955,7.291-17.807
	C17.272,15.616,33.922,5.5,40.899,4.752c6.978-0.749,22.894-6.235,25.526-3.782c2.63,2.454,5.806,2.834,9.505,4.84
	c3.697,2.004,18.451,11.657,26.612,20.836c8.162,9.179,20.684,30.576,20.609,32.005c-5.97-11.066-35.162-42.102-40.709-43.314
	c-10.636-2.324-21.126-4.815-42.638,8.855C18.293,37.864,19.254,55.868,27.03,64.357c7.777,8.49-1.657,9.885-0.18,19.874
	c1.477,9.989,2.042,11.89,2.042,11.89S15.082,94.76,12.799,98.5c-2.282,3.739-2.292,1.757-4.225,4.026
	C6.642,104.797-0.978,89.699,0.104,74.009z"/>
<path display="none" fill="#191919" d="M139.946,118.544c3.188,15.222-2.598,14.448-3.242,14.502
	c-1.033-0.748-2.375-1.297-4.189-1.495c-6.63-0.722-7.594-3.414-10.766-5.686c-3.172-2.273-4.463-1.419-5.825,0.861
	c-1.364,2.28-2.288,5.631-6.582,3.431c-4.295-2.2-3.452-0.34-5.92,5.978c-2.469,6.319-16.311,6.664-14.606,14.353
	c1.703,7.686-0.364,14.797-1.649,19.523c-1.286,4.726-21.136-6.799-24.639-9.399c-3.503-2.6-4.21-9.302,0.352-9.125
	c4.562,0.175,11.576,15.017,11.918,7.593c0.342-7.421-19.241-20.687-28.118-27.029c-8.876-6.343-14.361-24.244-16.993-32.478
	c-0.611-1.91-12.161,0.214-13.229,0.655c-1.069,0.44,0.996,0.986,3.739,2.282c2.744,1.295,5.569,3.146,7.49,6.548
	c1.921,3.401-6.31-0.484-4.471,2.361c1.838,2.847,6.336,14.091,9.858,20.659c3.523,6.566,6.84,11.746,13.62,15.405
	c6.778,3.66,7.388,5.87,6.604,15.909c-0.784,10.04,49.101,23.361,57.157,24.155c8.058,0.795,22.002-2.687,25.795-5.799
	c3.792-3.111,7.617-15.586,7.643-19.253c0.013-1.836-0.525-6.44-1.199-10.995c-0.403-2.875-0.429-13.457,0.348-19.703
	C143.817,125.548,139.197,114.966,139.946,118.544z M137.708,147.511c-1.298,10.398-1.927,19.563-8.146,21.618
	c-6.219,2.053-24.305,2.46-30.045-3.78c-5.743-6.239-2.051-13.873-2.051-13.873c3.198-3.308,7.526-10.469,12.117-12
	c4.594-1.529,8.837-5.43,14.962-4.274C130.672,136.358,139.005,137.111,137.708,147.511z M137.099,133.341
	c0.002,0.002,0.004,0.004,0.007,0.004c0.168,0.089,0.339,0.258,0.512,0.488C137.454,133.664,137.284,133.497,137.099,133.341z"/>
<path display="none" fill="#191919" d="M43.515,93.392c3.413-4.735,6.825-7.531,11.573-9.934c4.749-2.404,30.944-7.411,34.91-7.43
	c3.965-0.019,8.642-0.994,15.24-6.223c6.598-5.228,24.578-15.259,27.463-11.432c2.883,3.827,7.855,14.433,6.259,20.906
	c-1.595,6.473-3.609,15.843-13.866,19.345c-10.257,3.501-7.803,2.854-11.665-0.259c-3.86-3.117-6.809-13.455-12.039-12.398
	c-5.23,1.057-5.621,13.762-8.582,18.651c-2.965,4.888-8.72,11.977-19.983,12.509c-11.262,0.53-20.933,2.243-24.732-4.283
	C44.292,106.318,40.308,97.842,43.515,93.392z"/>
<path display="none" fill="#191919" d="M17.326,108.32c0,0-4.98-5.218-6.945-1.24c-1.963,3.977,2.906,10.061,3.388,11.405
	c0.482,1.348-4.057-10.173-0.25-10.169C17.326,108.32,17.326,108.32,17.326,108.32z"/>
<path display="none" fill="#191919" d="M21.283,113.689c-2.847,1.839-7.683,11.91-1.043,14.331c6.639,2.42-1.169-4.362,0.959-7.229
	C23.326,117.925,21.283,113.689,21.283,113.689z"/>
<path display="none" fill="#191919" d="M31.132,132.364c0,0,2.649,6.412-4.061,5.136c3.905,3.676,7.717-2.115,6.087-2.935
	C31.527,133.743,31.132,132.364,31.132,132.364z"/>
<path display="none" fill="#191919" d="M21.119,131.009c1.556-0.23,3.05-0.451,3.05-0.451s1.74,1.444,0.411,2.776
	C23.249,134.662,21.119,131.009,21.119,131.009z"/>
<path display="none" fill="#191919" d="M26.444,133.261c0,0,1.08-0.363,0.67-3.139c-0.41-2.773,2.812-0.212,2.443,1.159
	C29.189,132.651,26.444,133.261,26.444,133.261z"/>
<path display="none" fill="#191919" d="M104.206,126.097c0,0-7.655,1.923-4.927-0.719s4.577-5.468,7.877-4.253
	c3.298,1.211,3.947-0.152,1.686,1.809C106.58,124.896,104.206,126.097,104.206,126.097z"/>
<path display="none" fill="#191919" d="M117.144,119.647c0,0,2.715-4.655,4.308-3.473c1.592,1.183,1.787,0.586,0.409,2.774
	C120.485,121.138,117.144,119.647,117.144,119.647z"/>
<path display="none" fill="#191919" d="M95.54,114.478c0.719,0.669-0.546,4.926-3.391,7.743c-2.845,2.818,0.788,7.243,3.202,6.319
	c2.415-0.925,8.092-0.89,8.952-0.816c0.862,0.074-5.104,0.957-8.47,2.163s-6.232,1.955-6.293-3.252
	c-0.061-5.206,4.255-8.341,4.614-9.543C94.489,115.979,94.226,113.255,95.54,114.478z"/>
<path display="none" fill="#191919" d="M110.812,126.112c-2.503,0.643,3.588-2.971,3.588-2.971S114.718,125.109,110.812,126.112z"/>
<path display="none" fill="#191919" d="M126.219,117.75c0,0-2.989,5.664-4.704,5.569c-1.718-0.096,2.819-2.973,3.207-6.108
	S126.219,117.75,126.219,117.75z"/>
<path display="none" fill="#191919" d="M103.212,152.353c3.177-2.159,7.346-8.499,11.113-8.06c3.766,0.44,8.205-1.863,8.793-3.074
	c0.588-1.212,8.919,1.283,8.919,1.283s-7.838,5.02-11.296,6.25C117.283,149.981,103.212,152.353,103.212,152.353z"/>
</svg>
