<?xml version="1.0" encoding="utf-8"?>
<!-- Generator: Adobe Illustrator 15.1.0, SVG Export Plug-In  -->
<!DOCTYPE svg PUBLIC "-//W3C//DTD SVG 1.1//EN" "http://www.w3.org/Graphics/SVG/1.1/DTD/svg11.dtd" [
	<!ENTITY ns_flows "http://ns.adobe.com/Flows/1.0/">
]>
<svg version="1.1"
	 xmlns="http://www.w3.org/2000/svg" xmlns:xlink="http://www.w3.org/1999/xlink" xmlns:a="http://ns.adobe.com/AdobeSVGViewerExtensions/3.0/"
	 x="0px" y="0px" width="181px" height="181px" viewBox="-0.649 -0.048 181 181"
	 overflow="visible" enable-background="new -0.649 -0.048 181 181" xml:space="preserve">
<defs>
</defs>
<path display="none" d="M22.122,95.215c8.653,3.414,15.33,7.796,16.631,10.679c4.88-12.727,13.051-27.016,23.34-40.902l-19.48-6.494
	L1.8,91.149l1.09,0.437C5.96,90.508,13.667,91.878,22.122,95.215z"/>
<path display="none" d="M84.689,157.782c-3.415-8.652-7.797-15.33-10.68-16.631c12.728-4.879,27.017-13.05,40.903-23.339
	l6.491,19.479l-32.649,40.813l-0.435-1.089C89.395,173.943,88.024,166.236,84.689,157.782z"/>
<path display="none" d="M175.147,35.978c3.59-12.167,4.869-24.121,4.869-35.978c-11.857,0-23.81,1.28-35.978,4.869
	c2.661,6.864,6.753,13.295,12.283,18.825C161.852,29.225,168.285,33.317,175.147,35.978z"/>
<path display="none" d="M172.943,42.69c-7.883-3-15.271-7.668-21.609-14.007c-6.34-6.339-11.007-13.727-14.007-21.609
	c-16.427,6-33.278,16.518-50.84,34.08c-22.005,22.004-39.352,49.742-44.23,70.1c2.109,5.613,5.635,11.165,10.488,16.02
	c4.854,4.853,10.405,8.379,16.019,10.487c20.356-4.879,48.095-22.226,70.1-44.23C156.425,75.968,166.942,59.116,172.943,42.69z
	 M112.675,67.341c-6.199-6.198-6.199-16.248,0-22.447c6.198-6.198,16.248-6.198,22.447,0c6.198,6.199,6.198,16.249,0,22.447
	C128.923,73.541,118.874,73.541,112.675,67.341z"/>
<path display="none" d="M116.001,64.016c-4.355-4.354-4.355-11.441,0-15.795c4.354-4.355,11.439-4.355,15.795,0
	c4.355,4.354,4.355,11.441,0,15.795C127.441,68.371,120.355,68.371,116.001,64.016z"/>
<path display="none" d="M41.858,123.788c1.855,2.74,4.021,5.387,6.502,7.867c2.482,2.481,5.128,4.647,7.867,6.504
	c2.211,0.229,4.62,0.19,7.201-0.11c-4.31-2.324-8.483-5.393-12.275-9.186c-3.793-3.793-6.861-7.965-9.186-12.275
	C41.668,119.169,41.629,121.577,41.858,123.788z"/>
<path display="none" d="M41.462,130.611c1.025,1.515,2.223,2.978,3.595,4.35s2.834,2.568,4.349,3.594
	c1.222,0.127,2.554,0.105,3.98-0.06c-2.383-1.284-4.689-2.982-6.786-5.078c-2.097-2.097-3.793-4.402-5.078-6.785
	C41.357,128.057,41.335,129.389,41.462,130.611z"/>
<path display="none" d="M43.671,136.346c4.132,4.132,4.132,10.832,0,14.965c-4.133,4.132-14.964,0-21.2,6.234
	c6.235-6.234,2.102-17.067,6.235-21.199C32.838,132.213,39.538,132.213,43.671,136.346c-6.199-6.198-16.249-6.2-22.447,0
	c-6.199,6.198-3.742,26.188-11.224,33.67c7.482-7.482,27.472-5.025,33.671-11.224S49.87,142.544,43.671,136.346z"/>
<path d="M22.122,95.215c8.653,3.414,15.33,7.796,16.631,10.679c4.88-12.727,13.051-27.016,23.34-40.902l-19.48-6.494L1.8,91.149
	l1.09,0.437C5.96,90.508,13.667,91.878,22.122,95.215z"/>
<path d="M84.689,157.782c-3.415-8.652-7.797-15.33-10.68-16.631c12.728-4.879,27.017-13.05,40.903-23.339l6.491,19.479
	l-32.649,40.813l-0.435-1.089C89.395,173.943,88.024,166.236,84.689,157.782z"/>
<path d="M175.147,35.978c3.59-12.167,4.869-24.121,4.869-35.978c-11.857,0-23.81,1.28-35.978,4.869
	c2.661,6.864,6.753,13.295,12.283,18.825C161.852,29.225,168.285,33.317,175.147,35.978z"/>
<path d="M172.943,42.69c-7.883-3-15.271-7.668-21.609-14.007c-6.34-6.339-11.007-13.727-14.007-21.609
	c-16.427,6-33.278,16.518-50.84,34.08c-22.005,22.004-39.352,49.742-44.23,70.1c2.109,5.613,5.635,11.165,10.488,16.02
	c4.854,4.853,10.405,8.379,16.019,10.487c20.356-4.879,48.095-22.226,70.1-44.23C156.425,75.968,166.942,59.116,172.943,42.69z
	 M112.675,67.341c-6.199-6.198-6.199-16.248,0-22.447c6.198-6.198,16.248-6.198,22.447,0c6.198,6.199,6.198,16.249,0,22.447
	C128.923,73.541,118.874,73.541,112.675,67.341z"/>
<path d="M116.001,64.016c-4.355-4.354-4.355-11.441,0-15.795c4.354-4.355,11.439-4.355,15.795,0c4.355,4.354,4.355,11.441,0,15.795
	C127.441,68.371,120.355,68.371,116.001,64.016z"/>
<path d="M41.858,123.788c1.855,2.74,4.021,5.387,6.502,7.867c2.482,2.481,5.128,4.647,7.867,6.504c2.211,0.229,4.62,0.19,7.201-0.11
	c-4.31-2.324-8.483-5.393-12.275-9.186c-3.793-3.793-6.861-7.965-9.186-12.275C41.668,119.169,41.629,121.577,41.858,123.788z"/>
<path d="M41.462,130.611c1.025,1.515,2.223,2.978,3.595,4.35s2.834,2.568,4.349,3.594c1.222,0.127,2.554,0.105,3.98-0.06
	c-2.383-1.284-4.689-2.982-6.786-5.078c-2.097-2.097-3.793-4.402-5.078-6.785C41.357,128.057,41.335,129.389,41.462,130.611z"/>
<path d="M43.671,136.346c4.132,4.132,4.132,10.832,0,14.965c-9.933,9.933-24.964,10-31.2,16.234
	c6.235-6.234,7.005-21.969,16.235-31.199C32.839,132.213,39.538,132.213,43.671,136.346c-6.199-6.198-16.248-6.199-22.447,0
	C9.982,147.588,7.482,172.534,0,180.016c7.482-7.482,34.654-12.207,43.671-21.224C49.87,152.594,49.87,142.544,43.671,136.346z"/>
</svg>
