<?xml version="1.0" encoding="utf-8"?>
<!-- Generator: Adobe Illustrator 16.0.0, SVG Export Plug-In . SVG Version: 6.00 Build 0)  -->
<!DOCTYPE svg PUBLIC "-//W3C//DTD SVG 1.1//EN" "http://www.w3.org/Graphics/SVG/1.1/DTD/svg11.dtd">
<svg version="1.1" xmlns="http://www.w3.org/2000/svg" xmlns:xlink="http://www.w3.org/1999/xlink" x="0px" y="0px" width="200px"
	 height="200px" viewBox="0 0 200 200" enable-background="new 0 0 200 200" xml:space="preserve">
<g id="Layer_1">
	<g>
		<path fill="#303030" d="M91.421,86.071L91.421,86.071c-0.253-0.17-0.499-0.352-0.741-0.536c-0.024-0.02-0.051-0.038-0.077-0.058
			c-0.237-0.185-0.468-0.378-0.694-0.575c-0.025-0.022-0.052-0.044-0.078-0.066c-0.229-0.204-0.453-0.417-0.67-0.634
			c-0.019-0.018-0.037-0.036-0.056-0.053c-0.225-0.229-0.443-0.463-0.655-0.706c-0.007-0.008-0.016-0.017-0.023-0.026
			c-0.875-1.009-1.625-2.137-2.221-3.362c-0.666-1.373-1.143-2.866-1.377-4.457c-0.209-1.414-0.202-2.807-0.033-4.159L74.191,77.17
			H74.19c-1.698,0.25-3.295,0.755-4.763,1.462c-7.649-5.294-17.24-7.817-27.168-6.352C21.498,75.344,7.15,94.659,10.215,115.421
			c3.064,20.762,22.38,35.108,43.142,32.044c19.698-2.907,33.611-20.444,32.368-39.965c5.245-3.438,8.317-9.699,7.34-16.311
			c-0.075-0.514-0.18-1.016-0.302-1.509l2.254-1.804C93.739,87.433,92.532,86.822,91.421,86.071z M52.74,143.288
			c-18.426,2.72-35.628-10.059-38.348-28.483c-2.72-18.426,10.058-35.628,28.483-38.348c8.209-1.212,16.171,0.659,22.721,4.728
			c0.371,0.23,0.733,0.476,1.095,0.72c0.18,0.122,0.363,0.241,0.54,0.366c0.418,0.295,0.833,0.598,1.237,0.911
			c0.023,0.018,0.043,0.035,0.066,0.052c0.111,0.086,0.218,0.176,0.326,0.264c0.306,0.244,0.61,0.49,0.907,0.744
			c0.169,0.144,0.334,0.294,0.5,0.441c0.248,0.22,0.492,0.443,0.733,0.67c0.167,0.157,0.332,0.316,0.496,0.476
			c0.243,0.238,0.481,0.482,0.716,0.729c0.146,0.151,0.292,0.3,0.436,0.456c0.326,0.354,0.646,0.714,0.958,1.082
			c0.085,0.101,0.169,0.202,0.253,0.304c0.301,0.363,0.594,0.732,0.88,1.109c0.122,0.16,0.238,0.325,0.358,0.486
			c0.209,0.289,0.417,0.578,0.618,0.873c0.123,0.18,0.244,0.361,0.364,0.544c0.194,0.297,0.384,0.599,0.571,0.904
			c0.092,0.15,0.186,0.301,0.275,0.454c0.037,0.062,0.072,0.126,0.109,0.188c0.204,0.353,0.403,0.709,0.596,1.07
			c0.013,0.027,0.03,0.052,0.044,0.08c0.085,0.163,0.167,0.327,0.251,0.492c0.178,0.35,0.352,0.703,0.518,1.061
			c0.073,0.158,0.144,0.316,0.214,0.476c0.029,0.064,0.056,0.127,0.084,0.191c0.138,0.316,0.273,0.634,0.402,0.955
			c0.047,0.116,0.092,0.233,0.137,0.35c0.045,0.115,0.09,0.23,0.134,0.346c0.122,0.324,0.238,0.651,0.351,0.981
			c0.075,0.22,0.15,0.439,0.222,0.661c0.113,0.358,0.217,0.72,0.319,1.083c0.062,0.219,0.127,0.436,0.184,0.656
			c0.103,0.396,0.194,0.796,0.283,1.198c0.043,0.191,0.09,0.381,0.131,0.575c0.121,0.598,0.229,1.199,0.318,1.809
			c0.107,0.723,0.184,1.442,0.24,2.159c0.008,0.096,0.013,0.19,0.021,0.285c0.05,0.695,0.083,1.391,0.092,2.081l0,0
			C81.788,126.104,69.646,140.793,52.74,143.288z"/>
		<path fill="#303030" d="M67.583,85.096L29.8,135.963c1.193,0.822,2.441,1.562,3.738,2.217l37.248-50.146
			C69.785,86.98,68.716,85.999,67.583,85.096z"/>
		<path fill="#303030" d="M43.178,78.504c-17.325,2.557-29.294,18.674-26.738,35.998c0.629,4.261,2.081,8.192,4.165,11.668
			l34.948-47.049C51.622,78.129,47.438,77.875,43.178,78.504z"/>
		<path fill="#303030" d="M36.806,139.614c4.833,1.792,10.172,2.433,15.632,1.626c17.324-2.556,29.295-18.674,26.738-35.998
			c-0.806-5.46-2.961-10.386-6.074-14.496L36.806,139.614z"/>
		<circle fill="#303030" cx="100" cy="73.396" r="13.546"/>
		<path fill="#303030" d="M157.71,71.941c-9.95-1.385-19.529,1.223-27.138,6.591c-1.489-0.709-3.108-1.211-4.83-1.451h-0.001
			l-10.651-5.643c0.181,1.352,0.199,2.744,0.001,4.159c-0.223,1.6-0.691,3.103-1.35,4.487c-0.145,0.3-0.295,0.594-0.456,0.881
			c-0.002,0.003-0.003,0.005-0.004,0.008c-0.165,0.292-0.338,0.58-0.52,0.862c-0.003,0.002-0.004,0.004-0.007,0.006
			c-0.181,0.281-0.372,0.554-0.57,0.82c-0.005,0.005-0.009,0.01-0.013,0.015c-0.196,0.262-0.4,0.518-0.612,0.766
			c-0.011,0.012-0.022,0.025-0.034,0.038c-0.206,0.24-0.419,0.474-0.64,0.701c-0.018,0.018-0.037,0.035-0.054,0.053
			c-0.218,0.22-0.439,0.434-0.668,0.64c-0.022,0.02-0.046,0.039-0.067,0.059c-0.229,0.202-0.462,0.401-0.702,0.59
			c-0.016,0.013-0.032,0.024-0.048,0.036c-0.249,0.196-0.502,0.384-0.762,0.562v0.001c-1.104,0.76-2.307,1.38-3.58,1.834
			l2.269,1.784c-0.117,0.495-0.219,0.997-0.29,1.512c-0.927,6.652,2.23,12.917,7.549,16.302
			c-1.06,19.514,12.989,36.914,32.697,39.657c20.787,2.895,39.982-11.61,42.877-32.396C193,94.032,178.497,74.836,157.71,71.941z
			 M147.812,143.032c-18.446-2.566-31.366-19.666-28.797-38.113c2.568-18.446,19.666-31.364,38.113-28.795
			c18.447,2.568,31.365,19.666,28.797,38.112C183.355,132.683,166.259,145.601,147.812,143.032z"/>
		<path fill="#303030" d="M174.945,87.223l-43.368,46.196c1.08,0.948,2.229,1.822,3.432,2.618l42.769-45.553
			C176.907,89.333,175.962,88.244,174.945,87.223z"/>
		<path fill="#303030" d="M151.47,77.886c-17.502,0.553-31.244,15.189-30.692,32.692c0.138,4.331,1.139,8.431,2.831,12.145
			l40.157-42.777C159.955,78.491,155.801,77.749,151.47,77.886z"/>
		<path fill="#303030" d="M179.755,93.423l-41.687,44.404c4.609,2.355,9.861,3.617,15.402,3.443
			c17.502-0.552,31.244-15.189,30.692-32.692C183.988,103.037,182.398,97.876,179.755,93.423z"/>
	</g>
</g>
<g id="Layer_2" display="none">
	<g display="inline">
		<path fill="#303030" d="M89.621,84.719L89.621,84.719c-0.225-0.206-0.441-0.42-0.654-0.639c-0.023-0.023-0.046-0.045-0.069-0.068
			c-0.207-0.217-0.407-0.441-0.602-0.67c-0.022-0.026-0.045-0.051-0.067-0.076c-0.197-0.236-0.387-0.478-0.57-0.725
			c-0.016-0.021-0.032-0.041-0.047-0.061c-0.19-0.258-0.371-0.523-0.544-0.793c-0.006-0.01-0.013-0.019-0.02-0.029
			c-0.719-1.125-1.296-2.351-1.706-3.65c-0.458-1.456-0.713-3.002-0.713-4.609c0-1.429,0.21-2.807,0.575-4.119l-11.328,4.119h0
			c-1.717,0-3.37,0.266-4.927,0.751C62.156,67.793,53.036,63.896,43,63.896c-20.987,0-38,17.013-38,38c0,20.986,17.013,38,38,38
			c19.912,0,36.235-15.318,37.857-34.811c5.69-2.636,9.643-8.381,9.643-15.064c0-0.52-0.03-1.031-0.079-1.537l2.494-1.455
			C91.715,86.404,90.61,85.624,89.621,84.719z M43,135.674c-18.625,0-33.778-15.152-33.778-33.777
			c0-18.625,15.152-33.778,33.778-33.778c8.297,0,15.901,3.013,21.787,7.995c0.333,0.282,0.655,0.578,0.978,0.872
			c0.161,0.147,0.324,0.292,0.481,0.441c0.371,0.353,0.735,0.713,1.09,1.082c0.02,0.02,0.038,0.041,0.058,0.061
			c0.097,0.1,0.189,0.206,0.284,0.308c0.267,0.286,0.531,0.574,0.788,0.869c0.146,0.167,0.288,0.339,0.43,0.51
			c0.212,0.254,0.422,0.51,0.627,0.77c0.142,0.18,0.282,0.361,0.42,0.543c0.206,0.271,0.406,0.548,0.603,0.826
			c0.122,0.171,0.246,0.341,0.364,0.514c0.271,0.397,0.535,0.802,0.79,1.211c0.07,0.112,0.138,0.225,0.207,0.337
			c0.244,0.403,0.481,0.812,0.708,1.225c0.097,0.176,0.189,0.356,0.283,0.534c0.166,0.315,0.329,0.633,0.485,0.954
			c0.095,0.196,0.188,0.393,0.28,0.59c0.149,0.323,0.293,0.649,0.433,0.978c0.069,0.163,0.14,0.325,0.206,0.489
			c0.027,0.067,0.053,0.135,0.081,0.203c0.151,0.379,0.296,0.76,0.434,1.146c0.01,0.028,0.021,0.056,0.032,0.085
			c0.062,0.173,0.119,0.348,0.177,0.523c0.125,0.372,0.246,0.748,0.357,1.125c0.049,0.166,0.096,0.334,0.143,0.501
			c0.019,0.067,0.037,0.134,0.055,0.201c0.091,0.333,0.178,0.667,0.259,1.005c0.029,0.122,0.057,0.244,0.084,0.366
			c0.028,0.12,0.056,0.241,0.082,0.361c0.073,0.339,0.14,0.679,0.203,1.021c0.042,0.229,0.085,0.457,0.123,0.687
			c0.06,0.37,0.11,0.744,0.158,1.118c0.029,0.225,0.062,0.449,0.086,0.675c0.044,0.406,0.075,0.816,0.104,1.227
			c0.014,0.196,0.034,0.391,0.044,0.588c0.033,0.608,0.052,1.22,0.052,1.836c0,0.729-0.029,1.453-0.077,2.172
			c-0.006,0.095-0.015,0.188-0.022,0.283c-0.052,0.696-0.121,1.389-0.213,2.073l0,0C74.245,122.915,60.089,135.674,43,135.674z"/>
		<path fill="#303030" d="M66.181,80.272l-44.805,44.805c1.059,0.989,2.187,1.903,3.374,2.74l44.171-44.171
			C68.084,82.459,67.169,81.332,66.181,80.272z"/>
		<path fill="#303030" d="M43,70.188c-17.512,0-31.708,14.196-31.708,31.708c0,4.306,0.862,8.408,2.417,12.151l41.442-41.443
			C51.408,71.05,47.305,70.188,43,70.188z"/>
		<path fill="#303030" d="M27.773,129.712c4.52,2.48,9.708,3.893,15.227,3.893c17.512,0,31.708-14.196,31.708-31.708
			c0-5.52-1.413-10.708-3.893-15.228L27.773,129.712z"/>
		<circle fill="#303030" cx="100" cy="73.396" r="13.546"/>
		<path fill="#303030" d="M157,63.896c-10.046,0-19.174,3.905-25.97,10.271c-1.572-0.498-3.246-0.771-4.983-0.771h-0.001
			l-11.328-4.119c0.365,1.312,0.575,2.69,0.575,4.119c0,1.615-0.258,3.169-0.72,4.63c-0.101,0.316-0.21,0.629-0.329,0.936
			c-0.001,0.002-0.002,0.005-0.004,0.008c-0.122,0.313-0.254,0.622-0.396,0.925c-0.002,0.002-0.003,0.004-0.004,0.007
			c-0.142,0.303-0.293,0.6-0.454,0.891c-0.003,0.006-0.006,0.012-0.009,0.017c-0.159,0.287-0.326,0.568-0.501,0.843
			c-0.01,0.015-0.02,0.028-0.029,0.042c-0.171,0.266-0.35,0.527-0.537,0.783c-0.015,0.02-0.031,0.04-0.046,0.06
			c-0.185,0.248-0.374,0.491-0.573,0.727c-0.019,0.022-0.039,0.043-0.058,0.066c-0.199,0.233-0.402,0.461-0.613,0.682
			c-0.015,0.015-0.03,0.029-0.043,0.043c-0.22,0.228-0.444,0.448-0.678,0.661v0c-0.988,0.905-2.094,1.686-3.293,2.31l2.493,1.455
			c-0.048,0.506-0.078,1.018-0.078,1.537c0,6.717,3.989,12.487,9.725,15.105c1.641,19.474,17.956,34.77,37.854,34.77
			c20.987,0,38-17.014,38-38C195,80.91,177.987,63.896,157,63.896z M157,135.674c-18.625,0-33.777-15.152-33.777-33.777
			c0-18.625,15.152-33.778,33.777-33.778s33.777,15.152,33.777,33.778C190.777,120.521,175.625,135.674,157,135.674z"/>
		<path fill="#303030" d="M180.171,80.262l-44.806,44.805c1.052,0.981,2.171,1.892,3.348,2.725l44.184-44.182
			C182.063,82.433,181.153,81.313,180.171,80.262z"/>
		<path fill="#303030" d="M157,70.188c-17.512,0-31.708,14.196-31.708,31.708c0,4.334,0.872,8.463,2.446,12.227l41.487-41.488
			C165.463,71.061,161.334,70.188,157,70.188z"/>
		<path fill="#303030" d="M184.781,86.609l-43.067,43.068c4.534,2.5,9.742,3.927,15.286,3.927c17.512,0,31.708-14.196,31.708-31.708
			C188.708,96.353,187.281,91.144,184.781,86.609z"/>
	</g>
</g>
</svg>
