<?xml version="1.0" encoding="utf-8"?>
<!-- Generator: Adobe Illustrator 15.1.0, SVG Export Plug-In  -->
<!DOCTYPE svg PUBLIC "-//W3C//DTD SVG 1.1//EN" "http://www.w3.org/Graphics/SVG/1.1/DTD/svg11.dtd" [
	<!ENTITY ns_flows "http://ns.adobe.com/Flows/1.0/">
]>
<svg version="1.1"
	 xmlns="http://www.w3.org/2000/svg" xmlns:xlink="http://www.w3.org/1999/xlink" xmlns:a="http://ns.adobe.com/AdobeSVGViewerExtensions/3.0/"
	 x="0px" y="0px" width="196px" height="143px" viewBox="-0.745 -0.58 196 143"
	 overflow="visible" enable-background="new -0.745 -0.58 196 143" xml:space="preserve">
<defs>
</defs>
<path fill-rule="evenodd" clip-rule="evenodd" fill="#FFFFFF" d="M90.366,2.997c-1.128-1.75-4.129-1.345-4.351,0.815
	c-0.096,0.94,0.34,2.326,0.544,3.444c1.099,6.034,4.069,9.438,7.07,13.233c0.581,0.735,1.205,1.515,1.903,2.176
	c0.664,0.627,1.538,1.452,2.538,1.359c-0.358-3.535-2.259-6.958-2.447-11.239C95.42,8.172,95.822,4.387,97.89,2
	C96.552-0.683,90.531-0.859,90.366,2.997z M124.355,17.227c2.83-3.206,4.924-7.025,4.531-12.417
	c-0.105-1.453-0.656-4.362-1.541-4.804c-0.105-0.053-1.037,0.293-1.178,0.362c-1.354,0.668-2.4,2.542-3.535,3.082
	c-0.316-1.799-2.023-2.456-3.443-1.269c-1.275,1.065-2.43,3.48-2.9,4.895c0.42,1.685,2.678,1.977,3.08,3.444
	c0.16,0.583,0.045,1.462,0,1.903c-0.389,3.992-4.244,5.955-4.26,10.151C118.781,22.119,122.053,19.833,124.355,17.227z
	 M104.143,0.096c-1.527,0.23-3.436,1.926-2.9,3.988c0.137,0.523,0.996,1.114,1.359,1.631c1.156,1.639,1.863,3.869,1.994,6.254
	c0.293,5.293-1.201,9.24-2.447,12.689c1,0.019,1.67-0.945,2.266-1.631c1.949-2.245,3.305-4.692,5.168-7.07
	c1.738-2.222,2.939-5.064,3.08-9.154c0.043-1.244,0.189-2.953-0.18-3.988c-0.479-1.337-2.881-2.106-4.352-0.997
	C107.252,0.685,106.025-0.188,104.143,0.096z M77.949,14.145c-0.051-0.762-0.224-2.107,0.09-3.082
	c0.541-1.68,2.903-2.013,3.444-3.897c0.781-2.718-0.891-5.798-2.719-5.982c-0.801-0.08-1.601,0.585-2.628,0.453
	c-1.081-0.139-1.384-1.387-2.538-1.269c-0.987,0.102-1.822,2.191-2.175,3.082c-0.75,1.892-1.062,4.006-0.906,6.526
	c0.452,7.273,4.987,13.485,10.514,15.046C80.494,21.358,78.255,18.712,77.949,14.145z M56.558,2.634
	c-0.887,0.655-2.041,4.027-2.085,5.348c-0.036,1.085,0.447,2.378,0.725,3.535c1.914,7.941,6.626,14.464,12.871,17.402
	c0.309-4.348-2.598-7.288-2.9-11.511c-0.123-1.714,0.387-3.629,0.181-5.62c-0.062-0.599-0.444-1.134-0.453-1.812
	c-0.018-1.289,0.822-2.722,0.635-4.169c-1.296-1.65-4.897-2.219-5.348,0.544C58.801,5.285,58.234,3.405,56.558,2.634z
	 M138.768,2.634c-2.48,0.325-4.104,3.984-6.709,3.988c0.477,1.546,2.041,1.617,2.721,2.81c0.365,0.645,0.492,1.461,0.543,2.175
	c0.381,5.326-2.676,9.973-4.805,13.052c-0.328,0.475-0.855,0.925-0.725,1.269c10.559-1.619,15.307-9.044,16.225-20.303
	c-0.906-0.031-0.828-1.046-1.27-1.541c-1.387-0.148-2.195,0.282-2.99,0.725C141.086,3.711,140.445,2.414,138.768,2.634z
	 M153.902,3.54c-3.031-2.659-7.203,4.939-3.262,5.801c2.773,7.82-4.783,11.272-6.707,16.678c5.299-0.128,8.945-2.478,11.963-5.62
	c3.609-3.757,6.967-10.818,4.441-17.312c-2.383,0.397-2.969,2.59-5.529,2.81C154.662,4.758,154.447,4.018,153.902,3.54z
	 M179.373,45.052c2.672-2.671,5.746-4.638,7.975-7.976c2.148-3.216,3.592-6.986,4.805-11.148c1.232-4.228,2.371-8.776,2.357-13.596
	c-0.01-2.911-0.291-7.135-2.086-8.157c-0.473-0.27-1.232-0.343-1.631-0.182c-2.014,0.815-3.059,3.783-5.348,4.351
	c-0.787-0.697-1.121-1.542-2.084-1.904c-3.205-1.204-6.039,2.076-6.527,4.532c2.182,4.237,1.951,10.708,1.27,16.133
	c-0.699,5.559-1.49,11.063-3.535,15.228c-1.553,3.164-4.635,4.776-5.166,8.701C173.441,50.267,176.572,47.852,179.373,45.052z
	 M170.219,22.846c1.916-2.838,3.715-6.427,4.531-10.605c0.291-1.492,0.689-3.437,0.453-4.622c-0.375-1.888-2.557-3.391-4.805-3.082
	c-1.549,0.213-2.547,1.226-3.443,2.357c0.119-1.512-1.59-1.183-2.719-0.997c-0.5,1.134-1.482,2.283-1.27,3.897
	c0.078,0.594,0.561,1.193,0.725,1.812c2.162,8.172-4.41,13.266-5.166,19.759C164.035,30.518,167.312,27.148,170.219,22.846z
	 M42.509,4.628c-4.057,5.196-2.794,12.716,0.181,17.674c2.859,4.765,7.187,8.535,13.233,9.426c-0.858-4.851-5.327-5.44-5.71-10.786
	c-0.117-1.625,0.008-3.325,0.181-4.895c0.161-1.463,0.706-3.179,0.453-4.713c-0.07-0.428-0.498-1.017-0.725-1.541
	c-0.618-1.428-1.431-3.897-3.172-3.897c-1.025,0-1.488,0.93-2.356,1.269C44.377,5.841,43.611,5.066,42.509,4.628z M22.75,11.063
	c-0.076,2.22,1.638,4.376,2.356,6.254c2.273,5.94,5.145,13.435,10.242,15.771c1.037-1.772-0.558-4.098,0-6.254
	c-3.32-4.521-1.13-13.072,1.178-17.04c-0.476-2.677-4.919-3.655-7.16-1.904C27.413,4.46,22.839,8.465,22.75,11.063z M11.964,12.06
	c-1.826-0.782-2.618-2.918-4.26-3.535C6.369,8.023,4.802,8.573,3.988,9.069C1.66,10.488,0,13.821,0,17.589
	c0,6.936,4.246,13.117,6.345,18.672c0,0,0.07,0.147,0.09,0.181c0.804,1.328,2.137,2.543,3.172,3.716
	c2.842,3.218,5.499,6.166,7.704,9.698c0.457,0.731,0.778,1.616,1.269,2.266c0.451,0.596,1.234,1.142,1.813,1.813
	c0.604,0.701,1.14,1.494,1.812,1.812c1.179-9.372-1.924-16.66-3.716-24.019c-0.629-2.583-1.329-5.354-1.178-8.248
	c0.248-4.759,4.891-7.486,3.082-13.052C16.92,10.663,15.331,13.502,11.964,12.06z M182,83.755
	c-0.193,4.253-1.287,7.603-2.447,10.877c-1.123,3.177-2.441,6.13-4.439,8.973c-1.748,2.485-3.967,4.851-6.164,7.251
	c-1.693,1.849-5.373,4.733-5.529,7.886c-0.168,3.401,2.842,5.208,5.711,4.26c0.904-0.299,1.594-1.173,2.355-1.269
	c3.283-0.414,4.643,3.652,7.523,3.716c3.416,0.075,4.885-4.16,5.711-7.069c0.809-2.857,0.982-6.61,1.088-9.971
	c0.16-5.122-0.172-10.967-0.545-15.861c-0.133-1.751-0.049-3.683-0.363-5.167c-0.125-0.596-0.688-1.429-0.996-2.266
	c-0.404-1.096-0.781-1.82-1.812-1.632C181.986,83.498,181.994,83.626,182,83.755z M19.759,103.423
	c-0.657-1.25-1.565-2.429-2.175-3.716c-1.355-2.86-0.949-7.472-3.535-9.063c-0.357-0.166-0.289,0.053-0.363,0.181
	c-0.564,0.987-0.861,3.499-1.087,5.167c-1.675,12.364,1.177,23.693,6.435,30.454c0.815,1.048,2.093,2.731,3.172,3.172
	c0.572,0.234,1.472,0.303,2.266,0.544c0.781,0.238,1.714,0.518,2.538,0.363c1.455-0.272,2.13-2.175,3.535-2.538
	c2.385-0.617,5.856,1.487,6.888-1.088C36.66,113.862,24.427,112.302,19.759,103.423z M43.869,130.978
	c-0.211,0.499-0.025,0.945,0.181,1.178c1.408,1.582,3.141-1.277,4.079-1.359c0.847-0.074,1.809,0.842,2.9,0.815
	c1.522-0.036,2.331-1.358,2.357-2.81c0.042-2.397-1.737-5.298-4.895-5.348c-3.584-2.579-4.046-8.28-4.351-14.14
	c-0.061,0-0.121,0-0.181,0C36.904,112.073,37.83,127.797,43.869,130.978z M148.465,125.448c0.463,1.652,1.791,2.439,3.354,2.991
	c0.391,1.009,0.713,2.062,1.812,2.175c2.604,0.27,4.512-4.193,7.434-4.169c2.422-4.813,1.373-13.662-3.445-15.046
	C158.043,119.198,153.051,122.358,148.465,125.448z M62.359,125.357c-1.168-1.069-2.299-2.598-3.172-4.078
	c-0.846-1.435-1.908-3.176-1.994-5.258c-0.048-1.165,0.396-1.719,0.363-2.99c-0.005-0.056-0.014-0.107-0.091-0.091
	c-3.964,3.401-4.805,13.623-1.178,18.581c0.669,0.915,1.585,1.654,2.447,2.447c0.896,0.823,1.776,1.854,2.81,2.084
	c2.286,0.511,3.736-1.682,6.526-1.45C70.105,129.391,64.945,127.726,62.359,125.357z M144.93,136.144
	c1.156-0.371,2.027-2.059,2.539-3.444c2.082-5.659-0.113-13.574-4.17-15.228c-0.951,6.936-3.758,12.015-10.061,13.596
	c-1.047,4.339,4.842,4.679,7.521,3.173C141.703,135.171,142.973,136.772,144.93,136.144z M68.341,124.451
	c0.029,4.788,2.238,9.358,4.985,11.874c1.054,0.965,2.494,2.032,4.079,2.175c2.191,0.198,2.584-1,3.625-2.175
	c1.716,2.584,5.707,0.682,4.623-2.629c-0.382-1.166-2.376-2.292-3.716-3.082c-3.181-1.873-5.211-3.579-7.704-6.072
	c-2.216-2.216-3.666-3.919-4.713-6.889c-0.091,0-0.108-0.073-0.181-0.091C68.758,119.46,68.327,122.089,68.341,124.451z
	 M126.803,120.463c0.021,4.508-1.176,7.164-3.264,9.427c-1.207,1.309-2.867,2.44-4.35,3.082c-1.252,0.541-3.018,0.629-3.445,2.356
	c0.615,3.059,6.418,3.989,8.52,1.631c0.938,0.383,1.34,1.644,2.629,1.45c0.947-0.142,1.863-2.006,2.266-2.9
	c2.266-5.021,0.309-12.138-2.084-15.227c-0.115-0.005-0.125-0.116-0.271-0.091C126.803,120.282,126.803,120.373,126.803,120.463z
	 M106.861,131.431c-1.602,1.307-4.879,2.273-5.348,4.351c-0.449,1.996,2.053,4.951,3.354,4.985c1.16,0.029,1.211-1.229,2.447-1.088
	c0.793,0.09,1.287,1.201,2.086,1.541c0.635,0.27,1.777,0.492,2.537,0.181c0.756-0.31,1.582-2.011,1.994-2.991
	c1.398-3.319,0.898-7.227,0.182-10.967c-0.422-2.201-0.666-4.43-1.631-6.073c-0.117-0.005-0.127-0.115-0.273-0.09
	C111.094,124.879,109.848,128.996,106.861,131.431z M85.653,129.799c0.34,5.477,3.486,9.285,6.707,12.146
	c1.416-1.746,5.504-0.562,6.707-2.356c0.92-1.372,0.223-3.629-0.633-4.623c-1.204-1.396-3.316-2.144-4.533-3.172
	c-1.135-0.96-2.26-2.615-3.263-3.988c-1.526-2.09-2.892-3.765-3.988-5.801c-0.005-0.055-0.014-0.107-0.091-0.091
	C86.031,124.603,85.477,126.963,85.653,129.799z"/>
<path fill-rule="evenodd" clip-rule="evenodd" d="M97.89,2c-2.068,2.388-2.47,6.173-2.267,10.786
	c0.188,4.281,2.089,7.705,2.447,11.239c-1,0.093-1.874-0.732-2.538-1.359c-0.698-0.661-1.322-1.44-1.903-2.176
	c-3-3.795-5.971-7.199-7.07-13.233c-0.204-1.118-0.64-2.504-0.544-3.444c0.221-2.161,3.222-2.566,4.351-0.815
	C90.531-0.859,96.552-0.683,97.89,2z"/>
<path fill-rule="evenodd" clip-rule="evenodd" d="M115.109,22.574c0.016-4.197,3.871-6.159,4.26-10.151
	c0.045-0.441,0.16-1.32,0-1.903c-0.402-1.468-2.66-1.76-3.08-3.444c0.471-1.414,1.625-3.83,2.9-4.895
	c1.42-1.187,3.127-0.53,3.443,1.269c1.135-0.541,2.182-2.414,3.535-3.082c0.141-0.069,1.072-0.416,1.178-0.362
	c0.885,0.442,1.436,3.351,1.541,4.804c0.393,5.393-1.701,9.211-4.531,12.417C122.053,19.833,118.781,22.119,115.109,22.574z"/>
<path fill-rule="evenodd" clip-rule="evenodd" d="M108.131,1.818c1.471-1.109,3.873-0.34,4.352,0.997
	c0.369,1.035,0.223,2.745,0.18,3.988c-0.141,4.09-1.342,6.933-3.08,9.154c-1.863,2.377-3.219,4.825-5.168,7.07
	c-0.596,0.687-1.266,1.65-2.266,1.631c1.246-3.449,2.74-7.396,2.447-12.689c-0.131-2.386-0.838-4.615-1.994-6.254
	c-0.363-0.517-1.223-1.108-1.359-1.631c-0.535-2.062,1.373-3.758,2.9-3.988C106.025-0.188,107.252,0.685,108.131,1.818z"/>
<path fill-rule="evenodd" clip-rule="evenodd" d="M81.03,25.021c-5.527-1.561-10.062-7.772-10.514-15.046
	c-0.156-2.52,0.157-4.634,0.906-6.526c0.353-0.891,1.188-2.98,2.175-3.082c1.154-0.118,1.458,1.13,2.538,1.269
	c1.028,0.132,1.828-0.533,2.628-0.453c1.829,0.184,3.5,3.264,2.719,5.982c-0.542,1.885-2.903,2.218-3.444,3.897
	c-0.314,0.975-0.142,2.32-0.09,3.082C78.255,18.712,80.494,21.358,81.03,25.021z"/>
<path fill-rule="evenodd" clip-rule="evenodd" d="M60.184,6.35c0.451-2.763,4.051-2.194,5.348-0.544
	c0.188,1.448-0.652,2.88-0.635,4.169c0.009,0.679,0.392,1.213,0.453,1.812c0.206,1.991-0.304,3.906-0.181,5.62
	c0.303,4.223,3.209,7.164,2.9,11.511c-6.245-2.938-10.957-9.461-12.871-17.402c-0.278-1.157-0.761-2.45-0.725-3.535
	c0.044-1.321,1.198-4.692,2.085-5.348C58.234,3.405,58.801,5.285,60.184,6.35z"/>
<path fill-rule="evenodd" clip-rule="evenodd" d="M141.758,4.809c0.795-0.443,1.604-0.874,2.99-0.725
	c0.441,0.495,0.363,1.51,1.27,1.541c-0.918,11.258-5.666,18.684-16.225,20.303c-0.131-0.344,0.396-0.794,0.725-1.269
	c2.129-3.079,5.186-7.726,4.805-13.052c-0.051-0.714-0.178-1.531-0.543-2.175c-0.68-1.193-2.244-1.263-2.721-2.81
	c2.605-0.004,4.229-3.663,6.709-3.988C140.445,2.414,141.086,3.711,141.758,4.809z"/>
<path fill-rule="evenodd" clip-rule="evenodd" d="M154.809,5.897c2.561-0.22,3.146-2.413,5.529-2.81
	c2.525,6.494-0.832,13.555-4.441,17.312c-3.018,3.142-6.664,5.491-11.963,5.62c1.924-5.405,9.48-8.857,6.707-16.678
	c-3.941-0.862,0.23-8.459,3.262-5.801C154.447,4.018,154.662,4.758,154.809,5.897z"/>
<path fill-rule="evenodd" clip-rule="evenodd" d="M169.402,51.035c0.531-3.925,3.613-5.538,5.166-8.701
	c2.045-4.165,2.836-9.668,3.535-15.228c0.682-5.426,0.912-11.896-1.27-16.133c0.488-2.456,3.322-5.736,6.527-4.532
	c0.963,0.362,1.297,1.207,2.084,1.904c2.289-0.568,3.334-3.536,5.348-4.351c0.398-0.161,1.158-0.088,1.631,0.182
	c1.795,1.022,2.076,5.246,2.086,8.157c0.014,4.82-1.125,9.368-2.357,13.596c-1.213,4.163-2.656,7.932-4.805,11.148
	c-2.229,3.338-5.303,5.305-7.975,7.976C176.572,47.852,173.441,50.267,169.402,51.035z"/>
<path fill-rule="evenodd" clip-rule="evenodd" d="M158.525,31.366c0.756-6.494,7.328-11.587,5.166-19.759
	c-0.164-0.619-0.646-1.218-0.725-1.812c-0.213-1.615,0.77-2.763,1.27-3.897c1.129-0.186,2.838-0.515,2.719,0.997
	c0.896-1.131,1.895-2.144,3.443-2.357c2.248-0.309,4.43,1.194,4.805,3.082c0.236,1.186-0.162,3.13-0.453,4.622
	c-0.816,4.178-2.615,7.767-4.531,10.605C167.312,27.148,164.035,30.518,158.525,31.366z"/>
<path fill-rule="evenodd" clip-rule="evenodd" d="M44.594,7.166c0.869-0.338,1.332-1.269,2.356-1.269
	c1.741,0,2.554,2.47,3.172,3.897c0.227,0.524,0.655,1.112,0.725,1.541c0.252,1.535-0.292,3.25-0.453,4.713
	c-0.173,1.57-0.298,3.269-0.181,4.895c0.383,5.346,4.852,5.935,5.71,10.786c-6.046-0.892-10.374-4.662-13.233-9.426
	c-2.975-4.958-4.238-12.479-0.181-17.674C43.611,5.066,44.377,5.841,44.594,7.166z"/>
<path fill-rule="evenodd" clip-rule="evenodd" d="M29.367,7.891c2.241-1.751,6.685-0.773,7.16,1.904
	c-2.309,3.967-4.499,12.519-1.178,17.04c-0.558,2.157,1.037,4.482,0,6.254c-5.098-2.336-7.969-9.831-10.242-15.771
	c-0.718-1.878-2.432-4.034-2.356-6.254C22.839,8.465,27.413,4.46,29.367,7.891z"/>
<path fill-rule="evenodd" clip-rule="evenodd" d="M20.394,10.429c1.809,5.565-2.834,8.292-3.082,13.052
	c-0.15,2.894,0.549,5.665,1.178,8.248c1.792,7.359,4.895,14.647,3.716,24.019c-0.672-0.319-1.208-1.111-1.812-1.812
	c-0.579-0.671-1.362-1.217-1.813-1.813c-0.491-0.65-0.812-1.535-1.269-2.266c-2.205-3.533-4.862-6.48-7.704-9.698
	c-1.036-1.173-2.369-2.388-3.172-3.716c-0.021-0.034-0.09-0.181-0.09-0.181C4.246,30.706,0,24.525,0,17.589
	c0-3.768,1.66-7.101,3.988-8.52c0.814-0.496,2.381-1.046,3.716-0.544c1.642,0.617,2.434,2.753,4.26,3.535
	C15.331,13.502,16.92,10.663,20.394,10.429z"/>
<path fill-rule="evenodd" clip-rule="evenodd" d="M182.092,83.482c1.031-0.188,1.408,0.536,1.812,1.632
	c0.309,0.837,0.871,1.67,0.996,2.266c0.314,1.484,0.23,3.416,0.363,5.167c0.373,4.895,0.705,10.739,0.545,15.861
	c-0.105,3.36-0.279,7.113-1.088,9.971c-0.826,2.909-2.295,7.145-5.711,7.069c-2.881-0.063-4.24-4.13-7.523-3.716
	c-0.762,0.096-1.451,0.97-2.355,1.269c-2.869,0.948-5.879-0.858-5.711-4.26c0.156-3.152,3.836-6.037,5.529-7.886
	c2.197-2.4,4.416-4.766,6.164-7.251c1.998-2.843,3.316-5.796,4.439-8.973c1.16-3.274,2.254-6.624,2.447-10.877
	C181.994,83.626,181.986,83.498,182.092,83.482z"/>
<path fill-rule="evenodd" clip-rule="evenodd" d="M37.433,126.898c-1.032,2.575-4.503,0.471-6.888,1.088
	c-1.405,0.363-2.08,2.266-3.535,2.538c-0.824,0.154-1.757-0.125-2.538-0.363c-0.794-0.241-1.694-0.31-2.266-0.544
	c-1.08-0.44-2.357-2.124-3.172-3.172c-5.258-6.761-8.11-18.09-6.435-30.454c0.226-1.668,0.523-4.18,1.087-5.167
	c0.074-0.128,0.006-0.347,0.363-0.181c2.586,1.592,2.179,6.203,3.535,9.063c0.61,1.287,1.518,2.466,2.175,3.716
	C24.427,112.302,36.66,113.862,37.433,126.898z"/>
<path fill-rule="evenodd" clip-rule="evenodd" d="M43.959,109.314c0.06,0,0.121,0,0.181,0c0.305,5.859,0.766,11.561,4.351,14.14
	c3.157,0.05,4.937,2.95,4.895,5.348c-0.026,1.451-0.835,2.773-2.357,2.81c-1.092,0.026-2.054-0.89-2.9-0.815
	c-0.938,0.082-2.67,2.941-4.079,1.359c-0.207-0.232-0.392-0.679-0.181-1.178C37.83,127.797,36.904,112.073,43.959,109.314z"/>
<path fill-rule="evenodd" clip-rule="evenodd" d="M157.619,111.399c4.818,1.384,5.867,10.232,3.445,15.046
	c-2.922-0.024-4.83,4.438-7.434,4.169c-1.1-0.113-1.422-1.166-1.812-2.175c-1.562-0.552-2.891-1.339-3.354-2.991
	C153.051,122.358,158.043,119.198,157.619,111.399z"/>
<path fill-rule="evenodd" clip-rule="evenodd" d="M68.069,134.603c-2.79-0.231-4.24,1.961-6.526,1.45
	c-1.033-0.23-1.913-1.261-2.81-2.084c-0.862-0.793-1.778-1.532-2.447-2.447c-3.626-4.958-2.786-15.18,1.178-18.581
	c0.077-0.017,0.085,0.035,0.091,0.091c0.034,1.271-0.411,1.825-0.363,2.99c0.086,2.082,1.148,3.823,1.994,5.258
	c0.874,1.48,2.004,3.009,3.172,4.078C64.945,127.726,70.105,129.391,68.069,134.603z"/>
<path fill-rule="evenodd" clip-rule="evenodd" d="M140.76,134.24c-2.68,1.506-8.568,1.166-7.521-3.173
	c6.303-1.581,9.109-6.66,10.061-13.596c4.057,1.653,6.252,9.568,4.17,15.228c-0.512,1.386-1.383,3.073-2.539,3.444
	C142.973,136.772,141.703,135.171,140.76,134.24z"/>
<path fill-rule="evenodd" clip-rule="evenodd" d="M69.338,117.562c0.073,0.018,0.09,0.091,0.181,0.091
	c1.048,2.97,2.498,4.673,4.713,6.889c2.493,2.493,4.523,4.199,7.704,6.072c1.34,0.79,3.334,1.916,3.716,3.082
	c1.084,3.311-2.906,5.213-4.623,2.629c-1.042,1.175-1.434,2.373-3.625,2.175c-1.584-0.143-3.025-1.21-4.079-2.175
	c-2.748-2.516-4.956-7.086-4.985-11.874C68.327,122.089,68.758,119.46,69.338,117.562z"/>
<path fill-rule="evenodd" clip-rule="evenodd" d="M126.803,120.191c0.146-0.025,0.156,0.086,0.271,0.091
	c2.393,3.089,4.35,10.205,2.084,15.227c-0.402,0.895-1.318,2.759-2.266,2.9c-1.289,0.193-1.691-1.067-2.629-1.45
	c-2.102,2.358-7.904,1.428-8.52-1.631c0.428-1.728,2.193-1.815,3.445-2.356c1.482-0.642,3.143-1.773,4.35-3.082
	c2.088-2.263,3.285-4.919,3.264-9.427C126.803,120.373,126.803,120.282,126.803,120.191z"/>
<path fill-rule="evenodd" clip-rule="evenodd" d="M112.209,121.279c0.146-0.025,0.156,0.085,0.273,0.09
	c0.965,1.644,1.209,3.872,1.631,6.073c0.717,3.74,1.217,7.647-0.182,10.967c-0.412,0.98-1.238,2.682-1.994,2.991
	c-0.76,0.312-1.902,0.089-2.537-0.181c-0.799-0.34-1.293-1.451-2.086-1.541c-1.236-0.141-1.287,1.117-2.447,1.088
	c-1.301-0.034-3.803-2.989-3.354-4.985c0.469-2.077,3.746-3.044,5.348-4.351C109.848,128.996,111.094,124.879,112.209,121.279z"/>
<path fill-rule="evenodd" clip-rule="evenodd" d="M86.559,121.913c0.077-0.017,0.085,0.036,0.091,0.091
	c1.096,2.036,2.461,3.711,3.988,5.801c1.003,1.373,2.128,3.028,3.263,3.988c1.216,1.028,3.329,1.776,4.533,3.172
	c0.855,0.994,1.553,3.251,0.633,4.623c-1.202,1.795-5.291,0.61-6.707,2.356c-3.221-2.86-6.367-6.669-6.707-12.146
	C85.477,126.963,86.031,124.603,86.559,121.913z"/>
<path display="none" fill-rule="evenodd" clip-rule="evenodd" fill="#FFFFFF" d="M90.366,12.997
	c-1.128-1.75-4.129-1.345-4.351,0.815c-0.096,0.94,0.34,2.326,0.544,3.444c1.099,6.034,4.069,9.438,7.07,13.233
	c0.581,0.735,1.205,1.515,1.903,2.176c0.664,0.627,1.538,1.452,2.538,1.359c-0.358-3.535-2.259-6.958-2.447-11.239
	C95.42,18.172,95.822,14.387,97.89,12C96.552,9.317,90.531,9.141,90.366,12.997z M124.355,27.227
	c2.83-3.206,4.924-7.025,4.531-12.417c-0.105-1.453-0.656-4.362-1.541-4.804c-0.105-0.053-1.037,0.293-1.178,0.362
	c-1.354,0.668-2.4,2.542-3.535,3.082c-0.316-1.799-2.023-2.456-3.443-1.269c-1.275,1.065-2.43,3.48-2.9,4.895
	c0.42,1.685,2.678,1.977,3.08,3.444c0.16,0.583,0.045,1.462,0,1.903c-0.389,3.992-4.244,5.955-4.26,10.151
	C118.781,32.119,122.053,29.833,124.355,27.227z M104.143,10.096c-1.527,0.23-3.436,1.926-2.9,3.988
	c0.137,0.523,0.996,1.114,1.359,1.631c1.156,1.639,1.863,3.869,1.994,6.254c0.293,5.293-1.201,9.24-2.447,12.689
	c1,0.019,1.67-0.945,2.266-1.631c1.949-2.245,3.305-4.692,5.168-7.07c1.738-2.222,2.939-5.064,3.08-9.154
	c0.043-1.244,0.189-2.953-0.18-3.988c-0.479-1.337-2.881-2.106-4.352-0.997C107.252,10.685,106.025,9.812,104.143,10.096z
	 M77.949,24.145c-0.051-0.762-0.224-2.107,0.09-3.082c0.541-1.68,2.903-2.013,3.444-3.897c0.781-2.718-0.891-5.798-2.719-5.982
	c-0.801-0.08-1.601,0.585-2.628,0.453c-1.081-0.139-1.384-1.387-2.538-1.269c-0.987,0.102-1.822,2.191-2.175,3.082
	c-0.75,1.892-1.062,4.006-0.906,6.526c0.452,7.273,4.987,13.485,10.514,15.046C80.494,31.358,78.255,28.712,77.949,24.145z
	 M56.558,12.634c-0.887,0.655-2.041,4.027-2.085,5.348c-0.036,1.085,0.447,2.378,0.725,3.535
	c1.914,7.941,6.626,14.464,12.871,17.402c0.309-4.348-2.598-7.288-2.9-11.511c-0.123-1.714,0.387-3.629,0.181-5.62
	c-0.062-0.599-0.444-1.134-0.453-1.812c-0.018-1.289,0.822-2.722,0.635-4.169c-1.296-1.65-4.897-2.219-5.348,0.544
	C58.801,15.285,58.234,13.405,56.558,12.634z M138.768,12.634c-2.48,0.325-4.104,3.984-6.709,3.988
	c0.477,1.546,2.041,1.617,2.721,2.81c0.365,0.645,0.492,1.461,0.543,2.175c0.381,5.326-2.676,9.973-4.805,13.052
	c-0.328,0.475-0.855,0.925-0.725,1.269c10.559-1.619,15.307-9.044,16.225-20.303c-0.906-0.031-0.828-1.046-1.27-1.541
	c-1.387-0.148-2.195,0.282-2.99,0.725C141.086,13.711,140.445,12.414,138.768,12.634z M153.902,13.54
	c-3.031-2.659-7.203,4.939-3.262,5.801c2.773,7.82-4.783,11.272-6.707,16.678c5.299-0.128,8.945-2.478,11.963-5.62
	c3.609-3.757,6.967-10.818,4.441-17.312c-2.383,0.397-2.969,2.59-5.529,2.81C154.662,14.758,154.447,14.018,153.902,13.54z
	 M179.373,55.052c2.672-2.671,5.746-4.638,7.975-7.976c2.148-3.216,3.592-6.986,4.805-11.148c1.232-4.228,2.371-8.776,2.357-13.596
	c-0.01-2.911-0.291-7.135-2.086-8.157c-0.473-0.27-1.232-0.343-1.631-0.182c-2.014,0.815-3.059,3.783-5.348,4.351
	c-0.787-0.697-1.121-1.542-2.084-1.904c-3.205-1.204-6.039,2.076-6.527,4.532c2.182,4.237,1.951,10.708,1.27,16.133
	c-0.699,5.559-1.49,11.063-3.535,15.228c-1.553,3.164-4.635,4.776-5.166,8.701C173.441,60.267,176.572,57.852,179.373,55.052z
	 M170.219,32.846c1.916-2.838,3.715-6.427,4.531-10.605c0.291-1.492,0.689-3.437,0.453-4.622c-0.375-1.888-2.557-3.391-4.805-3.082
	c-1.549,0.213-2.547,1.226-3.443,2.357c0.119-1.512-1.59-1.183-2.719-0.997c-0.5,1.134-1.482,2.283-1.27,3.897
	c0.078,0.594,0.561,1.193,0.725,1.812c2.162,8.172-4.41,13.266-5.166,19.759C164.035,40.518,167.312,37.148,170.219,32.846z
	 M42.509,14.628c-4.057,5.196-2.794,12.716,0.181,17.674c2.859,4.765,7.187,8.535,13.233,9.426c-0.858-4.851-5.327-5.44-5.71-10.786
	c-0.117-1.625,0.008-3.325,0.181-4.895c0.161-1.463,0.706-3.179,0.453-4.713c-0.07-0.428-0.498-1.017-0.725-1.541
	c-0.618-1.428-1.431-3.897-3.172-3.897c-1.025,0-1.488,0.93-2.356,1.269C44.377,15.841,43.611,15.066,42.509,14.628z M22.75,21.063
	c-0.076,2.22,1.638,4.376,2.356,6.254c2.273,5.94,5.145,13.435,10.242,15.771c1.037-1.772-0.558-4.098,0-6.254
	c-3.32-4.521-1.13-13.072,1.178-17.04c-0.476-2.677-4.919-3.655-7.16-1.904C27.413,14.46,22.839,18.465,22.75,21.063z M11.964,22.06
	c-1.826-0.782-2.618-2.918-4.26-3.535c-1.335-0.502-2.902,0.048-3.716,0.544C1.66,20.488,0,23.821,0,27.589
	c0,6.936,4.246,13.117,6.345,18.672c0,0,0.07,0.147,0.09,0.181c0.804,1.328,2.137,2.543,3.172,3.716
	c2.842,3.218,5.499,6.166,7.704,9.698c0.457,0.731,0.778,1.616,1.269,2.266c0.451,0.597,1.234,1.142,1.813,1.813
	c0.604,0.701,1.14,1.493,1.812,1.812c1.179-9.373-1.924-16.66-3.716-24.02c-0.629-2.583-1.329-5.354-1.178-8.248
	c0.248-4.759,4.891-7.486,3.082-13.052C16.92,20.663,15.331,23.502,11.964,22.06z M182,56.755
	c-0.193,4.253-1.287,7.603-2.447,10.877c-1.123,3.177-2.441,6.13-4.439,8.973c-1.748,2.485-3.967,4.851-6.164,7.251
	c-1.693,1.849-5.373,4.733-5.529,7.886c-0.168,3.401,2.842,5.208,5.711,4.26c0.904-0.299,1.594-1.173,2.355-1.269
	c3.283-0.414,4.643,3.652,7.523,3.716c3.416,0.075,4.885-4.16,5.711-7.069c0.809-2.857,0.982-6.61,1.088-9.971
	c0.16-5.122-0.172-10.967-0.545-15.861c-0.133-1.751-0.049-3.683-0.363-5.167c-0.125-0.596-0.688-1.429-0.996-2.266
	c-0.404-1.096-0.781-1.82-1.812-1.632C181.986,56.498,181.994,56.626,182,56.755z M19.759,76.423
	c-0.657-1.25-1.565-2.429-2.175-3.716c-1.355-2.86-0.949-7.472-3.535-9.063c-0.357-0.166-0.289,0.053-0.363,0.181
	c-0.564,0.987-0.861,3.499-1.087,5.167c-1.675,12.364,1.177,23.693,6.435,30.454c0.815,1.048,2.093,2.731,3.172,3.172
	c0.572,0.234,1.472,0.303,2.266,0.544c0.781,0.238,1.714,0.518,2.538,0.363c1.455-0.272,2.13-2.175,3.535-2.538
	c2.385-0.617,5.856,1.487,6.888-1.088C36.66,86.862,24.427,85.302,19.759,76.423z M43.869,103.978
	c-0.211,0.499-0.025,0.945,0.181,1.178c1.408,1.582,3.141-1.277,4.079-1.359c0.847-0.074,1.809,0.842,2.9,0.815
	c1.522-0.036,2.331-1.358,2.357-2.81c0.042-2.397-1.737-5.298-4.895-5.348c-3.584-2.579-4.046-8.28-4.351-14.14
	c-0.061,0-0.121,0-0.181,0C36.904,85.073,37.83,100.797,43.869,103.978z M148.465,98.448c0.463,1.652,1.791,2.439,3.354,2.991
	c0.391,1.009,0.713,2.062,1.812,2.175c2.604,0.27,4.512-4.193,7.434-4.169c2.422-4.813,1.373-13.662-3.445-15.046
	C158.043,92.198,153.051,95.358,148.465,98.448z M62.359,98.357c-1.168-1.069-2.299-2.598-3.172-4.078
	c-0.846-1.435-1.908-3.176-1.994-5.258c-0.048-1.165,0.396-1.719,0.363-2.99c-0.005-0.056-0.014-0.107-0.091-0.091
	c-3.964,3.401-4.805,13.623-1.178,18.581c0.669,0.915,1.585,1.654,2.447,2.447c0.896,0.823,1.776,1.854,2.81,2.084
	c2.286,0.511,3.736-1.682,6.526-1.45C70.105,102.391,64.945,100.726,62.359,98.357z M144.93,109.144
	c1.156-0.371,2.027-2.059,2.539-3.444c2.082-5.659-0.113-13.574-4.17-15.228c-0.951,6.936-3.758,12.015-10.061,13.596
	c-1.047,4.339,4.842,4.679,7.521,3.173C141.703,108.171,142.973,109.772,144.93,109.144z M68.341,97.451
	c0.029,4.788,2.238,9.358,4.985,11.874c1.054,0.965,2.494,2.032,4.079,2.175c2.191,0.198,2.584-1,3.625-2.175
	c1.716,2.584,5.707,0.682,4.623-2.629c-0.382-1.166-2.376-2.292-3.716-3.082c-3.181-1.873-5.211-3.579-7.704-6.072
	c-2.216-2.216-3.666-3.919-4.713-6.889c-0.091,0-0.108-0.073-0.181-0.091C68.758,92.46,68.327,95.089,68.341,97.451z
	 M126.803,93.463c0.021,4.508-1.176,7.164-3.264,9.427c-1.207,1.309-2.867,2.44-4.35,3.082c-1.252,0.541-3.018,0.629-3.445,2.356
	c0.615,3.059,6.418,3.989,8.52,1.631c0.938,0.383,1.34,1.644,2.629,1.45c0.947-0.142,1.863-2.006,2.266-2.9
	c2.266-5.021,0.309-12.138-2.084-15.227c-0.115-0.005-0.125-0.116-0.271-0.091C126.803,93.282,126.803,93.373,126.803,93.463z
	 M106.861,104.431c-1.602,1.307-4.879,2.273-5.348,4.351c-0.449,1.996,2.053,4.951,3.354,4.985c1.16,0.029,1.211-1.229,2.447-1.088
	c0.793,0.09,1.287,1.201,2.086,1.541c0.635,0.27,1.777,0.492,2.537,0.181c0.756-0.31,1.582-2.011,1.994-2.991
	c1.398-3.319,0.898-7.227,0.182-10.967c-0.422-2.201-0.666-4.43-1.631-6.073c-0.117-0.005-0.127-0.115-0.273-0.09
	C111.094,97.879,109.848,101.996,106.861,104.431z M85.653,102.799c0.34,5.477,3.486,9.285,6.707,12.146
	c1.416-1.746,5.504-0.562,6.707-2.356c0.92-1.372,0.223-3.629-0.633-4.623c-1.204-1.396-3.316-2.144-4.533-3.172
	c-1.135-0.96-2.26-2.615-3.263-3.988c-1.526-2.09-2.892-3.765-3.988-5.801c-0.005-0.055-0.014-0.107-0.091-0.091
	C86.031,97.603,85.477,99.963,85.653,102.799z"/>
<path display="none" fill-rule="evenodd" clip-rule="evenodd" d="M97.89,12c-2.068,2.388-2.47,6.173-2.267,10.786
	c0.188,4.281,2.089,7.705,2.447,11.239c-1,0.093-1.874-0.732-2.538-1.359c-0.698-0.661-1.322-1.44-1.903-2.176
	c-3-3.795-5.971-7.199-7.07-13.233c-0.204-1.118-0.64-2.504-0.544-3.444c0.221-2.161,3.222-2.566,4.351-0.815
	C90.531,9.141,96.552,9.317,97.89,12z"/>
<path display="none" fill-rule="evenodd" clip-rule="evenodd" d="M115.109,32.574c0.016-4.197,3.871-6.159,4.26-10.151
	c0.045-0.441,0.16-1.32,0-1.903c-0.402-1.468-2.66-1.76-3.08-3.444c0.471-1.414,1.625-3.83,2.9-4.895
	c1.42-1.187,3.127-0.53,3.443,1.269c1.135-0.541,2.182-2.414,3.535-3.082c0.141-0.069,1.072-0.416,1.178-0.362
	c0.885,0.442,1.436,3.351,1.541,4.804c0.393,5.393-1.701,9.211-4.531,12.417C122.053,29.833,118.781,32.119,115.109,32.574z"/>
<path display="none" fill-rule="evenodd" clip-rule="evenodd" d="M108.131,11.818c1.471-1.109,3.873-0.34,4.352,0.997
	c0.369,1.035,0.223,2.745,0.18,3.988c-0.141,4.09-1.342,6.933-3.08,9.154c-1.863,2.377-3.219,4.825-5.168,7.07
	c-0.596,0.687-1.266,1.65-2.266,1.631c1.246-3.449,2.74-7.396,2.447-12.689c-0.131-2.386-0.838-4.615-1.994-6.254
	c-0.363-0.517-1.223-1.108-1.359-1.631c-0.535-2.062,1.373-3.758,2.9-3.988C106.025,9.812,107.252,10.685,108.131,11.818z"/>
<path display="none" fill-rule="evenodd" clip-rule="evenodd" d="M81.03,35.021c-5.527-1.561-10.062-7.772-10.514-15.046
	c-0.156-2.52,0.157-4.634,0.906-6.526c0.353-0.891,1.188-2.98,2.175-3.082c1.154-0.118,1.458,1.13,2.538,1.269
	c1.028,0.132,1.828-0.533,2.628-0.453c1.829,0.184,3.5,3.264,2.719,5.982c-0.542,1.885-2.903,2.218-3.444,3.897
	c-0.314,0.975-0.142,2.32-0.09,3.082C78.255,28.712,80.494,31.358,81.03,35.021z"/>
<path display="none" fill-rule="evenodd" clip-rule="evenodd" d="M60.184,16.35c0.451-2.763,4.051-2.194,5.348-0.544
	c0.188,1.448-0.652,2.88-0.635,4.169c0.009,0.679,0.392,1.213,0.453,1.812c0.206,1.991-0.304,3.906-0.181,5.62
	c0.303,4.223,3.209,7.164,2.9,11.511c-6.245-2.938-10.957-9.461-12.871-17.402c-0.278-1.157-0.761-2.45-0.725-3.535
	c0.044-1.321,1.198-4.692,2.085-5.348C58.234,13.405,58.801,15.285,60.184,16.35z"/>
<path display="none" fill-rule="evenodd" clip-rule="evenodd" d="M141.758,14.809c0.795-0.443,1.604-0.874,2.99-0.725
	c0.441,0.495,0.363,1.51,1.27,1.541c-0.918,11.258-5.666,18.684-16.225,20.303c-0.131-0.344,0.396-0.794,0.725-1.269
	c2.129-3.079,5.186-7.726,4.805-13.052c-0.051-0.714-0.178-1.531-0.543-2.175c-0.68-1.193-2.244-1.263-2.721-2.81
	c2.605-0.004,4.229-3.663,6.709-3.988C140.445,12.414,141.086,13.711,141.758,14.809z"/>
<path display="none" fill-rule="evenodd" clip-rule="evenodd" d="M154.809,15.897c2.561-0.22,3.146-2.413,5.529-2.81
	c2.525,6.494-0.832,13.555-4.441,17.312c-3.018,3.142-6.664,5.491-11.963,5.62c1.924-5.405,9.48-8.857,6.707-16.678
	c-3.941-0.862,0.23-8.459,3.262-5.801C154.447,14.018,154.662,14.758,154.809,15.897z"/>
<path display="none" fill-rule="evenodd" clip-rule="evenodd" d="M169.402,61.035c0.531-3.925,3.613-5.538,5.166-8.701
	c2.045-4.165,2.836-9.668,3.535-15.228c0.682-5.426,0.912-11.896-1.27-16.133c0.488-2.456,3.322-5.736,6.527-4.532
	c0.963,0.362,1.297,1.207,2.084,1.904c2.289-0.568,3.334-3.536,5.348-4.351c0.398-0.161,1.158-0.088,1.631,0.182
	c1.795,1.022,2.076,5.246,2.086,8.157c0.014,4.82-1.125,9.368-2.357,13.596c-1.213,4.163-2.656,7.932-4.805,11.148
	c-2.229,3.338-5.303,5.305-7.975,7.976C176.572,57.852,173.441,60.267,169.402,61.035z"/>
<path display="none" fill-rule="evenodd" clip-rule="evenodd" d="M158.525,41.366c0.756-6.494,7.328-11.587,5.166-19.759
	c-0.164-0.619-0.646-1.218-0.725-1.812c-0.213-1.615,0.77-2.763,1.27-3.897c1.129-0.186,2.838-0.515,2.719,0.997
	c0.896-1.131,1.895-2.144,3.443-2.357c2.248-0.309,4.43,1.194,4.805,3.082c0.236,1.186-0.162,3.13-0.453,4.622
	c-0.816,4.178-2.615,7.767-4.531,10.605C167.312,37.148,164.035,40.518,158.525,41.366z"/>
<path display="none" fill-rule="evenodd" clip-rule="evenodd" d="M44.594,17.166c0.869-0.338,1.332-1.269,2.356-1.269
	c1.741,0,2.554,2.47,3.172,3.897c0.227,0.524,0.655,1.112,0.725,1.541c0.252,1.535-0.292,3.25-0.453,4.713
	c-0.173,1.57-0.298,3.269-0.181,4.895c0.383,5.346,4.852,5.935,5.71,10.786c-6.046-0.892-10.374-4.662-13.233-9.426
	c-2.975-4.958-4.238-12.479-0.181-17.674C43.611,15.066,44.377,15.841,44.594,17.166z"/>
<path display="none" fill-rule="evenodd" clip-rule="evenodd" d="M29.367,17.891c2.241-1.751,6.685-0.773,7.16,1.904
	c-2.309,3.967-4.499,12.519-1.178,17.04c-0.558,2.157,1.037,4.482,0,6.254c-5.098-2.336-7.969-9.831-10.242-15.771
	c-0.718-1.878-2.432-4.034-2.356-6.254C22.839,18.465,27.413,14.46,29.367,17.891z"/>
<path display="none" fill-rule="evenodd" clip-rule="evenodd" d="M20.394,20.429c1.809,5.565-2.834,8.292-3.082,13.052
	c-0.15,2.894,0.549,5.665,1.178,8.248c1.792,7.359,4.895,14.647,3.716,24.02c-0.672-0.319-1.208-1.111-1.812-1.812
	c-0.579-0.672-1.362-1.217-1.813-1.813c-0.491-0.649-0.812-1.535-1.269-2.266c-2.205-3.533-4.862-6.48-7.704-9.698
	c-1.036-1.173-2.369-2.388-3.172-3.716c-0.021-0.034-0.09-0.181-0.09-0.181C4.246,40.706,0,34.525,0,27.589
	c0-3.768,1.66-7.101,3.988-8.52c0.814-0.496,2.381-1.046,3.716-0.544c1.642,0.617,2.434,2.753,4.26,3.535
	C15.331,23.502,16.92,20.663,20.394,20.429z"/>
<path display="none" fill-rule="evenodd" clip-rule="evenodd" d="M182.092,56.482c1.031-0.188,1.408,0.536,1.812,1.632
	c0.309,0.837,0.871,1.67,0.996,2.266c0.314,1.484,0.23,3.416,0.363,5.167c0.373,4.895,0.705,10.739,0.545,15.861
	c-0.105,3.36-0.279,7.113-1.088,9.971c-0.826,2.909-2.295,7.145-5.711,7.069c-2.881-0.063-4.24-4.13-7.523-3.716
	c-0.762,0.096-1.451,0.97-2.355,1.269c-2.869,0.948-5.879-0.858-5.711-4.26c0.156-3.152,3.836-6.037,5.529-7.886
	c2.197-2.4,4.416-4.766,6.164-7.251c1.998-2.843,3.316-5.796,4.439-8.973c1.16-3.274,2.254-6.624,2.447-10.877
	C181.994,56.626,181.986,56.498,182.092,56.482z"/>
<path display="none" fill-rule="evenodd" clip-rule="evenodd" d="M37.433,99.898c-1.032,2.575-4.503,0.471-6.888,1.088
	c-1.405,0.363-2.08,2.266-3.535,2.538c-0.824,0.154-1.757-0.125-2.538-0.363c-0.794-0.241-1.694-0.31-2.266-0.544
	c-1.08-0.44-2.357-2.124-3.172-3.172c-5.258-6.761-8.11-18.09-6.435-30.454c0.226-1.668,0.523-4.18,1.087-5.167
	c0.074-0.128,0.006-0.347,0.363-0.181c2.586,1.592,2.179,6.203,3.535,9.063c0.61,1.287,1.518,2.466,2.175,3.716
	C24.427,85.302,36.66,86.862,37.433,99.898z"/>
<path display="none" fill-rule="evenodd" clip-rule="evenodd" d="M43.959,82.314c0.06,0,0.121,0,0.181,0
	c0.305,5.859,0.766,11.561,4.351,14.14c3.157,0.05,4.937,2.95,4.895,5.348c-0.026,1.451-0.835,2.773-2.357,2.81
	c-1.092,0.026-2.054-0.89-2.9-0.815c-0.938,0.082-2.67,2.941-4.079,1.359c-0.207-0.232-0.392-0.679-0.181-1.178
	C37.83,100.797,36.904,85.073,43.959,82.314z"/>
<path display="none" fill-rule="evenodd" clip-rule="evenodd" d="M157.619,84.399c4.818,1.384,5.867,10.232,3.445,15.046
	c-2.922-0.024-4.83,4.438-7.434,4.169c-1.1-0.113-1.422-1.166-1.812-2.175c-1.562-0.552-2.891-1.339-3.354-2.991
	C153.051,95.358,158.043,92.198,157.619,84.399z"/>
<path display="none" fill-rule="evenodd" clip-rule="evenodd" d="M68.069,107.603c-2.79-0.231-4.24,1.961-6.526,1.45
	c-1.033-0.23-1.913-1.261-2.81-2.084c-0.862-0.793-1.778-1.532-2.447-2.447c-3.626-4.958-2.786-15.18,1.178-18.581
	c0.077-0.017,0.085,0.035,0.091,0.091c0.034,1.271-0.411,1.825-0.363,2.99c0.086,2.082,1.148,3.823,1.994,5.258
	c0.874,1.48,2.004,3.009,3.172,4.078C64.945,100.726,70.105,102.391,68.069,107.603z"/>
<path display="none" fill-rule="evenodd" clip-rule="evenodd" d="M140.76,107.24c-2.68,1.506-8.568,1.166-7.521-3.173
	c6.303-1.581,9.109-6.66,10.061-13.596c4.057,1.653,6.252,9.568,4.17,15.228c-0.512,1.386-1.383,3.073-2.539,3.444
	C142.973,109.772,141.703,108.171,140.76,107.24z"/>
<path display="none" fill-rule="evenodd" clip-rule="evenodd" d="M69.338,90.562c0.073,0.018,0.09,0.091,0.181,0.091
	c1.048,2.97,2.498,4.673,4.713,6.889c2.493,2.493,4.523,4.199,7.704,6.072c1.34,0.79,3.334,1.916,3.716,3.082
	c1.084,3.311-2.906,5.213-4.623,2.629c-1.042,1.175-1.434,2.373-3.625,2.175c-1.584-0.143-3.025-1.21-4.079-2.175
	c-2.748-2.516-4.956-7.086-4.985-11.874C68.327,95.089,68.758,92.46,69.338,90.562z"/>
<path display="none" fill-rule="evenodd" clip-rule="evenodd" d="M126.803,93.191c0.146-0.025,0.156,0.086,0.271,0.091
	c2.393,3.089,4.35,10.205,2.084,15.227c-0.402,0.895-1.318,2.759-2.266,2.9c-1.289,0.193-1.691-1.067-2.629-1.45
	c-2.102,2.358-7.904,1.428-8.52-1.631c0.428-1.728,2.193-1.815,3.445-2.356c1.482-0.642,3.143-1.773,4.35-3.082
	c2.088-2.263,3.285-4.919,3.264-9.427C126.803,93.373,126.803,93.282,126.803,93.191z"/>
<path display="none" fill-rule="evenodd" clip-rule="evenodd" d="M112.209,94.279c0.146-0.025,0.156,0.085,0.273,0.09
	c0.965,1.644,1.209,3.872,1.631,6.073c0.717,3.74,1.217,7.647-0.182,10.967c-0.412,0.98-1.238,2.682-1.994,2.991
	c-0.76,0.312-1.902,0.089-2.537-0.181c-0.799-0.34-1.293-1.451-2.086-1.541c-1.236-0.141-1.287,1.117-2.447,1.088
	c-1.301-0.034-3.803-2.989-3.354-4.985c0.469-2.077,3.746-3.044,5.348-4.351C109.848,101.996,111.094,97.879,112.209,94.279z"/>
<path display="none" fill-rule="evenodd" clip-rule="evenodd" d="M86.559,94.913c0.077-0.017,0.085,0.036,0.091,0.091
	c1.096,2.036,2.461,3.711,3.988,5.801c1.003,1.373,2.128,3.028,3.263,3.988c1.216,1.028,3.329,1.776,4.533,3.172
	c0.855,0.994,1.553,3.251,0.633,4.623c-1.202,1.795-5.291,0.61-6.707,2.356c-3.221-2.86-6.367-6.669-6.707-12.146
	C85.477,99.963,86.031,97.603,86.559,94.913z"/>
</svg>
